<svg id="Ebene_1" data-name="Ebene 1" xmlns="http://www.w3.org/2000/svg" viewBox="0 0 651.5 85.56"><defs><style>.cls-1{fill:url(#linear-gradient)}.cls-2{fill:url(#ADVAN2)}.cls-3{fill:url(#ADV1)}.cls-4{fill:#3a3a3a}.cls-5{fill:#929292}</style><linearGradient id="linear-gradient" x1="32.98" y1="85.09" x2="32.98" y2=".09" gradientUnits="userSpaceOnUse"><stop offset="0" stop-color="#136202"/><stop offset="1" stop-color="#0baa03"/></linearGradient><linearGradient id="ADVAN2" x1="58.51" y1="85.09" x2="58.51" y2="10.09" gradientUnits="userSpaceOnUse"><stop offset="0" stop-color="#177b01"/><stop offset="1" stop-color="#0db904"/></linearGradient><linearGradient id="ADV1" x1="98.69" y1="85.09" x2="98.69" y2="20.09" gradientUnits="userSpaceOnUse"><stop offset="0" stop-color="#1d9702"/><stop offset="1" stop-color="#0fd305"/></linearGradient></defs><title>advanpure_logo</title><path class="cls-1" d="M65.97 18.95L53.99.09 0 85.09h23.96l1.37-2.15 40.64-63.99z"/><path class="cls-2" d="M88.32 28.95L76.34 10.09l-47.64 75h23.97l1.36-2.15 34.29-53.99z"/><path class="cls-3" d="M57.41 85.09h24.13l17.15-27 17.15 27h24.13l-41.28-65-41.28 65z"/><path class="cls-4" d="M198.48 54.11l-2.67-7.78h-21.34l-2.68 7.78H156L176.33 0h17.61l20.36 54.11zm-13.3-40.32l-6.9 20.37H192zm33.1 40.32V0H241c17 0 29.29 10.22 29.29 27S258 54.11 241.07 54.11zM256 27c0-8.36-5-14.85-14.93-14.85h-8.84v29.79H241c9.49 0 15-6.89 15-14.94zm34.24 27.11L269.87 0h15.83l13.38 39 13.31-39h15.82l-20.37 54.11zm75.12 0l-2.67-7.78h-21.34l-2.68 7.78h-15.82L343.21 0h17.61l20.36 54.11zm-13.3-40.32l-6.9 20.37h13.71zM422 54.11L399.11 22.8v31.31h-13.95V0h14.36l21.9 29.77V0h14v54.11zm23.19 0V0h27.1c12.17 0 18.82 8.19 18.82 18s-6.65 17.93-18.82 17.93h-13.14v18.18zM476.91 18c0-3.73-3-5.84-6.73-5.84h-11v11.6h11c3.73.01 6.73-2.1 6.73-5.76zm20.45 14.21V0h14.19v31.72c0 6.41 3.9 11 11.44 11s11.36-4.63 11.36-11V0h14.12v32.13c0 13.47-8.11 23-25.48 23s-25.63-9.62-25.63-22.92zm91.02 21.9l-9.08-18.17h-7.14v18.17h-14V0h27.1c12 0 18.82 8 18.82 18 0 9.41-5.68 14.44-10.79 16.23l11 19.87zm1.55-36.18c0-3.73-3-5.76-6.74-5.76h-11v11.6h11c3.73 0 6.74-2.03 6.74-5.84zm21.9 36.18V0h39.67v12.17h-25.72v8.44h25.15v12.17h-25.15v9.16h25.72v12.17z"/><path class="cls-5" d="M156.06 85.09v-24h15.73v2.66h-12.74v7.74h12.49v2.67h-12.49v8.27h12.74v2.67zm40.71 0v-20.2l-8.13 20.2h-1.23l-8.17-20.2v20.2h-3v-24h4.28L188 79.58l7.45-18.5h4.28v24zm8.32 0v-24h3v24zM212 81.7l1.8-2.3a9.91 9.91 0 0 0 7.52 3.46c4.28 0 5.65-2.31 5.65-4.18 0-6.19-14.22-2.74-14.22-11.3 0-4 3.53-6.7 8.28-6.7a11.27 11.27 0 0 1 8.5 3.39l-1.8 2.19a9.08 9.08 0 0 0-6.95-2.88c-2.84 0-4.93 1.55-4.93 3.82 0 5.4 14.22 2.3 14.22 11.26 0 3.46-2.38 7.06-8.86 7.06A11.91 11.91 0 0 1 212 81.7zm20.77 0l1.8-2.3a9.91 9.91 0 0 0 7.53 3.46c4.28 0 5.65-2.31 5.65-4.18 0-6.19-14.22-2.74-14.22-11.3 0-4 3.53-6.7 8.28-6.7a11.24 11.24 0 0 1 8.49 3.39l-1.8 2.19a9 9 0 0 0-6.94-2.88c-2.85 0-4.93 1.55-4.93 3.82 0 5.4 14.21 2.3 14.21 11.26 0 3.46-2.37 7.06-8.85 7.06a11.93 11.93 0 0 1-9.22-3.82zM255 85.09v-24h3v24zm7.37-11.99c0-7.09 4.82-12.42 11.91-12.42s12 5.33 12 12.42-4.86 12.42-12 12.42-11.91-5.33-11.91-12.42zm20.77 0c0-5.61-3.5-9.75-8.86-9.75s-8.82 4.14-8.82 9.75 3.42 9.76 8.82 9.76 8.86-4.18 8.86-9.76zm24.44 11.99l-14-19.15v19.15h-3v-24h3.06l13.82 18.75V61.08h3v24zm15.81-3.39l1.8-2.3a9.89 9.89 0 0 0 7.52 3.46c4.28 0 5.65-2.31 5.65-4.18 0-6.19-14.22-2.74-14.22-11.3 0-4 3.53-6.7 8.28-6.7a11.27 11.27 0 0 1 8.5 3.39l-1.8 2.19a9.08 9.08 0 0 0-6.95-2.88c-2.84 0-4.93 1.55-4.93 3.82 0 5.4 14.22 2.3 14.22 11.26 0 3.46-2.38 7.06-8.86 7.06a11.91 11.91 0 0 1-9.21-3.82zm28.87 3.39V74.94l-9.47-13.86h3.49l7.45 11.16 7.46-11.16h3.49l-9.43 13.86v10.15zm13.1-3.39l1.8-2.3a9.91 9.91 0 0 0 7.53 3.46c4.28 0 5.65-2.31 5.65-4.18 0-6.19-14.22-2.74-14.22-11.3 0-4 3.53-6.7 8.28-6.7a11.25 11.25 0 0 1 8.49 3.39l-1.8 2.19a9.08 9.08 0 0 0-6.94-2.88c-2.85 0-4.93 1.55-4.93 3.82 0 5.4 14.21 2.3 14.21 11.26 0 3.46-2.37 7.06-8.85 7.06a11.93 11.93 0 0 1-9.22-3.82zm27.98 3.39V63.74h-7.6v-2.66H404v2.66h-7.63v21.35zm14.29 0v-24h15.73v2.66h-12.75v7.74h12.5v2.67h-12.5v8.27h12.75v2.67zm40.71 0v-20.2l-8.13 20.2H439l-8.17-20.2v20.2h-3v-24h4.29l7.48 18.5 7.4-18.51h4.29v24zm6.88-3.39l1.8-2.3a9.91 9.91 0 0 0 7.52 3.46c4.28 0 5.65-2.31 5.65-4.18 0-6.19-14.22-2.74-14.22-11.3 0-4 3.53-6.7 8.28-6.7a11.27 11.27 0 0 1 8.5 3.39L471 66.26a9.08 9.08 0 0 0-7-2.88c-2.84 0-4.93 1.55-4.93 3.82 0 5.4 14.22 2.3 14.22 11.26 0 3.46-2.38 7.06-8.86 7.06a11.91 11.91 0 0 1-9.21-3.82zm30.31-8.6a12 12 0 0 1 12.35-12.42 10.67 10.67 0 0 1 9.1 4.75l-2.48 1.41a8.08 8.08 0 0 0-6.62-3.49c-5.26 0-9.25 4-9.25 9.75s4 9.76 9.25 9.76a8.17 8.17 0 0 0 6.62-3.5l2.5 1.37a10.82 10.82 0 0 1-9.14 4.79 12 12 0 0 1-12.33-12.42zm24.62 11.99v-24h3v21.33h11.15v2.67zm17.85 0v-24h15.73v2.66H531v7.74h12.49v2.67H531v8.27h12.74v2.67zm37.34 0l-2.13-5.37h-12l-2.12 5.37h-3.42l9.68-24h3.71l9.65 24zm-8.1-21l-5.07 13h10.18zm31.35 21l-14-19.15v19.15h-3v-24h3.06l13.83 18.75V61.08h3v24zm8.21 0v-24h3v24zm25.31 0l-14-19.15v19.15h-3v-24h3.06L622 79.83V61.08h3v24zm7.24-11.99a12 12 0 0 1 12.34-12.42 11.41 11.41 0 0 1 9.31 4.47l-2.38 1.51a8.84 8.84 0 0 0-6.95-3.31c-5.25 0-9.25 4-9.25 9.75s4 9.76 9.25 9.76a9.45 9.45 0 0 0 6.48-2.6v-4.85h-8.28v-2.67h11.23v8.64a12.4 12.4 0 0 1-9.43 4.18 12 12 0 0 1-12.32-12.46z"/></svg>