<svg xmlns="http://www.w3.org/2000/svg" xmlns:xlink="http://www.w3.org/1999/xlink" width="453" zoomAndPan="magnify" viewBox="0 0 339.75 128.249994" height="171" preserveAspectRatio="xMidYMid meet" version="1.0"><defs><g/><clipPath id="5b9dc98534"><path d="M 55 112 L 146.300781 112 L 146.300781 115 L 55 115 Z M 55 112 " clip-rule="nonzero"/></clipPath><clipPath id="ba892a1500"><path d="M 41.238281 110.007812 L 146.300781 110.007812 L 146.300781 116.71875 L 41.238281 116.71875 Z M 41.238281 110.007812 " clip-rule="nonzero"/></clipPath><clipPath id="c80b85814b"><path d="M 192.480469 112 L 284 112 L 284 115 L 192.480469 115 Z M 192.480469 112 " clip-rule="nonzero"/></clipPath><clipPath id="f007e81bff"><path d="M 192.480469 110.007812 L 297.554688 110.007812 L 297.554688 116.71875 L 192.480469 116.71875 Z M 192.480469 110.007812 " clip-rule="nonzero"/></clipPath><clipPath id="d255a44231"><path d="M 93.738281 14 L 225 14 L 225 52 L 93.738281 52 Z M 93.738281 14 " clip-rule="nonzero"/></clipPath><clipPath id="3547ba7e0e"><path d="M 117 37 L 245.101562 37 L 245.101562 55 L 117 55 Z M 117 37 " clip-rule="nonzero"/></clipPath></defs><g clip-path="url(#5b9dc98534)"><path fill="#a1ffc7" d="M 55.179688 112.667969 L 257.898438 112.667969 L 257.898438 114.941406 Z M 55.179688 112.667969 " fill-opacity="1" fill-rule="nonzero"/></g><g clip-path="url(#ba892a1500)"><path fill="#a1ffc7" d="M 273.359375 102.621094 L 259.296875 102.621094 L 257.128906 106.972656 L 41.238281 106.972656 L 255.746094 106.972656 L 258.164062 108.78125 L 260.320312 105.042969 L 269.535156 105.042969 L 261.847656 118.957031 L 69.730469 118.957031 L 262.882812 120.757812 L 273.359375 102.621094 " fill-opacity="1" fill-rule="nonzero"/></g><g clip-path="url(#c80b85814b)"><path fill="#a1ffc7" d="M 283.613281 112.667969 L 80.894531 112.667969 L 80.894531 114.941406 Z M 283.613281 112.667969 " fill-opacity="1" fill-rule="nonzero"/></g><g clip-path="url(#f007e81bff)"><path fill="#a1ffc7" d="M 65.433594 102.621094 L 79.496094 102.621094 L 81.660156 106.972656 L 297.554688 106.972656 L 83.046875 106.972656 L 80.628906 108.78125 L 78.46875 105.042969 L 69.257812 105.042969 L 76.945312 118.957031 L 269.0625 118.957031 L 75.910156 120.757812 L 65.433594 102.621094 " fill-opacity="1" fill-rule="nonzero"/></g><g fill="#ffffff" fill-opacity="1"><g transform="translate(152.957674, 116.168151)"><g><path d="M 5.296875 0 L 0.859375 0 C 0.785156 0 0.722656 -0.0195312 0.671875 -0.0625 C 0.628906 -0.113281 0.609375 -0.171875 0.609375 -0.234375 L 0.609375 -0.625 C 0.609375 -0.664062 0.617188 -0.707031 0.640625 -0.75 L 4.03125 -4.0625 C 4.25 -4.269531 4.394531 -4.457031 4.46875 -4.625 C 4.550781 -4.800781 4.59375 -4.992188 4.59375 -5.203125 C 4.59375 -5.472656 4.519531 -5.710938 4.375 -5.921875 C 4.226562 -6.128906 4.035156 -6.289062 3.796875 -6.40625 C 3.566406 -6.53125 3.304688 -6.59375 3.015625 -6.59375 L 2.953125 -6.59375 C 2.679688 -6.59375 2.421875 -6.523438 2.171875 -6.390625 C 1.921875 -6.265625 1.71875 -6.082031 1.5625 -5.84375 C 1.507812 -5.757812 1.445312 -5.71875 1.375 -5.71875 C 1.34375 -5.71875 1.316406 -5.726562 1.296875 -5.75 L 0.921875 -6.0625 C 0.878906 -6.101562 0.859375 -6.132812 0.859375 -6.15625 C 0.859375 -6.195312 0.867188 -6.238281 0.890625 -6.28125 C 0.921875 -6.320312 0.941406 -6.359375 0.953125 -6.390625 C 1.179688 -6.671875 1.460938 -6.910156 1.796875 -7.109375 C 2.140625 -7.316406 2.546875 -7.421875 3.015625 -7.421875 C 3.460938 -7.421875 3.875 -7.332031 4.25 -7.15625 C 4.625 -6.976562 4.921875 -6.722656 5.140625 -6.390625 C 5.359375 -6.054688 5.46875 -5.664062 5.46875 -5.21875 C 5.46875 -4.894531 5.40625 -4.597656 5.28125 -4.328125 C 5.15625 -4.054688 5 -3.828125 4.8125 -3.640625 C 4.707031 -3.535156 4.554688 -3.390625 4.359375 -3.203125 C 4.171875 -3.023438 3.957031 -2.820312 3.71875 -2.59375 C 3.476562 -2.363281 3.238281 -2.128906 3 -1.890625 C 2.757812 -1.660156 2.539062 -1.453125 2.34375 -1.265625 C 2.15625 -1.085938 2.007812 -0.945312 1.90625 -0.84375 L 5.296875 -0.84375 C 5.359375 -0.84375 5.410156 -0.828125 5.453125 -0.796875 C 5.503906 -0.765625 5.53125 -0.707031 5.53125 -0.625 L 5.53125 -0.234375 C 5.53125 -0.179688 5.503906 -0.128906 5.453125 -0.078125 C 5.410156 -0.0234375 5.359375 0 5.296875 0 Z M 5.296875 0 "/></g></g></g><g fill="#ffffff" fill-opacity="1"><g transform="translate(161.067814, 116.168151)"><g><path d="M 4.234375 -7.46875 C 4.753906 -7.46875 5.242188 -7.367188 5.703125 -7.171875 C 6.160156 -6.984375 6.5625 -6.710938 6.90625 -6.359375 C 7.257812 -6.015625 7.535156 -5.613281 7.734375 -5.15625 C 7.929688 -4.695312 8.03125 -4.203125 8.03125 -3.671875 C 8.03125 -3.140625 7.929688 -2.644531 7.734375 -2.1875 C 7.535156 -1.738281 7.257812 -1.34375 6.90625 -1 C 6.5625 -0.65625 6.160156 -0.382812 5.703125 -0.1875 C 5.242188 0.0078125 4.75 0.109375 4.21875 0.109375 C 3.695312 0.109375 3.207031 0.0078125 2.75 -0.1875 C 2.289062 -0.382812 1.890625 -0.65625 1.546875 -1 C 1.203125 -1.34375 0.929688 -1.742188 0.734375 -2.203125 C 0.535156 -2.660156 0.4375 -3.148438 0.4375 -3.671875 C 0.4375 -4.203125 0.535156 -4.695312 0.734375 -5.15625 C 0.929688 -5.613281 1.203125 -6.015625 1.546875 -6.359375 C 1.890625 -6.710938 2.289062 -6.984375 2.75 -7.171875 C 3.21875 -7.367188 3.710938 -7.46875 4.234375 -7.46875 Z M 1.296875 -3.6875 C 1.296875 -3.28125 1.375 -2.894531 1.53125 -2.53125 C 1.6875 -2.175781 1.894531 -1.863281 2.15625 -1.59375 C 2.414062 -1.332031 2.722656 -1.125 3.078125 -0.96875 C 3.441406 -0.820312 3.828125 -0.75 4.234375 -0.75 C 4.640625 -0.75 5.015625 -0.820312 5.359375 -0.96875 C 5.710938 -1.125 6.023438 -1.332031 6.296875 -1.59375 C 6.566406 -1.863281 6.773438 -2.175781 6.921875 -2.53125 C 7.078125 -2.894531 7.15625 -3.28125 7.15625 -3.6875 C 7.15625 -4.09375 7.078125 -4.46875 6.921875 -4.8125 C 6.773438 -5.164062 6.566406 -5.476562 6.296875 -5.75 C 6.023438 -6.019531 5.710938 -6.226562 5.359375 -6.375 C 5.015625 -6.53125 4.640625 -6.609375 4.234375 -6.609375 C 3.828125 -6.609375 3.441406 -6.53125 3.078125 -6.375 C 2.722656 -6.226562 2.414062 -6.019531 2.15625 -5.75 C 1.894531 -5.476562 1.6875 -5.164062 1.53125 -4.8125 C 1.375 -4.46875 1.296875 -4.09375 1.296875 -3.6875 Z M 1.296875 -3.6875 "/></g></g></g><g fill="#ffffff" fill-opacity="1"><g transform="translate(171.533245, 116.168151)"><g><path d="M 5.296875 0 L 0.859375 0 C 0.785156 0 0.722656 -0.0195312 0.671875 -0.0625 C 0.628906 -0.113281 0.609375 -0.171875 0.609375 -0.234375 L 0.609375 -0.625 C 0.609375 -0.664062 0.617188 -0.707031 0.640625 -0.75 L 4.03125 -4.0625 C 4.25 -4.269531 4.394531 -4.457031 4.46875 -4.625 C 4.550781 -4.800781 4.59375 -4.992188 4.59375 -5.203125 C 4.59375 -5.472656 4.519531 -5.710938 4.375 -5.921875 C 4.226562 -6.128906 4.035156 -6.289062 3.796875 -6.40625 C 3.566406 -6.53125 3.304688 -6.59375 3.015625 -6.59375 L 2.953125 -6.59375 C 2.679688 -6.59375 2.421875 -6.523438 2.171875 -6.390625 C 1.921875 -6.265625 1.71875 -6.082031 1.5625 -5.84375 C 1.507812 -5.757812 1.445312 -5.71875 1.375 -5.71875 C 1.34375 -5.71875 1.316406 -5.726562 1.296875 -5.75 L 0.921875 -6.0625 C 0.878906 -6.101562 0.859375 -6.132812 0.859375 -6.15625 C 0.859375 -6.195312 0.867188 -6.238281 0.890625 -6.28125 C 0.921875 -6.320312 0.941406 -6.359375 0.953125 -6.390625 C 1.179688 -6.671875 1.460938 -6.910156 1.796875 -7.109375 C 2.140625 -7.316406 2.546875 -7.421875 3.015625 -7.421875 C 3.460938 -7.421875 3.875 -7.332031 4.25 -7.15625 C 4.625 -6.976562 4.921875 -6.722656 5.140625 -6.390625 C 5.359375 -6.054688 5.46875 -5.664062 5.46875 -5.21875 C 5.46875 -4.894531 5.40625 -4.597656 5.28125 -4.328125 C 5.15625 -4.054688 5 -3.828125 4.8125 -3.640625 C 4.707031 -3.535156 4.554688 -3.390625 4.359375 -3.203125 C 4.171875 -3.023438 3.957031 -2.820312 3.71875 -2.59375 C 3.476562 -2.363281 3.238281 -2.128906 3 -1.890625 C 2.757812 -1.660156 2.539062 -1.453125 2.34375 -1.265625 C 2.15625 -1.085938 2.007812 -0.945312 1.90625 -0.84375 L 5.296875 -0.84375 C 5.359375 -0.84375 5.410156 -0.828125 5.453125 -0.796875 C 5.503906 -0.765625 5.53125 -0.707031 5.53125 -0.625 L 5.53125 -0.234375 C 5.53125 -0.179688 5.503906 -0.128906 5.453125 -0.078125 C 5.410156 -0.0234375 5.359375 0 5.296875 0 Z M 5.296875 0 "/></g></g></g><g fill="#ffffff" fill-opacity="1"><g transform="translate(179.643386, 116.168151)"><g><path d="M 4 -1.265625 L 0.75 -1.265625 C 0.65625 -1.265625 0.585938 -1.285156 0.546875 -1.328125 C 0.515625 -1.378906 0.5 -1.429688 0.5 -1.484375 C 0.5 -1.578125 0.519531 -1.660156 0.5625 -1.734375 C 0.601562 -1.816406 0.664062 -1.925781 0.75 -2.0625 C 1.28125 -2.882812 1.800781 -3.707031 2.3125 -4.53125 C 2.820312 -5.363281 3.347656 -6.179688 3.890625 -6.984375 C 3.984375 -7.117188 4.054688 -7.210938 4.109375 -7.265625 C 4.160156 -7.328125 4.222656 -7.363281 4.296875 -7.375 C 4.367188 -7.382812 4.46875 -7.390625 4.59375 -7.390625 C 4.78125 -7.390625 4.875 -7.28125 4.875 -7.0625 C 4.875 -7.0625 4.875 -7.046875 4.875 -7.015625 C 4.875 -6.984375 4.875 -6.890625 4.875 -6.734375 C 4.875 -6.585938 4.875 -6.335938 4.875 -5.984375 C 4.875 -5.640625 4.867188 -5.15625 4.859375 -4.53125 C 4.859375 -3.914062 4.859375 -3.113281 4.859375 -2.125 L 5.4375 -2.125 C 5.613281 -2.125 5.703125 -2.035156 5.703125 -1.859375 L 5.703125 -1.515625 C 5.703125 -1.347656 5.613281 -1.265625 5.4375 -1.265625 L 4.859375 -1.265625 L 4.859375 -0.265625 C 4.859375 -0.0859375 4.769531 0 4.59375 0 L 4.265625 0 C 4.085938 0 4 -0.0859375 4 -0.265625 Z M 1.71875 -2.125 L 4 -2.125 L 4 -5.671875 C 3.613281 -5.085938 3.234375 -4.5 2.859375 -3.90625 C 2.492188 -3.3125 2.113281 -2.71875 1.71875 -2.125 Z M 1.71875 -2.125 "/></g></g></g><path fill="#a1ffc7" d="M 171.765625 10.355469 C 149.128906 10.25 129.660156 13.84375 126.851562 14.199219 C 122.359375 14.765625 120.882812 17.855469 120.882812 17.855469 L 112.179688 36.941406 C 113.71875 36.753906 115.699219 36.511719 118.054688 36.226562 C 118.582031 0.0117188 209.953125 14 213.015625 16.039062 C 200.070312 11.8125 185.347656 10.417969 171.765625 10.355469 Z M 171.765625 10.355469 " fill-opacity="1" fill-rule="nonzero"/><g clip-path="url(#d255a44231)"><path fill="#a1ffc7" d="M 151.46875 15.398438 C 151.46875 15.398438 175.175781 11.328125 212.6875 18.050781 C 212.335938 17.699219 219.945312 24.070312 224.011719 37.160156 C 223.835938 36.984375 122.980469 28.316406 93.785156 51.140625 C 94.3125 50.433594 106.347656 37.871094 142.441406 34.683594 C 178.539062 31.5 221.535156 39.816406 216.40625 27.609375 C 211.273438 15.398438 183.316406 15.398438 151.46875 15.398438 Z M 151.46875 15.398438 " fill-opacity="1" fill-rule="nonzero"/></g><path fill="#a1ffc7" d="M 112.714844 36.765625 L 109.664062 39.59375 C 109.664062 39.59375 107.628906 36.984375 100.683594 37.25 C 93.738281 37.515625 97.542969 29.820312 101.65625 29.730469 C 105.769531 29.640625 109.753906 28.933594 109.441406 31.058594 C 109.132812 33.179688 109.089844 35.96875 108.46875 36.234375 C 107.851562 36.5 108.511719 30.171875 103.382812 31.144531 C 98.25 32.121094 99.269531 34.199219 100.550781 34.683594 C 101.835938 35.171875 103.691406 33.933594 105.242188 35.746094 C 106.789062 37.558594 111.34375 38.535156 112.714844 36.765625 Z M 112.714844 36.765625 " fill-opacity="1" fill-rule="nonzero"/><path fill="#a1ffc7" d="M 223.695312 37.074219 L 226.75 39.90625 C 226.75 39.90625 228.785156 37.296875 235.730469 37.5625 C 242.675781 37.828125 238.871094 30.128906 234.753906 30.042969 C 230.640625 29.953125 226.660156 29.246094 226.96875 31.371094 C 227.28125 33.492188 227.324219 36.28125 227.945312 36.542969 C 228.5625 36.808594 227.898438 30.484375 233.03125 31.457031 C 238.164062 32.429688 237.144531 34.511719 235.863281 34.996094 C 234.578125 35.484375 232.71875 34.246094 231.171875 36.058594 C 229.625 37.871094 225.066406 38.84375 223.695312 37.074219 Z M 223.695312 37.074219 " fill-opacity="1" fill-rule="nonzero"/><g clip-path="url(#3547ba7e0e)"><path fill="#a1ffc7" d="M 173.898438 37.515625 C 156.710938 37.574219 137.910156 39.457031 117.164062 45.746094 L 117.195312 45.738281 C 149.101562 38.097656 185.976562 38.253906 212.449219 40.167969 C 212.363281 40.175781 212.324219 40.171875 212.234375 40.175781 C 208.683594 40.359375 206.535156 40.882812 201.8125 41.304688 C 197.09375 41.726562 192.347656 42.261719 188.695312 42.921875 C 186.867188 43.25 185.316406 43.609375 184.167969 44 C 183.59375 44.195312 183.121094 44.402344 182.757812 44.625 C 182.394531 44.847656 182.128906 45.085938 182.019531 45.398438 C 181.90625 45.71875 182.050781 46.0625 182.316406 46.3125 C 215.875 66.917969 238.761719 27.839844 244.28125 54.34375 C 244.539062 54.328125 244.796875 54.308594 245.042969 54.304688 C 243.917969 46.351562 239.820312 44.390625 238.214844 41.714844 C 237.714844 40.878906 237.050781 40.488281 236.367188 40.425781 C 235.691406 40.367188 235.015625 40.613281 234.421875 40.9375 C 230.03125 44.230469 224.683594 46.289062 219.566406 47.253906 C 214.242188 48.214844 208.21875 48.605469 202.589844 48.601562 C 175.527344 43.726562 207.382812 41.558594 220.960938 40.242188 C 206.664062 39.226562 191.085938 37.457031 173.898438 37.515625 Z M 173.898438 37.515625 " fill-opacity="1" fill-rule="nonzero"/></g><g fill="#ffffff" fill-opacity="0.302"><g transform="translate(52.524661, 92.990918)"><g><path d="M 0 0 L 4.03125 -18.9375 L 12.046875 -18.9375 C 13.285156 -18.9375 14.363281 -18.8125 15.28125 -18.5625 C 16.207031 -18.3125 16.972656 -17.898438 17.578125 -17.328125 C 18.191406 -16.753906 18.648438 -16 18.953125 -15.0625 C 19.265625 -14.125 19.421875 -12.984375 19.421875 -11.640625 C 19.421875 -10.179688 19.234375 -8.753906 18.859375 -7.359375 C 18.492188 -5.972656 17.882812 -4.734375 17.03125 -3.640625 C 16.175781 -2.546875 15.054688 -1.664062 13.671875 -1 C 12.296875 -0.332031 10.59375 0 8.5625 0 Z M 8.171875 -2.09375 C 8.828125 -2.09375 9.40625 -2.363281 9.90625 -2.90625 C 10.414062 -3.457031 10.851562 -4.15625 11.21875 -5 C 11.59375 -5.84375 11.90625 -6.773438 12.15625 -7.796875 C 12.40625 -8.828125 12.601562 -9.816406 12.75 -10.765625 C 12.894531 -11.722656 13.003906 -12.578125 13.078125 -13.328125 C 13.148438 -14.085938 13.1875 -14.625 13.1875 -14.9375 C 13.1875 -15.5625 13.0625 -16.046875 12.8125 -16.390625 C 12.5625 -16.734375 12.128906 -16.90625 11.515625 -16.90625 L 10.078125 -16.90625 L 6.890625 -2.09375 Z M 8.171875 -2.09375 "/></g></g></g><g fill="#ffffff" fill-opacity="0.302"><g transform="translate(71.523524, 92.990918)"><g><path d="M 9.578125 -8.171875 C 10.171875 -8.171875 10.671875 -8.421875 11.078125 -8.921875 C 11.484375 -9.421875 11.820312 -10.023438 12.09375 -10.734375 C 12.363281 -11.453125 12.554688 -12.195312 12.671875 -12.96875 C 12.796875 -13.75 12.859375 -14.425781 12.859375 -15 C 12.859375 -15.539062 12.765625 -15.992188 12.578125 -16.359375 C 12.398438 -16.722656 12.015625 -16.90625 11.421875 -16.90625 L 10.078125 -16.90625 L 8.203125 -8.171875 Z M 7.78125 -6.265625 L 6.4375 0 L 0 0 L 4.03125 -18.9375 L 10.921875 -18.9375 C 12.054688 -18.9375 13.085938 -18.875 14.015625 -18.75 C 14.953125 -18.632812 15.757812 -18.398438 16.4375 -18.046875 C 17.113281 -17.691406 17.640625 -17.179688 18.015625 -16.515625 C 18.390625 -15.847656 18.578125 -14.957031 18.578125 -13.84375 C 18.578125 -12.8125 18.410156 -11.832031 18.078125 -10.90625 C 17.753906 -9.976562 17.226562 -9.171875 16.5 -8.484375 C 15.78125 -7.796875 14.84375 -7.253906 13.6875 -6.859375 C 12.539062 -6.460938 11.140625 -6.265625 9.484375 -6.265625 Z M 7.78125 -6.265625 "/></g></g></g><g fill="#ffffff" fill-opacity="0.302"><g transform="translate(88.673203, 92.990918)"><g><path d="M 4.03125 -18.9375 L 16.578125 -18.9375 L 16.109375 -16.671875 L 10 -16.671875 L 8.828125 -11.21875 L 13.9375 -11.21875 L 13.453125 -8.921875 L 8.359375 -8.921875 L 6.4375 0 L 0 0 Z M 4.03125 -18.9375 "/></g></g></g><g fill="#ffffff" fill-opacity="0.302"><g transform="translate(102.571894, 92.990918)"><g><path d="M 1.484375 -7.640625 L 10.890625 -7.640625 L 10.296875 -4.921875 L 0.859375 -4.921875 Z M 1.484375 -7.640625 "/></g></g></g><g fill="#ffffff" fill-opacity="0.302"><g transform="translate(114.203846, 92.990918)"><g><path d="M 16.828125 -1.609375 C 16.328125 -1.367188 15.8125 -1.132812 15.28125 -0.90625 C 14.757812 -0.675781 14.195312 -0.476562 13.59375 -0.3125 C 13 -0.144531 12.347656 -0.015625 11.640625 0.078125 C 10.941406 0.179688 10.175781 0.234375 9.34375 0.234375 C 6.675781 0.234375 4.617188 -0.359375 3.171875 -1.546875 C 1.734375 -2.742188 1.015625 -4.734375 1.015625 -7.515625 C 1.015625 -9.128906 1.257812 -10.644531 1.75 -12.0625 C 2.25 -13.488281 2.984375 -14.734375 3.953125 -15.796875 C 4.929688 -16.859375 6.132812 -17.695312 7.5625 -18.3125 C 9 -18.925781 10.644531 -19.234375 12.5 -19.234375 C 13.375 -19.234375 14.171875 -19.171875 14.890625 -19.046875 C 15.617188 -18.929688 16.273438 -18.78125 16.859375 -18.59375 C 17.453125 -18.40625 17.984375 -18.203125 18.453125 -17.984375 C 18.921875 -17.765625 19.34375 -17.554688 19.71875 -17.359375 L 18.640625 -11.8125 L 13.28125 -11.8125 C 13.289062 -12.007812 13.3125 -12.265625 13.34375 -12.578125 C 13.375 -12.898438 13.398438 -13.222656 13.421875 -13.546875 C 13.441406 -13.878906 13.460938 -14.203125 13.484375 -14.515625 C 13.503906 -14.835938 13.515625 -15.109375 13.515625 -15.328125 C 13.515625 -15.484375 13.503906 -15.664062 13.484375 -15.875 C 13.460938 -16.09375 13.410156 -16.300781 13.328125 -16.5 C 13.253906 -16.695312 13.128906 -16.859375 12.953125 -16.984375 C 12.785156 -17.117188 12.566406 -17.1875 12.296875 -17.1875 C 11.773438 -17.1875 11.300781 -16.96875 10.875 -16.53125 C 10.445312 -16.101562 10.0625 -15.535156 9.71875 -14.828125 C 9.382812 -14.128906 9.085938 -13.332031 8.828125 -12.4375 C 8.566406 -11.539062 8.351562 -10.628906 8.1875 -9.703125 C 8.019531 -8.785156 7.890625 -7.878906 7.796875 -6.984375 C 7.710938 -6.085938 7.671875 -5.300781 7.671875 -4.625 C 7.671875 -4.425781 7.675781 -4.175781 7.6875 -3.875 C 7.707031 -3.582031 7.769531 -3.296875 7.875 -3.015625 C 7.976562 -2.734375 8.132812 -2.492188 8.34375 -2.296875 C 8.550781 -2.097656 8.832031 -2 9.1875 -2 C 9.800781 -2 10.394531 -2.378906 10.96875 -3.140625 C 11.550781 -3.910156 12.0625 -5.28125 12.5 -7.25 L 18.015625 -7.25 Z M 16.828125 -1.609375 "/></g></g></g><g fill="#ffffff" fill-opacity="0.302"><g transform="translate(132.516721, 92.990918)"><g><path d="M 4.03125 -18.9375 L 10.5 -18.9375 L 6.984375 -2.5 L 13.03125 -2.5 L 12.53125 0 L 0 0 Z M 4.03125 -18.9375 "/></g></g></g><g fill="#ffffff" fill-opacity="0.302"><g transform="translate(146.146981, 92.990918)"><g><path d="M 4.03125 -18.9375 L 16.578125 -18.9375 L 16.109375 -16.671875 L 10.015625 -16.671875 L 8.765625 -10.921875 L 13.875 -10.921875 L 13.390625 -8.6875 L 8.296875 -8.6875 L 6.921875 -2.296875 L 13 -2.296875 L 12.5625 0 L 0 0 Z M 4.03125 -18.9375 "/></g></g></g><g fill="#ffffff" fill-opacity="0.302"><g transform="translate(160.40357, 92.990918)"><g><path d="M 16.53125 0 L 9.546875 0 L 9.125 -4.75 L 3.609375 -4.75 L 1.484375 0 L -1.40625 0 L 7.390625 -18.9375 L 14.46875 -18.9375 Z M 4.59375 -6.921875 L 8.921875 -6.921875 L 8.234375 -15.03125 Z M 4.59375 -6.921875 "/></g></g></g><g fill="#ffffff" fill-opacity="0.302"><g transform="translate(177.612896, 92.990918)"><g><path d="M 15.890625 0 L 8.921875 0 L 5.609375 -13.6875 L 2.6875 0 L 0 0 L 4.03125 -18.9375 L 11.15625 -18.9375 L 14.28125 -5.078125 L 17.234375 -18.9375 L 19.984375 -18.9375 Z M 15.890625 0 "/></g></g></g><g fill="#ffffff" fill-opacity="0.302"><g transform="translate(196.074891, 92.990918)"><g><path d="M 6.4375 0 L 0 0 L 4.03125 -18.9375 L 10.5 -18.9375 Z M 6.4375 0 "/></g></g></g><g fill="#ffffff" fill-opacity="0.302"><g transform="translate(205.052374, 92.990918)"><g><path d="M 15.890625 0 L 8.921875 0 L 5.609375 -13.6875 L 2.6875 0 L 0 0 L 4.03125 -18.9375 L 11.15625 -18.9375 L 14.28125 -5.078125 L 17.234375 -18.9375 L 19.984375 -18.9375 Z M 15.890625 0 "/></g></g></g><g fill="#ffffff" fill-opacity="0.302"><g transform="translate(223.514369, 92.990918)"><g><path d="M 10.59375 -8.65625 L 18.3125 -8.65625 L 16.578125 0 L 13.0625 0 L 12.5 -1.90625 L 12.375 -1.90625 C 11.863281 -1.3125 11.253906 -0.804688 10.546875 -0.390625 C 9.835938 0.0234375 8.914062 0.234375 7.78125 0.234375 C 6.90625 0.234375 6.066406 0.09375 5.265625 -0.1875 C 4.460938 -0.476562 3.742188 -0.9375 3.109375 -1.5625 C 2.484375 -2.1875 1.984375 -3.003906 1.609375 -4.015625 C 1.234375 -5.035156 1.046875 -6.265625 1.046875 -7.703125 C 1.046875 -9.242188 1.28125 -10.710938 1.75 -12.109375 C 2.226562 -13.503906 2.945312 -14.734375 3.90625 -15.796875 C 4.863281 -16.859375 6.054688 -17.695312 7.484375 -18.3125 C 8.921875 -18.925781 10.59375 -19.234375 12.5 -19.234375 C 13.96875 -19.234375 15.25 -19.0625 16.34375 -18.71875 C 17.4375 -18.382812 18.472656 -18.007812 19.453125 -17.59375 L 18.3125 -11.8125 L 13.28125 -11.8125 C 13.289062 -12.03125 13.316406 -12.285156 13.359375 -12.578125 C 13.398438 -12.878906 13.429688 -13.191406 13.453125 -13.515625 C 13.472656 -13.847656 13.492188 -14.171875 13.515625 -14.484375 C 13.535156 -14.804688 13.546875 -15.085938 13.546875 -15.328125 C 13.546875 -15.484375 13.535156 -15.664062 13.515625 -15.875 C 13.492188 -16.09375 13.441406 -16.300781 13.359375 -16.5 C 13.285156 -16.695312 13.164062 -16.859375 13 -16.984375 C 12.84375 -17.117188 12.613281 -17.1875 12.3125 -17.1875 C 11.800781 -17.1875 11.332031 -16.96875 10.90625 -16.53125 C 10.476562 -16.101562 10.09375 -15.535156 9.75 -14.828125 C 9.414062 -14.128906 9.125 -13.332031 8.875 -12.4375 C 8.625 -11.539062 8.414062 -10.628906 8.25 -9.703125 C 8.082031 -8.785156 7.953125 -7.882812 7.859375 -7 C 7.765625 -6.113281 7.71875 -5.34375 7.71875 -4.6875 C 7.71875 -4.488281 7.726562 -4.238281 7.75 -3.9375 C 7.769531 -3.632812 7.832031 -3.335938 7.9375 -3.046875 C 8.050781 -2.765625 8.210938 -2.519531 8.421875 -2.3125 C 8.628906 -2.101562 8.9375 -2 9.34375 -2 C 10 -2 10.632812 -2.351562 11.25 -3.0625 C 11.863281 -3.78125 12.328125 -4.976562 12.640625 -6.65625 L 10.140625 -6.65625 Z M 10.59375 -8.65625 "/></g></g></g><g fill="#ffffff" fill-opacity="0.302"><g transform="translate(241.916723, 92.990918)"><g><path d="M 6.0625 -2.625 C 6.0625 -2.164062 5.960938 -1.753906 5.765625 -1.390625 C 5.578125 -1.035156 5.328125 -0.738281 5.015625 -0.5 C 4.710938 -0.269531 4.363281 -0.09375 3.96875 0.03125 C 3.570312 0.164062 3.15625 0.234375 2.71875 0.234375 C 1.957031 0.234375 1.3125 0.03125 0.78125 -0.375 C 0.257812 -0.78125 0 -1.421875 0 -2.296875 C 0 -2.753906 0.0859375 -3.160156 0.265625 -3.515625 C 0.441406 -3.878906 0.679688 -4.175781 0.984375 -4.40625 C 1.285156 -4.644531 1.628906 -4.828125 2.015625 -4.953125 C 2.398438 -5.085938 2.800781 -5.15625 3.21875 -5.15625 C 4.03125 -5.15625 4.707031 -4.953125 5.25 -4.546875 C 5.789062 -4.140625 6.0625 -3.5 6.0625 -2.625 Z M 6.0625 -2.625 "/></g></g></g><g fill="#ffffff" fill-opacity="0.302"><g transform="translate(249.343263, 92.990918)"><g><path d="M 18.28125 -14.609375 C 18.28125 -14.035156 18.195312 -13.519531 18.03125 -13.0625 C 17.863281 -12.601562 17.628906 -12.195312 17.328125 -11.84375 C 17.023438 -11.488281 16.675781 -11.171875 16.28125 -10.890625 C 15.882812 -10.609375 15.445312 -10.347656 14.96875 -10.109375 C 15.1875 -10.035156 15.445312 -9.910156 15.75 -9.734375 C 16.050781 -9.566406 16.335938 -9.332031 16.609375 -9.03125 C 16.890625 -8.738281 17.125 -8.359375 17.3125 -7.890625 C 17.5 -7.421875 17.59375 -6.847656 17.59375 -6.171875 C 17.59375 -5.273438 17.40625 -4.445312 17.03125 -3.6875 C 16.65625 -2.9375 16.09375 -2.285156 15.34375 -1.734375 C 14.601562 -1.191406 13.691406 -0.765625 12.609375 -0.453125 C 11.523438 -0.148438 10.273438 0 8.859375 0 L 0 0 L 4.03125 -18.9375 L 11.875 -18.9375 C 12.644531 -18.9375 13.410156 -18.878906 14.171875 -18.765625 C 14.941406 -18.660156 15.628906 -18.445312 16.234375 -18.125 C 16.847656 -17.8125 17.34375 -17.367188 17.71875 -16.796875 C 18.09375 -16.234375 18.28125 -15.503906 18.28125 -14.609375 Z M 10.171875 -11 C 10.609375 -11 10.976562 -11.128906 11.28125 -11.390625 C 11.59375 -11.648438 11.847656 -11.972656 12.046875 -12.359375 C 12.242188 -12.753906 12.390625 -13.171875 12.484375 -13.609375 C 12.585938 -14.054688 12.640625 -14.460938 12.640625 -14.828125 C 12.640625 -15.398438 12.503906 -15.890625 12.234375 -16.296875 C 11.972656 -16.703125 11.554688 -16.90625 10.984375 -16.90625 L 10.078125 -16.90625 L 8.796875 -11 Z M 8.03125 -1.875 C 8.625 -1.875 9.117188 -2.039062 9.515625 -2.375 C 9.910156 -2.71875 10.238281 -3.140625 10.5 -3.640625 C 10.757812 -4.140625 10.941406 -4.660156 11.046875 -5.203125 C 11.160156 -5.753906 11.21875 -6.238281 11.21875 -6.65625 C 11.21875 -7.351562 11.070312 -7.90625 10.78125 -8.3125 C 10.488281 -8.71875 10.023438 -8.921875 9.390625 -8.921875 L 8.296875 -8.921875 L 6.828125 -1.875 Z M 8.03125 -1.875 "/></g></g></g><g fill="#ffffff" fill-opacity="0.302"><g transform="translate(267.149092, 92.990918)"><g><path d="M 10.59375 -8.65625 L 18.3125 -8.65625 L 16.578125 0 L 13.0625 0 L 12.5 -1.90625 L 12.375 -1.90625 C 11.863281 -1.3125 11.253906 -0.804688 10.546875 -0.390625 C 9.835938 0.0234375 8.914062 0.234375 7.78125 0.234375 C 6.90625 0.234375 6.066406 0.09375 5.265625 -0.1875 C 4.460938 -0.476562 3.742188 -0.9375 3.109375 -1.5625 C 2.484375 -2.1875 1.984375 -3.003906 1.609375 -4.015625 C 1.234375 -5.035156 1.046875 -6.265625 1.046875 -7.703125 C 1.046875 -9.242188 1.28125 -10.710938 1.75 -12.109375 C 2.226562 -13.503906 2.945312 -14.734375 3.90625 -15.796875 C 4.863281 -16.859375 6.054688 -17.695312 7.484375 -18.3125 C 8.921875 -18.925781 10.59375 -19.234375 12.5 -19.234375 C 13.96875 -19.234375 15.25 -19.0625 16.34375 -18.71875 C 17.4375 -18.382812 18.472656 -18.007812 19.453125 -17.59375 L 18.3125 -11.8125 L 13.28125 -11.8125 C 13.289062 -12.03125 13.316406 -12.285156 13.359375 -12.578125 C 13.398438 -12.878906 13.429688 -13.191406 13.453125 -13.515625 C 13.472656 -13.847656 13.492188 -14.171875 13.515625 -14.484375 C 13.535156 -14.804688 13.546875 -15.085938 13.546875 -15.328125 C 13.546875 -15.484375 13.535156 -15.664062 13.515625 -15.875 C 13.492188 -16.09375 13.441406 -16.300781 13.359375 -16.5 C 13.285156 -16.695312 13.164062 -16.859375 13 -16.984375 C 12.84375 -17.117188 12.613281 -17.1875 12.3125 -17.1875 C 11.800781 -17.1875 11.332031 -16.96875 10.90625 -16.53125 C 10.476562 -16.101562 10.09375 -15.535156 9.75 -14.828125 C 9.414062 -14.128906 9.125 -13.332031 8.875 -12.4375 C 8.625 -11.539062 8.414062 -10.628906 8.25 -9.703125 C 8.082031 -8.785156 7.953125 -7.882812 7.859375 -7 C 7.765625 -6.113281 7.71875 -5.34375 7.71875 -4.6875 C 7.71875 -4.488281 7.726562 -4.238281 7.75 -3.9375 C 7.769531 -3.632812 7.832031 -3.335938 7.9375 -3.046875 C 8.050781 -2.765625 8.210938 -2.519531 8.421875 -2.3125 C 8.628906 -2.101562 8.9375 -2 9.34375 -2 C 10 -2 10.632812 -2.351562 11.25 -3.0625 C 11.863281 -3.78125 12.328125 -4.976562 12.640625 -6.65625 L 10.140625 -6.65625 Z M 10.59375 -8.65625 "/></g></g></g><g fill="#ffffff" fill-opacity="0.502"><g transform="translate(52.510695, 92.956344)"><g><path d="M 0 0 L 4.03125 -18.9375 L 12.046875 -18.9375 C 13.285156 -18.9375 14.363281 -18.8125 15.28125 -18.5625 C 16.207031 -18.3125 16.972656 -17.898438 17.578125 -17.328125 C 18.191406 -16.753906 18.648438 -16 18.953125 -15.0625 C 19.265625 -14.125 19.421875 -12.984375 19.421875 -11.640625 C 19.421875 -10.179688 19.234375 -8.753906 18.859375 -7.359375 C 18.492188 -5.972656 17.882812 -4.734375 17.03125 -3.640625 C 16.175781 -2.546875 15.054688 -1.664062 13.671875 -1 C 12.296875 -0.332031 10.59375 0 8.5625 0 Z M 8.171875 -2.09375 C 8.828125 -2.09375 9.40625 -2.363281 9.90625 -2.90625 C 10.414062 -3.457031 10.851562 -4.15625 11.21875 -5 C 11.59375 -5.84375 11.90625 -6.773438 12.15625 -7.796875 C 12.40625 -8.828125 12.601562 -9.816406 12.75 -10.765625 C 12.894531 -11.722656 13.003906 -12.578125 13.078125 -13.328125 C 13.148438 -14.085938 13.1875 -14.625 13.1875 -14.9375 C 13.1875 -15.5625 13.0625 -16.046875 12.8125 -16.390625 C 12.5625 -16.734375 12.128906 -16.90625 11.515625 -16.90625 L 10.078125 -16.90625 L 6.890625 -2.09375 Z M 8.171875 -2.09375 "/></g></g></g><g fill="#ffffff" fill-opacity="0.502"><g transform="translate(71.509557, 92.956344)"><g><path d="M 9.578125 -8.171875 C 10.171875 -8.171875 10.671875 -8.421875 11.078125 -8.921875 C 11.484375 -9.421875 11.820312 -10.023438 12.09375 -10.734375 C 12.363281 -11.453125 12.554688 -12.195312 12.671875 -12.96875 C 12.796875 -13.75 12.859375 -14.425781 12.859375 -15 C 12.859375 -15.539062 12.765625 -15.992188 12.578125 -16.359375 C 12.398438 -16.722656 12.015625 -16.90625 11.421875 -16.90625 L 10.078125 -16.90625 L 8.203125 -8.171875 Z M 7.78125 -6.265625 L 6.4375 0 L 0 0 L 4.03125 -18.9375 L 10.921875 -18.9375 C 12.054688 -18.9375 13.085938 -18.875 14.015625 -18.75 C 14.953125 -18.632812 15.757812 -18.398438 16.4375 -18.046875 C 17.113281 -17.691406 17.640625 -17.179688 18.015625 -16.515625 C 18.390625 -15.847656 18.578125 -14.957031 18.578125 -13.84375 C 18.578125 -12.8125 18.410156 -11.832031 18.078125 -10.90625 C 17.753906 -9.976562 17.226562 -9.171875 16.5 -8.484375 C 15.78125 -7.796875 14.84375 -7.253906 13.6875 -6.859375 C 12.539062 -6.460938 11.140625 -6.265625 9.484375 -6.265625 Z M 7.78125 -6.265625 "/></g></g></g><g fill="#ffffff" fill-opacity="0.502"><g transform="translate(88.659236, 92.956344)"><g><path d="M 4.03125 -18.9375 L 16.578125 -18.9375 L 16.109375 -16.671875 L 10 -16.671875 L 8.828125 -11.21875 L 13.9375 -11.21875 L 13.453125 -8.921875 L 8.359375 -8.921875 L 6.4375 0 L 0 0 Z M 4.03125 -18.9375 "/></g></g></g><g fill="#ffffff" fill-opacity="0.502"><g transform="translate(102.557927, 92.956344)"><g><path d="M 1.484375 -7.640625 L 10.890625 -7.640625 L 10.296875 -4.921875 L 0.859375 -4.921875 Z M 1.484375 -7.640625 "/></g></g></g><g fill="#ffffff" fill-opacity="0.502"><g transform="translate(114.189879, 92.956344)"><g><path d="M 16.828125 -1.609375 C 16.328125 -1.367188 15.8125 -1.132812 15.28125 -0.90625 C 14.757812 -0.675781 14.195312 -0.476562 13.59375 -0.3125 C 13 -0.144531 12.347656 -0.015625 11.640625 0.078125 C 10.941406 0.179688 10.175781 0.234375 9.34375 0.234375 C 6.675781 0.234375 4.617188 -0.359375 3.171875 -1.546875 C 1.734375 -2.742188 1.015625 -4.734375 1.015625 -7.515625 C 1.015625 -9.128906 1.257812 -10.644531 1.75 -12.0625 C 2.25 -13.488281 2.984375 -14.734375 3.953125 -15.796875 C 4.929688 -16.859375 6.132812 -17.695312 7.5625 -18.3125 C 9 -18.925781 10.644531 -19.234375 12.5 -19.234375 C 13.375 -19.234375 14.171875 -19.171875 14.890625 -19.046875 C 15.617188 -18.929688 16.273438 -18.78125 16.859375 -18.59375 C 17.453125 -18.40625 17.984375 -18.203125 18.453125 -17.984375 C 18.921875 -17.765625 19.34375 -17.554688 19.71875 -17.359375 L 18.640625 -11.8125 L 13.28125 -11.8125 C 13.289062 -12.007812 13.3125 -12.265625 13.34375 -12.578125 C 13.375 -12.898438 13.398438 -13.222656 13.421875 -13.546875 C 13.441406 -13.878906 13.460938 -14.203125 13.484375 -14.515625 C 13.503906 -14.835938 13.515625 -15.109375 13.515625 -15.328125 C 13.515625 -15.484375 13.503906 -15.664062 13.484375 -15.875 C 13.460938 -16.09375 13.410156 -16.300781 13.328125 -16.5 C 13.253906 -16.695312 13.128906 -16.859375 12.953125 -16.984375 C 12.785156 -17.117188 12.566406 -17.1875 12.296875 -17.1875 C 11.773438 -17.1875 11.300781 -16.96875 10.875 -16.53125 C 10.445312 -16.101562 10.0625 -15.535156 9.71875 -14.828125 C 9.382812 -14.128906 9.085938 -13.332031 8.828125 -12.4375 C 8.566406 -11.539062 8.351562 -10.628906 8.1875 -9.703125 C 8.019531 -8.785156 7.890625 -7.878906 7.796875 -6.984375 C 7.710938 -6.085938 7.671875 -5.300781 7.671875 -4.625 C 7.671875 -4.425781 7.675781 -4.175781 7.6875 -3.875 C 7.707031 -3.582031 7.769531 -3.296875 7.875 -3.015625 C 7.976562 -2.734375 8.132812 -2.492188 8.34375 -2.296875 C 8.550781 -2.097656 8.832031 -2 9.1875 -2 C 9.800781 -2 10.394531 -2.378906 10.96875 -3.140625 C 11.550781 -3.910156 12.0625 -5.28125 12.5 -7.25 L 18.015625 -7.25 Z M 16.828125 -1.609375 "/></g></g></g><g fill="#ffffff" fill-opacity="0.502"><g transform="translate(132.502754, 92.956344)"><g><path d="M 4.03125 -18.9375 L 10.5 -18.9375 L 6.984375 -2.5 L 13.03125 -2.5 L 12.53125 0 L 0 0 Z M 4.03125 -18.9375 "/></g></g></g><g fill="#ffffff" fill-opacity="0.502"><g transform="translate(146.133014, 92.956344)"><g><path d="M 4.03125 -18.9375 L 16.578125 -18.9375 L 16.109375 -16.671875 L 10.015625 -16.671875 L 8.765625 -10.921875 L 13.875 -10.921875 L 13.390625 -8.6875 L 8.296875 -8.6875 L 6.921875 -2.296875 L 13 -2.296875 L 12.5625 0 L 0 0 Z M 4.03125 -18.9375 "/></g></g></g><g fill="#ffffff" fill-opacity="0.502"><g transform="translate(160.389603, 92.956344)"><g><path d="M 16.53125 0 L 9.546875 0 L 9.125 -4.75 L 3.609375 -4.75 L 1.484375 0 L -1.40625 0 L 7.390625 -18.9375 L 14.46875 -18.9375 Z M 4.59375 -6.921875 L 8.921875 -6.921875 L 8.234375 -15.03125 Z M 4.59375 -6.921875 "/></g></g></g><g fill="#ffffff" fill-opacity="0.502"><g transform="translate(177.598929, 92.956344)"><g><path d="M 15.890625 0 L 8.921875 0 L 5.609375 -13.6875 L 2.6875 0 L 0 0 L 4.03125 -18.9375 L 11.15625 -18.9375 L 14.28125 -5.078125 L 17.234375 -18.9375 L 19.984375 -18.9375 Z M 15.890625 0 "/></g></g></g><g fill="#ffffff" fill-opacity="0.502"><g transform="translate(196.060924, 92.956344)"><g><path d="M 6.4375 0 L 0 0 L 4.03125 -18.9375 L 10.5 -18.9375 Z M 6.4375 0 "/></g></g></g><g fill="#ffffff" fill-opacity="0.502"><g transform="translate(205.038407, 92.956344)"><g><path d="M 15.890625 0 L 8.921875 0 L 5.609375 -13.6875 L 2.6875 0 L 0 0 L 4.03125 -18.9375 L 11.15625 -18.9375 L 14.28125 -5.078125 L 17.234375 -18.9375 L 19.984375 -18.9375 Z M 15.890625 0 "/></g></g></g><g fill="#ffffff" fill-opacity="0.502"><g transform="translate(223.500403, 92.956344)"><g><path d="M 10.59375 -8.65625 L 18.3125 -8.65625 L 16.578125 0 L 13.0625 0 L 12.5 -1.90625 L 12.375 -1.90625 C 11.863281 -1.3125 11.253906 -0.804688 10.546875 -0.390625 C 9.835938 0.0234375 8.914062 0.234375 7.78125 0.234375 C 6.90625 0.234375 6.066406 0.09375 5.265625 -0.1875 C 4.460938 -0.476562 3.742188 -0.9375 3.109375 -1.5625 C 2.484375 -2.1875 1.984375 -3.003906 1.609375 -4.015625 C 1.234375 -5.035156 1.046875 -6.265625 1.046875 -7.703125 C 1.046875 -9.242188 1.28125 -10.710938 1.75 -12.109375 C 2.226562 -13.503906 2.945312 -14.734375 3.90625 -15.796875 C 4.863281 -16.859375 6.054688 -17.695312 7.484375 -18.3125 C 8.921875 -18.925781 10.59375 -19.234375 12.5 -19.234375 C 13.96875 -19.234375 15.25 -19.0625 16.34375 -18.71875 C 17.4375 -18.382812 18.472656 -18.007812 19.453125 -17.59375 L 18.3125 -11.8125 L 13.28125 -11.8125 C 13.289062 -12.03125 13.316406 -12.285156 13.359375 -12.578125 C 13.398438 -12.878906 13.429688 -13.191406 13.453125 -13.515625 C 13.472656 -13.847656 13.492188 -14.171875 13.515625 -14.484375 C 13.535156 -14.804688 13.546875 -15.085938 13.546875 -15.328125 C 13.546875 -15.484375 13.535156 -15.664062 13.515625 -15.875 C 13.492188 -16.09375 13.441406 -16.300781 13.359375 -16.5 C 13.285156 -16.695312 13.164062 -16.859375 13 -16.984375 C 12.84375 -17.117188 12.613281 -17.1875 12.3125 -17.1875 C 11.800781 -17.1875 11.332031 -16.96875 10.90625 -16.53125 C 10.476562 -16.101562 10.09375 -15.535156 9.75 -14.828125 C 9.414062 -14.128906 9.125 -13.332031 8.875 -12.4375 C 8.625 -11.539062 8.414062 -10.628906 8.25 -9.703125 C 8.082031 -8.785156 7.953125 -7.882812 7.859375 -7 C 7.765625 -6.113281 7.71875 -5.34375 7.71875 -4.6875 C 7.71875 -4.488281 7.726562 -4.238281 7.75 -3.9375 C 7.769531 -3.632812 7.832031 -3.335938 7.9375 -3.046875 C 8.050781 -2.765625 8.210938 -2.519531 8.421875 -2.3125 C 8.628906 -2.101562 8.9375 -2 9.34375 -2 C 10 -2 10.632812 -2.351562 11.25 -3.0625 C 11.863281 -3.78125 12.328125 -4.976562 12.640625 -6.65625 L 10.140625 -6.65625 Z M 10.59375 -8.65625 "/></g></g></g><g fill="#ffffff" fill-opacity="0.502"><g transform="translate(241.902756, 92.956344)"><g><path d="M 6.0625 -2.625 C 6.0625 -2.164062 5.960938 -1.753906 5.765625 -1.390625 C 5.578125 -1.035156 5.328125 -0.738281 5.015625 -0.5 C 4.710938 -0.269531 4.363281 -0.09375 3.96875 0.03125 C 3.570312 0.164062 3.15625 0.234375 2.71875 0.234375 C 1.957031 0.234375 1.3125 0.03125 0.78125 -0.375 C 0.257812 -0.78125 0 -1.421875 0 -2.296875 C 0 -2.753906 0.0859375 -3.160156 0.265625 -3.515625 C 0.441406 -3.878906 0.679688 -4.175781 0.984375 -4.40625 C 1.285156 -4.644531 1.628906 -4.828125 2.015625 -4.953125 C 2.398438 -5.085938 2.800781 -5.15625 3.21875 -5.15625 C 4.03125 -5.15625 4.707031 -4.953125 5.25 -4.546875 C 5.789062 -4.140625 6.0625 -3.5 6.0625 -2.625 Z M 6.0625 -2.625 "/></g></g></g><g fill="#ffffff" fill-opacity="0.502"><g transform="translate(249.329296, 92.956344)"><g><path d="M 18.28125 -14.609375 C 18.28125 -14.035156 18.195312 -13.519531 18.03125 -13.0625 C 17.863281 -12.601562 17.628906 -12.195312 17.328125 -11.84375 C 17.023438 -11.488281 16.675781 -11.171875 16.28125 -10.890625 C 15.882812 -10.609375 15.445312 -10.347656 14.96875 -10.109375 C 15.1875 -10.035156 15.445312 -9.910156 15.75 -9.734375 C 16.050781 -9.566406 16.335938 -9.332031 16.609375 -9.03125 C 16.890625 -8.738281 17.125 -8.359375 17.3125 -7.890625 C 17.5 -7.421875 17.59375 -6.847656 17.59375 -6.171875 C 17.59375 -5.273438 17.40625 -4.445312 17.03125 -3.6875 C 16.65625 -2.9375 16.09375 -2.285156 15.34375 -1.734375 C 14.601562 -1.191406 13.691406 -0.765625 12.609375 -0.453125 C 11.523438 -0.148438 10.273438 0 8.859375 0 L 0 0 L 4.03125 -18.9375 L 11.875 -18.9375 C 12.644531 -18.9375 13.410156 -18.878906 14.171875 -18.765625 C 14.941406 -18.660156 15.628906 -18.445312 16.234375 -18.125 C 16.847656 -17.8125 17.34375 -17.367188 17.71875 -16.796875 C 18.09375 -16.234375 18.28125 -15.503906 18.28125 -14.609375 Z M 10.171875 -11 C 10.609375 -11 10.976562 -11.128906 11.28125 -11.390625 C 11.59375 -11.648438 11.847656 -11.972656 12.046875 -12.359375 C 12.242188 -12.753906 12.390625 -13.171875 12.484375 -13.609375 C 12.585938 -14.054688 12.640625 -14.460938 12.640625 -14.828125 C 12.640625 -15.398438 12.503906 -15.890625 12.234375 -16.296875 C 11.972656 -16.703125 11.554688 -16.90625 10.984375 -16.90625 L 10.078125 -16.90625 L 8.796875 -11 Z M 8.03125 -1.875 C 8.625 -1.875 9.117188 -2.039062 9.515625 -2.375 C 9.910156 -2.71875 10.238281 -3.140625 10.5 -3.640625 C 10.757812 -4.140625 10.941406 -4.660156 11.046875 -5.203125 C 11.160156 -5.753906 11.21875 -6.238281 11.21875 -6.65625 C 11.21875 -7.351562 11.070312 -7.90625 10.78125 -8.3125 C 10.488281 -8.71875 10.023438 -8.921875 9.390625 -8.921875 L 8.296875 -8.921875 L 6.828125 -1.875 Z M 8.03125 -1.875 "/></g></g></g><g fill="#ffffff" fill-opacity="0.502"><g transform="translate(267.135125, 92.956344)"><g><path d="M 10.59375 -8.65625 L 18.3125 -8.65625 L 16.578125 0 L 13.0625 0 L 12.5 -1.90625 L 12.375 -1.90625 C 11.863281 -1.3125 11.253906 -0.804688 10.546875 -0.390625 C 9.835938 0.0234375 8.914062 0.234375 7.78125 0.234375 C 6.90625 0.234375 6.066406 0.09375 5.265625 -0.1875 C 4.460938 -0.476562 3.742188 -0.9375 3.109375 -1.5625 C 2.484375 -2.1875 1.984375 -3.003906 1.609375 -4.015625 C 1.234375 -5.035156 1.046875 -6.265625 1.046875 -7.703125 C 1.046875 -9.242188 1.28125 -10.710938 1.75 -12.109375 C 2.226562 -13.503906 2.945312 -14.734375 3.90625 -15.796875 C 4.863281 -16.859375 6.054688 -17.695312 7.484375 -18.3125 C 8.921875 -18.925781 10.59375 -19.234375 12.5 -19.234375 C 13.96875 -19.234375 15.25 -19.0625 16.34375 -18.71875 C 17.4375 -18.382812 18.472656 -18.007812 19.453125 -17.59375 L 18.3125 -11.8125 L 13.28125 -11.8125 C 13.289062 -12.03125 13.316406 -12.285156 13.359375 -12.578125 C 13.398438 -12.878906 13.429688 -13.191406 13.453125 -13.515625 C 13.472656 -13.847656 13.492188 -14.171875 13.515625 -14.484375 C 13.535156 -14.804688 13.546875 -15.085938 13.546875 -15.328125 C 13.546875 -15.484375 13.535156 -15.664062 13.515625 -15.875 C 13.492188 -16.09375 13.441406 -16.300781 13.359375 -16.5 C 13.285156 -16.695312 13.164062 -16.859375 13 -16.984375 C 12.84375 -17.117188 12.613281 -17.1875 12.3125 -17.1875 C 11.800781 -17.1875 11.332031 -16.96875 10.90625 -16.53125 C 10.476562 -16.101562 10.09375 -15.535156 9.75 -14.828125 C 9.414062 -14.128906 9.125 -13.332031 8.875 -12.4375 C 8.625 -11.539062 8.414062 -10.628906 8.25 -9.703125 C 8.082031 -8.785156 7.953125 -7.882812 7.859375 -7 C 7.765625 -6.113281 7.71875 -5.34375 7.71875 -4.6875 C 7.71875 -4.488281 7.726562 -4.238281 7.75 -3.9375 C 7.769531 -3.632812 7.832031 -3.335938 7.9375 -3.046875 C 8.050781 -2.765625 8.210938 -2.519531 8.421875 -2.3125 C 8.628906 -2.101562 8.9375 -2 9.34375 -2 C 10 -2 10.632812 -2.351562 11.25 -3.0625 C 11.863281 -3.78125 12.328125 -4.976562 12.640625 -6.65625 L 10.140625 -6.65625 Z M 10.59375 -8.65625 "/></g></g></g><g fill="#ffffff" fill-opacity="1"><g transform="translate(52.496728, 92.921777)"><g><path d="M 0 0 L 4.03125 -18.9375 L 12.046875 -18.9375 C 13.285156 -18.9375 14.363281 -18.8125 15.28125 -18.5625 C 16.207031 -18.3125 16.972656 -17.898438 17.578125 -17.328125 C 18.191406 -16.753906 18.648438 -16 18.953125 -15.0625 C 19.265625 -14.125 19.421875 -12.984375 19.421875 -11.640625 C 19.421875 -10.179688 19.234375 -8.753906 18.859375 -7.359375 C 18.492188 -5.972656 17.882812 -4.734375 17.03125 -3.640625 C 16.175781 -2.546875 15.054688 -1.664062 13.671875 -1 C 12.296875 -0.332031 10.59375 0 8.5625 0 Z M 8.171875 -2.09375 C 8.828125 -2.09375 9.40625 -2.363281 9.90625 -2.90625 C 10.414062 -3.457031 10.851562 -4.15625 11.21875 -5 C 11.59375 -5.84375 11.90625 -6.773438 12.15625 -7.796875 C 12.40625 -8.828125 12.601562 -9.816406 12.75 -10.765625 C 12.894531 -11.722656 13.003906 -12.578125 13.078125 -13.328125 C 13.148438 -14.085938 13.1875 -14.625 13.1875 -14.9375 C 13.1875 -15.5625 13.0625 -16.046875 12.8125 -16.390625 C 12.5625 -16.734375 12.128906 -16.90625 11.515625 -16.90625 L 10.078125 -16.90625 L 6.890625 -2.09375 Z M 8.171875 -2.09375 "/></g></g></g><g fill="#ffffff" fill-opacity="1"><g transform="translate(71.495591, 92.921777)"><g><path d="M 9.578125 -8.171875 C 10.171875 -8.171875 10.671875 -8.421875 11.078125 -8.921875 C 11.484375 -9.421875 11.820312 -10.023438 12.09375 -10.734375 C 12.363281 -11.453125 12.554688 -12.195312 12.671875 -12.96875 C 12.796875 -13.75 12.859375 -14.425781 12.859375 -15 C 12.859375 -15.539062 12.765625 -15.992188 12.578125 -16.359375 C 12.398438 -16.722656 12.015625 -16.90625 11.421875 -16.90625 L 10.078125 -16.90625 L 8.203125 -8.171875 Z M 7.78125 -6.265625 L 6.4375 0 L 0 0 L 4.03125 -18.9375 L 10.921875 -18.9375 C 12.054688 -18.9375 13.085938 -18.875 14.015625 -18.75 C 14.953125 -18.632812 15.757812 -18.398438 16.4375 -18.046875 C 17.113281 -17.691406 17.640625 -17.179688 18.015625 -16.515625 C 18.390625 -15.847656 18.578125 -14.957031 18.578125 -13.84375 C 18.578125 -12.8125 18.410156 -11.832031 18.078125 -10.90625 C 17.753906 -9.976562 17.226562 -9.171875 16.5 -8.484375 C 15.78125 -7.796875 14.84375 -7.253906 13.6875 -6.859375 C 12.539062 -6.460938 11.140625 -6.265625 9.484375 -6.265625 Z M 7.78125 -6.265625 "/></g></g></g><g fill="#ffffff" fill-opacity="1"><g transform="translate(88.64527, 92.921777)"><g><path d="M 4.03125 -18.9375 L 16.578125 -18.9375 L 16.109375 -16.671875 L 10 -16.671875 L 8.828125 -11.21875 L 13.9375 -11.21875 L 13.453125 -8.921875 L 8.359375 -8.921875 L 6.4375 0 L 0 0 Z M 4.03125 -18.9375 "/></g></g></g><g fill="#ffffff" fill-opacity="1"><g transform="translate(102.543961, 92.921777)"><g><path d="M 1.484375 -7.640625 L 10.890625 -7.640625 L 10.296875 -4.921875 L 0.859375 -4.921875 Z M 1.484375 -7.640625 "/></g></g></g><g fill="#ffffff" fill-opacity="1"><g transform="translate(114.175913, 92.921777)"><g><path d="M 16.828125 -1.609375 C 16.328125 -1.367188 15.8125 -1.132812 15.28125 -0.90625 C 14.757812 -0.675781 14.195312 -0.476562 13.59375 -0.3125 C 13 -0.144531 12.347656 -0.015625 11.640625 0.078125 C 10.941406 0.179688 10.175781 0.234375 9.34375 0.234375 C 6.675781 0.234375 4.617188 -0.359375 3.171875 -1.546875 C 1.734375 -2.742188 1.015625 -4.734375 1.015625 -7.515625 C 1.015625 -9.128906 1.257812 -10.644531 1.75 -12.0625 C 2.25 -13.488281 2.984375 -14.734375 3.953125 -15.796875 C 4.929688 -16.859375 6.132812 -17.695312 7.5625 -18.3125 C 9 -18.925781 10.644531 -19.234375 12.5 -19.234375 C 13.375 -19.234375 14.171875 -19.171875 14.890625 -19.046875 C 15.617188 -18.929688 16.273438 -18.78125 16.859375 -18.59375 C 17.453125 -18.40625 17.984375 -18.203125 18.453125 -17.984375 C 18.921875 -17.765625 19.34375 -17.554688 19.71875 -17.359375 L 18.640625 -11.8125 L 13.28125 -11.8125 C 13.289062 -12.007812 13.3125 -12.265625 13.34375 -12.578125 C 13.375 -12.898438 13.398438 -13.222656 13.421875 -13.546875 C 13.441406 -13.878906 13.460938 -14.203125 13.484375 -14.515625 C 13.503906 -14.835938 13.515625 -15.109375 13.515625 -15.328125 C 13.515625 -15.484375 13.503906 -15.664062 13.484375 -15.875 C 13.460938 -16.09375 13.410156 -16.300781 13.328125 -16.5 C 13.253906 -16.695312 13.128906 -16.859375 12.953125 -16.984375 C 12.785156 -17.117188 12.566406 -17.1875 12.296875 -17.1875 C 11.773438 -17.1875 11.300781 -16.96875 10.875 -16.53125 C 10.445312 -16.101562 10.0625 -15.535156 9.71875 -14.828125 C 9.382812 -14.128906 9.085938 -13.332031 8.828125 -12.4375 C 8.566406 -11.539062 8.351562 -10.628906 8.1875 -9.703125 C 8.019531 -8.785156 7.890625 -7.878906 7.796875 -6.984375 C 7.710938 -6.085938 7.671875 -5.300781 7.671875 -4.625 C 7.671875 -4.425781 7.675781 -4.175781 7.6875 -3.875 C 7.707031 -3.582031 7.769531 -3.296875 7.875 -3.015625 C 7.976562 -2.734375 8.132812 -2.492188 8.34375 -2.296875 C 8.550781 -2.097656 8.832031 -2 9.1875 -2 C 9.800781 -2 10.394531 -2.378906 10.96875 -3.140625 C 11.550781 -3.910156 12.0625 -5.28125 12.5 -7.25 L 18.015625 -7.25 Z M 16.828125 -1.609375 "/></g></g></g><g fill="#ffffff" fill-opacity="1"><g transform="translate(132.488788, 92.921777)"><g><path d="M 4.03125 -18.9375 L 10.5 -18.9375 L 6.984375 -2.5 L 13.03125 -2.5 L 12.53125 0 L 0 0 Z M 4.03125 -18.9375 "/></g></g></g><g fill="#ffffff" fill-opacity="1"><g transform="translate(146.119048, 92.921777)"><g><path d="M 4.03125 -18.9375 L 16.578125 -18.9375 L 16.109375 -16.671875 L 10.015625 -16.671875 L 8.765625 -10.921875 L 13.875 -10.921875 L 13.390625 -8.6875 L 8.296875 -8.6875 L 6.921875 -2.296875 L 13 -2.296875 L 12.5625 0 L 0 0 Z M 4.03125 -18.9375 "/></g></g></g><g fill="#ffffff" fill-opacity="1"><g transform="translate(160.375637, 92.921777)"><g><path d="M 16.53125 0 L 9.546875 0 L 9.125 -4.75 L 3.609375 -4.75 L 1.484375 0 L -1.40625 0 L 7.390625 -18.9375 L 14.46875 -18.9375 Z M 4.59375 -6.921875 L 8.921875 -6.921875 L 8.234375 -15.03125 Z M 4.59375 -6.921875 "/></g></g></g><g fill="#ffffff" fill-opacity="1"><g transform="translate(177.584963, 92.921777)"><g><path d="M 15.890625 0 L 8.921875 0 L 5.609375 -13.6875 L 2.6875 0 L 0 0 L 4.03125 -18.9375 L 11.15625 -18.9375 L 14.28125 -5.078125 L 17.234375 -18.9375 L 19.984375 -18.9375 Z M 15.890625 0 "/></g></g></g><g fill="#ffffff" fill-opacity="1"><g transform="translate(196.046958, 92.921777)"><g><path d="M 6.4375 0 L 0 0 L 4.03125 -18.9375 L 10.5 -18.9375 Z M 6.4375 0 "/></g></g></g><g fill="#ffffff" fill-opacity="1"><g transform="translate(205.024441, 92.921777)"><g><path d="M 15.890625 0 L 8.921875 0 L 5.609375 -13.6875 L 2.6875 0 L 0 0 L 4.03125 -18.9375 L 11.15625 -18.9375 L 14.28125 -5.078125 L 17.234375 -18.9375 L 19.984375 -18.9375 Z M 15.890625 0 "/></g></g></g><g fill="#ffffff" fill-opacity="1"><g transform="translate(223.486436, 92.921777)"><g><path d="M 10.59375 -8.65625 L 18.3125 -8.65625 L 16.578125 0 L 13.0625 0 L 12.5 -1.90625 L 12.375 -1.90625 C 11.863281 -1.3125 11.253906 -0.804688 10.546875 -0.390625 C 9.835938 0.0234375 8.914062 0.234375 7.78125 0.234375 C 6.90625 0.234375 6.066406 0.09375 5.265625 -0.1875 C 4.460938 -0.476562 3.742188 -0.9375 3.109375 -1.5625 C 2.484375 -2.1875 1.984375 -3.003906 1.609375 -4.015625 C 1.234375 -5.035156 1.046875 -6.265625 1.046875 -7.703125 C 1.046875 -9.242188 1.28125 -10.710938 1.75 -12.109375 C 2.226562 -13.503906 2.945312 -14.734375 3.90625 -15.796875 C 4.863281 -16.859375 6.054688 -17.695312 7.484375 -18.3125 C 8.921875 -18.925781 10.59375 -19.234375 12.5 -19.234375 C 13.96875 -19.234375 15.25 -19.0625 16.34375 -18.71875 C 17.4375 -18.382812 18.472656 -18.007812 19.453125 -17.59375 L 18.3125 -11.8125 L 13.28125 -11.8125 C 13.289062 -12.03125 13.316406 -12.285156 13.359375 -12.578125 C 13.398438 -12.878906 13.429688 -13.191406 13.453125 -13.515625 C 13.472656 -13.847656 13.492188 -14.171875 13.515625 -14.484375 C 13.535156 -14.804688 13.546875 -15.085938 13.546875 -15.328125 C 13.546875 -15.484375 13.535156 -15.664062 13.515625 -15.875 C 13.492188 -16.09375 13.441406 -16.300781 13.359375 -16.5 C 13.285156 -16.695312 13.164062 -16.859375 13 -16.984375 C 12.84375 -17.117188 12.613281 -17.1875 12.3125 -17.1875 C 11.800781 -17.1875 11.332031 -16.96875 10.90625 -16.53125 C 10.476562 -16.101562 10.09375 -15.535156 9.75 -14.828125 C 9.414062 -14.128906 9.125 -13.332031 8.875 -12.4375 C 8.625 -11.539062 8.414062 -10.628906 8.25 -9.703125 C 8.082031 -8.785156 7.953125 -7.882812 7.859375 -7 C 7.765625 -6.113281 7.71875 -5.34375 7.71875 -4.6875 C 7.71875 -4.488281 7.726562 -4.238281 7.75 -3.9375 C 7.769531 -3.632812 7.832031 -3.335938 7.9375 -3.046875 C 8.050781 -2.765625 8.210938 -2.519531 8.421875 -2.3125 C 8.628906 -2.101562 8.9375 -2 9.34375 -2 C 10 -2 10.632812 -2.351562 11.25 -3.0625 C 11.863281 -3.78125 12.328125 -4.976562 12.640625 -6.65625 L 10.140625 -6.65625 Z M 10.59375 -8.65625 "/></g></g></g><g fill="#ffffff" fill-opacity="1"><g transform="translate(241.88879, 92.921777)"><g><path d="M 6.0625 -2.625 C 6.0625 -2.164062 5.960938 -1.753906 5.765625 -1.390625 C 5.578125 -1.035156 5.328125 -0.738281 5.015625 -0.5 C 4.710938 -0.269531 4.363281 -0.09375 3.96875 0.03125 C 3.570312 0.164062 3.15625 0.234375 2.71875 0.234375 C 1.957031 0.234375 1.3125 0.03125 0.78125 -0.375 C 0.257812 -0.78125 0 -1.421875 0 -2.296875 C 0 -2.753906 0.0859375 -3.160156 0.265625 -3.515625 C 0.441406 -3.878906 0.679688 -4.175781 0.984375 -4.40625 C 1.285156 -4.644531 1.628906 -4.828125 2.015625 -4.953125 C 2.398438 -5.085938 2.800781 -5.15625 3.21875 -5.15625 C 4.03125 -5.15625 4.707031 -4.953125 5.25 -4.546875 C 5.789062 -4.140625 6.0625 -3.5 6.0625 -2.625 Z M 6.0625 -2.625 "/></g></g></g><g fill="#ffffff" fill-opacity="1"><g transform="translate(249.31533, 92.921777)"><g><path d="M 18.28125 -14.609375 C 18.28125 -14.035156 18.195312 -13.519531 18.03125 -13.0625 C 17.863281 -12.601562 17.628906 -12.195312 17.328125 -11.84375 C 17.023438 -11.488281 16.675781 -11.171875 16.28125 -10.890625 C 15.882812 -10.609375 15.445312 -10.347656 14.96875 -10.109375 C 15.1875 -10.035156 15.445312 -9.910156 15.75 -9.734375 C 16.050781 -9.566406 16.335938 -9.332031 16.609375 -9.03125 C 16.890625 -8.738281 17.125 -8.359375 17.3125 -7.890625 C 17.5 -7.421875 17.59375 -6.847656 17.59375 -6.171875 C 17.59375 -5.273438 17.40625 -4.445312 17.03125 -3.6875 C 16.65625 -2.9375 16.09375 -2.285156 15.34375 -1.734375 C 14.601562 -1.191406 13.691406 -0.765625 12.609375 -0.453125 C 11.523438 -0.148438 10.273438 0 8.859375 0 L 0 0 L 4.03125 -18.9375 L 11.875 -18.9375 C 12.644531 -18.9375 13.410156 -18.878906 14.171875 -18.765625 C 14.941406 -18.660156 15.628906 -18.445312 16.234375 -18.125 C 16.847656 -17.8125 17.34375 -17.367188 17.71875 -16.796875 C 18.09375 -16.234375 18.28125 -15.503906 18.28125 -14.609375 Z M 10.171875 -11 C 10.609375 -11 10.976562 -11.128906 11.28125 -11.390625 C 11.59375 -11.648438 11.847656 -11.972656 12.046875 -12.359375 C 12.242188 -12.753906 12.390625 -13.171875 12.484375 -13.609375 C 12.585938 -14.054688 12.640625 -14.460938 12.640625 -14.828125 C 12.640625 -15.398438 12.503906 -15.890625 12.234375 -16.296875 C 11.972656 -16.703125 11.554688 -16.90625 10.984375 -16.90625 L 10.078125 -16.90625 L 8.796875 -11 Z M 8.03125 -1.875 C 8.625 -1.875 9.117188 -2.039062 9.515625 -2.375 C 9.910156 -2.71875 10.238281 -3.140625 10.5 -3.640625 C 10.757812 -4.140625 10.941406 -4.660156 11.046875 -5.203125 C 11.160156 -5.753906 11.21875 -6.238281 11.21875 -6.65625 C 11.21875 -7.351562 11.070312 -7.90625 10.78125 -8.3125 C 10.488281 -8.71875 10.023438 -8.921875 9.390625 -8.921875 L 8.296875 -8.921875 L 6.828125 -1.875 Z M 8.03125 -1.875 "/></g></g></g><g fill="#ffffff" fill-opacity="1"><g transform="translate(267.121159, 92.921777)"><g><path d="M 10.59375 -8.65625 L 18.3125 -8.65625 L 16.578125 0 L 13.0625 0 L 12.5 -1.90625 L 12.375 -1.90625 C 11.863281 -1.3125 11.253906 -0.804688 10.546875 -0.390625 C 9.835938 0.0234375 8.914062 0.234375 7.78125 0.234375 C 6.90625 0.234375 6.066406 0.09375 5.265625 -0.1875 C 4.460938 -0.476562 3.742188 -0.9375 3.109375 -1.5625 C 2.484375 -2.1875 1.984375 -3.003906 1.609375 -4.015625 C 1.234375 -5.035156 1.046875 -6.265625 1.046875 -7.703125 C 1.046875 -9.242188 1.28125 -10.710938 1.75 -12.109375 C 2.226562 -13.503906 2.945312 -14.734375 3.90625 -15.796875 C 4.863281 -16.859375 6.054688 -17.695312 7.484375 -18.3125 C 8.921875 -18.925781 10.59375 -19.234375 12.5 -19.234375 C 13.96875 -19.234375 15.25 -19.0625 16.34375 -18.71875 C 17.4375 -18.382812 18.472656 -18.007812 19.453125 -17.59375 L 18.3125 -11.8125 L 13.28125 -11.8125 C 13.289062 -12.03125 13.316406 -12.285156 13.359375 -12.578125 C 13.398438 -12.878906 13.429688 -13.191406 13.453125 -13.515625 C 13.472656 -13.847656 13.492188 -14.171875 13.515625 -14.484375 C 13.535156 -14.804688 13.546875 -15.085938 13.546875 -15.328125 C 13.546875 -15.484375 13.535156 -15.664062 13.515625 -15.875 C 13.492188 -16.09375 13.441406 -16.300781 13.359375 -16.5 C 13.285156 -16.695312 13.164062 -16.859375 13 -16.984375 C 12.84375 -17.117188 12.613281 -17.1875 12.3125 -17.1875 C 11.800781 -17.1875 11.332031 -16.96875 10.90625 -16.53125 C 10.476562 -16.101562 10.09375 -15.535156 9.75 -14.828125 C 9.414062 -14.128906 9.125 -13.332031 8.875 -12.4375 C 8.625 -11.539062 8.414062 -10.628906 8.25 -9.703125 C 8.082031 -8.785156 7.953125 -7.882812 7.859375 -7 C 7.765625 -6.113281 7.71875 -5.34375 7.71875 -4.6875 C 7.71875 -4.488281 7.726562 -4.238281 7.75 -3.9375 C 7.769531 -3.632812 7.832031 -3.335938 7.9375 -3.046875 C 8.050781 -2.765625 8.210938 -2.519531 8.421875 -2.3125 C 8.628906 -2.101562 8.9375 -2 9.34375 -2 C 10 -2 10.632812 -2.351562 11.25 -3.0625 C 11.863281 -3.78125 12.328125 -4.976562 12.640625 -6.65625 L 10.140625 -6.65625 Z M 10.59375 -8.65625 "/></g></g></g></svg>