<?xml version="1.0" encoding="UTF-8" standalone="no"?>
<svg
   width="312.14066"
   zoomAndPan="magnify"
   viewBox="0 0 234.10549 105.92431"
   height="141.23242"
   preserveAspectRatio="xMidYMid"
   version="1.0"
   id="svg161"
   xmlns="http://www.w3.org/2000/svg"
   xmlns:svg="http://www.w3.org/2000/svg">
  <defs
     id="defs6">
    <clipPath
       id="5b9dc98534">
      <path
         d="m 55,112 h 91.30078 v 3 H 55 Z m 0,0"
         clip-rule="nonzero"
         id="path1" />
    </clipPath>
    <clipPath
       id="c80b85814b">
      <path
         d="M 192.48047,112 H 284 v 3 h -91.51953 z m 0,0"
         clip-rule="nonzero"
         id="path3" />
    </clipPath>
    <clipPath
       id="d255a44231">
      <path
         d="M 93.738281,14 H 225 V 52 H 93.738281 Z m 0,0"
         clip-rule="nonzero"
         id="path5" />
    </clipPath>
    <clipPath
       id="3547ba7e0e">
      <path
         d="M 117,37 H 245.10156 V 55 H 117 Z m 0,0"
         clip-rule="nonzero"
         id="path6" />
    </clipPath>
  </defs>
  <g
     clip-path="url(#5b9dc98534)"
     id="g7"
     transform="translate(-52.496726,-10.353194)">
    <path
       fill="#a1ffc7"
       d="M 55.179688,112.66797 H 257.89844 v 2.27344 z m 0,0"
       fill-opacity="1"
       fill-rule="nonzero"
       id="path7" />
  </g>
  <g
     clip-path="url(#c80b85814b)"
     id="g9"
     transform="translate(-52.496726,-10.353194)">
    <path
       fill="#a1ffc7"
       d="M 283.61328,112.66797 H 80.894531 v 2.27344 z m 0,0"
       fill-opacity="1"
       fill-rule="nonzero"
       id="path9" />
  </g>
  <g
     fill="#ffffff"
     fill-opacity="1"
     id="g13"
     transform="translate(-52.496726,-10.353194)">
    <g
       transform="translate(152.95767,116.16815)"
       id="g12">
      <g
         id="g11">
        <path
           d="m 5.296875,0 h -4.4375 C 0.785156,0 0.722656,-0.0195312 0.671875,-0.0625 0.628906,-0.113281 0.609375,-0.171875 0.609375,-0.234375 V -0.625 c 0,-0.039062 0.007813,-0.082031 0.03125,-0.125 L 4.03125,-4.0625 C 4.25,-4.269531 4.394531,-4.457031 4.46875,-4.625 c 0.082031,-0.175781 0.125,-0.367188 0.125,-0.578125 0,-0.269531 -0.074219,-0.507813 -0.21875,-0.71875 -0.148438,-0.207031 -0.339844,-0.367187 -0.578125,-0.484375 -0.230469,-0.125 -0.492187,-0.1875 -0.78125,-0.1875 h -0.0625 c -0.273437,0 -0.53125,0.070312 -0.78125,0.203125 -0.25,0.125 -0.453125,0.308594 -0.609375,0.546875 -0.054688,0.085938 -0.117188,0.125 -0.1875,0.125 -0.03125,0 -0.058594,-0.00781 -0.078125,-0.03125 l -0.375,-0.3125 c -0.042969,-0.039062 -0.0625,-0.070312 -0.0625,-0.09375 0,-0.039062 0.007813,-0.082031 0.03125,-0.125 0.03125,-0.039062 0.050781,-0.078125 0.0625,-0.109375 0.226563,-0.28125 0.507813,-0.519531 0.84375,-0.71875 0.34375,-0.207031 0.75,-0.3125 1.21875,-0.3125 0.445313,0 0.859375,0.089844 1.234375,0.265625 0.375,0.179688 0.671875,0.433594 0.890625,0.765625 0.21875,0.335937 0.328125,0.726563 0.328125,1.171875 0,0.324219 -0.0625,0.621094 -0.1875,0.890625 -0.125,0.273437 -0.28125,0.5 -0.46875,0.6875 -0.105469,0.105469 -0.257812,0.25 -0.453125,0.4375 C 4.171875,-3.023438 3.957031,-2.820312 3.71875,-2.59375 3.476562,-2.363281 3.238281,-2.128906 3,-1.890625 c -0.242188,0.230469 -0.460938,0.4375 -0.65625,0.625 -0.1875,0.179687 -0.335938,0.320313 -0.4375,0.421875 h 3.390625 c 0.0625,0 0.113281,0.015625 0.15625,0.046875 0.050781,0.03125 0.078125,0.089844 0.078125,0.171875 v 0.390625 c 0,0.054687 -0.027344,0.105469 -0.078125,0.15625 C 5.410156,-0.0234375 5.359375,0 5.296875,0 Z m 0,0"
           id="path11" />
      </g>
    </g>
  </g>
  <g
     fill="#ffffff"
     fill-opacity="1"
     id="g16"
     transform="translate(-52.496726,-10.353194)">
    <g
       transform="translate(161.06781,116.16815)"
       id="g15">
      <g
         id="g14">
        <path
           d="m 4.234375,-7.46875 c 0.519531,0 1.007813,0.101562 1.46875,0.296875 0.457031,0.1875 0.859375,0.460937 1.203125,0.8125 0.351562,0.34375 0.628906,0.746094 0.828125,1.203125 0.195313,0.460938 0.296875,0.953125 0.296875,1.484375 0,0.53125 -0.101562,1.027344 -0.296875,1.484375 C 7.535156,-1.738281 7.257812,-1.34375 6.90625,-1 6.5625,-0.65625 6.160156,-0.382812 5.703125,-0.1875 5.242188,0.0078125 4.75,0.109375 4.21875,0.109375 3.695312,0.109375 3.207031,0.0078125 2.75,-0.1875 2.289062,-0.382812 1.890625,-0.65625 1.546875,-1 1.203125,-1.34375 0.929688,-1.742188 0.734375,-2.203125 0.535156,-2.660156 0.4375,-3.148438 0.4375,-3.671875 c 0,-0.53125 0.097656,-1.023437 0.296875,-1.484375 0.195313,-0.457031 0.46875,-0.859375 0.8125,-1.203125 0.34375,-0.351563 0.742187,-0.625 1.203125,-0.8125 0.46875,-0.195313 0.960938,-0.296875 1.484375,-0.296875 z m -2.9375,3.78125 c 0,0.40625 0.078125,0.792969 0.234375,1.15625 0.15625,0.355469 0.363281,0.667969 0.625,0.9375 0.257812,0.261719 0.566406,0.46875 0.921875,0.625 0.363281,0.148438 0.75,0.21875 1.15625,0.21875 0.40625,0 0.78125,-0.070312 1.125,-0.21875 0.351563,-0.15625 0.664063,-0.363281 0.9375,-0.625 0.269531,-0.269531 0.476563,-0.582031 0.625,-0.9375 0.15625,-0.363281 0.234375,-0.75 0.234375,-1.15625 0,-0.40625 -0.078125,-0.78125 -0.234375,-1.125 -0.148437,-0.351562 -0.355469,-0.664062 -0.625,-0.9375 -0.273437,-0.269531 -0.585937,-0.476562 -0.9375,-0.625 -0.34375,-0.15625 -0.71875,-0.234375 -1.125,-0.234375 -0.40625,0 -0.792969,0.078125 -1.15625,0.234375 -0.355469,0.148438 -0.664063,0.355469 -0.921875,0.625 -0.261719,0.273438 -0.46875,0.585938 -0.625,0.9375 -0.15625,0.34375 -0.234375,0.71875 -0.234375,1.125 z m 0,0"
           id="path13" />
      </g>
    </g>
  </g>
  <g
     fill="#ffffff"
     fill-opacity="1"
     id="g19"
     transform="translate(-52.496726,-10.353194)">
    <g
       transform="translate(171.53324,116.16815)"
       id="g18">
      <g
         id="g17">
        <path
           d="m 5.296875,0 h -4.4375 C 0.785156,0 0.722656,-0.0195312 0.671875,-0.0625 0.628906,-0.113281 0.609375,-0.171875 0.609375,-0.234375 V -0.625 c 0,-0.039062 0.007813,-0.082031 0.03125,-0.125 L 4.03125,-4.0625 C 4.25,-4.269531 4.394531,-4.457031 4.46875,-4.625 c 0.082031,-0.175781 0.125,-0.367188 0.125,-0.578125 0,-0.269531 -0.074219,-0.507813 -0.21875,-0.71875 -0.148438,-0.207031 -0.339844,-0.367187 -0.578125,-0.484375 -0.230469,-0.125 -0.492187,-0.1875 -0.78125,-0.1875 h -0.0625 c -0.273437,0 -0.53125,0.070312 -0.78125,0.203125 -0.25,0.125 -0.453125,0.308594 -0.609375,0.546875 -0.054688,0.085938 -0.117188,0.125 -0.1875,0.125 -0.03125,0 -0.058594,-0.00781 -0.078125,-0.03125 l -0.375,-0.3125 c -0.042969,-0.039062 -0.0625,-0.070312 -0.0625,-0.09375 0,-0.039062 0.007813,-0.082031 0.03125,-0.125 0.03125,-0.039062 0.050781,-0.078125 0.0625,-0.109375 0.226563,-0.28125 0.507813,-0.519531 0.84375,-0.71875 0.34375,-0.207031 0.75,-0.3125 1.21875,-0.3125 0.445313,0 0.859375,0.089844 1.234375,0.265625 0.375,0.179688 0.671875,0.433594 0.890625,0.765625 0.21875,0.335937 0.328125,0.726563 0.328125,1.171875 0,0.324219 -0.0625,0.621094 -0.1875,0.890625 -0.125,0.273437 -0.28125,0.5 -0.46875,0.6875 -0.105469,0.105469 -0.257812,0.25 -0.453125,0.4375 C 4.171875,-3.023438 3.957031,-2.820312 3.71875,-2.59375 3.476562,-2.363281 3.238281,-2.128906 3,-1.890625 c -0.242188,0.230469 -0.460938,0.4375 -0.65625,0.625 -0.1875,0.179687 -0.335938,0.320313 -0.4375,0.421875 h 3.390625 c 0.0625,0 0.113281,0.015625 0.15625,0.046875 0.050781,0.03125 0.078125,0.089844 0.078125,0.171875 v 0.390625 c 0,0.054687 -0.027344,0.105469 -0.078125,0.15625 C 5.410156,-0.0234375 5.359375,0 5.296875,0 Z m 0,0"
           id="path16" />
      </g>
    </g>
  </g>
  <g
     fill="#ffffff"
     fill-opacity="1"
     id="g22"
     transform="translate(-52.496726,-10.353194)">
    <g
       transform="translate(179.64339,116.16815)"
       id="g21">
      <g
         id="g20">
        <path
           d="M 4,-1.265625 H 0.75 c -0.09375,0 -0.164062,-0.019531 -0.203125,-0.0625 C 0.515625,-1.378906 0.5,-1.429688 0.5,-1.484375 c 0,-0.09375 0.019531,-0.175781 0.0625,-0.25 0.039062,-0.082031 0.101562,-0.191406 0.1875,-0.328125 0.53125,-0.820312 1.050781,-1.644531 1.5625,-2.46875 0.507812,-0.832031 1.035156,-1.648438 1.578125,-2.453125 0.09375,-0.132813 0.164063,-0.226563 0.21875,-0.28125 0.050781,-0.0625 0.113281,-0.097656 0.1875,-0.109375 0.070313,-0.00781 0.171875,-0.015625 0.296875,-0.015625 0.1875,0 0.28125,0.109375 0.28125,0.328125 0,0 0,0.015625 0,0.046875 0,0.03125 0,0.125 0,0.28125 0,0.148437 0,0.398437 0,0.75 0,0.34375 -0.00781,0.828125 -0.015625,1.453125 0,0.617188 0,1.417969 0,2.40625 H 5.4375 c 0.175781,0 0.265625,0.089844 0.265625,0.265625 v 0.34375 c 0,0.167969 -0.089844,0.25 -0.265625,0.25 H 4.859375 v 1 C 4.859375,-0.0859375 4.769531,0 4.59375,0 H 4.265625 C 4.085938,0 4,-0.0859375 4,-0.265625 Z M 1.71875,-2.125 H 4 V -5.671875 C 3.613281,-5.085938 3.234375,-4.5 2.859375,-3.90625 2.492188,-3.3125 2.113281,-2.71875 1.71875,-2.125 Z m 0,0"
           id="path19" />
      </g>
    </g>
  </g>
  <path
     fill="#a1ffc7"
     d="M 119.26889,0.00227547 C 96.632184,-0.10319353 77.163434,3.4905565 74.354834,3.8460255 c -4.49218,0.566406 -5.96875,3.65625 -5.96875,3.65625 l -8.70312,19.0859365 c 1.53906,-0.1875 3.51953,-0.429687 5.875,-0.714844 0.52734,-36.214843 91.898426,-22.2265615 94.960926,-20.1874995 -12.94531,-4.226562 -27.66796,-5.62109303 -41.25,-5.68359303 z m 0,0"
     fill-opacity="1"
     fill-rule="nonzero"
     id="path22" />
  <g
     clip-path="url(#d255a44231)"
     id="g23"
     transform="translate(-52.496726,-10.353194)">
    <path
       fill="#a1ffc7"
       d="m 151.46875,15.398438 c 0,0 23.70703,-4.070313 61.21875,2.652343 -0.35156,-0.351562 7.25781,6.019531 11.32422,19.109375 C 223.83594,36.984375 122.98047,28.316406 93.785156,51.140625 94.3125,50.433594 106.34766,37.871094 142.44141,34.683594 178.53906,31.5 221.53516,39.816406 216.40625,27.609375 211.27344,15.398438 183.31641,15.398438 151.46875,15.398438 Z m 0,0"
       fill-opacity="1"
       fill-rule="nonzero"
       id="path23" />
  </g>
  <path
     fill="#a1ffc7"
     d="m 60.218114,26.412431 -3.05078,2.828125 c 0,0 -2.03515,-2.609375 -8.98047,-2.34375 -6.945309,0.265625 -3.140621,-7.429688 0.97266,-7.519531 4.11328,-0.08984 8.09766,-0.796875 7.78516,1.328125 -0.3086,2.121094 -0.35157,4.910156 -0.97266,5.175781 -0.61719,0.265625 0.043,-6.0625 -5.08594,-5.089844 -5.13281,0.976563 -4.113279,3.054688 -2.83203,3.539063 1.28516,0.488281 3.14063,-0.75 4.69141,1.0625 1.54687,1.8125 6.10156,2.789062 7.47265,1.019531 z m 0,0"
     fill-opacity="1"
     fill-rule="nonzero"
     id="path24" />
  <path
     fill="#a1ffc7"
     d="m 171.19858,26.721025 3.05469,2.832031 c 0,0 2.03516,-2.609375 8.98047,-2.34375 6.94531,0.265625 3.14062,-7.433594 -0.97656,-7.519531 -4.11329,-0.08984 -8.09375,-0.796875 -7.78516,1.328125 0.3125,2.121094 0.35547,4.910156 0.97656,5.171875 0.61719,0.265625 -0.0469,-6.058594 5.08594,-5.085938 5.13281,0.972657 4.11328,3.054688 2.83203,3.539063 -1.28516,0.488281 -3.14453,-0.75 -4.69141,1.0625 -1.54687,1.8125 -6.10546,2.785156 -7.47656,1.015625 z m 0,0"
     fill-opacity="1"
     fill-rule="nonzero"
     id="path25" />
  <g
     clip-path="url(#3547ba7e0e)"
     id="g26"
     transform="translate(-52.496726,-10.353194)">
    <path
       fill="#a1ffc7"
       d="m 173.89844,37.515625 c -17.1875,0.05859 -35.98828,1.941406 -56.73438,8.230469 l 0.0312,-0.0078 c 31.90625,-7.640625 68.78125,-7.484375 95.25391,-5.570312 -0.0859,0.0078 -0.125,0.0039 -0.21485,0.0078 -3.55078,0.183594 -5.69921,0.707031 -10.42187,1.128907 -4.71875,0.421874 -9.46484,0.957031 -13.11719,1.617187 -1.82812,0.328125 -3.3789,0.6875 -4.52734,1.078125 -0.57422,0.195312 -1.04688,0.402344 -1.41016,0.625 -0.36328,0.222656 -0.6289,0.460938 -0.73828,0.773438 -0.11328,0.320312 0.0312,0.664062 0.29688,0.914062 33.55859,20.605469 56.44531,-18.472656 61.96484,8.03125 0.25781,-0.01563 0.51562,-0.03516 0.76172,-0.03906 -1.125,-7.953126 -5.22266,-9.914063 -6.82813,-12.589844 -0.5,-0.835938 -1.16406,-1.226563 -1.84765,-1.289063 -0.67578,-0.05859 -1.35157,0.1875 -1.94532,0.511719 -4.39062,3.292969 -9.73828,5.351562 -14.85546,6.316406 -5.32422,0.960938 -11.34766,1.351563 -16.97657,1.347656 -27.0625,-4.875 4.79297,-7.042968 18.3711,-8.359374 -14.29688,-1.015626 -29.875,-2.785157 -47.0625,-2.726563 z m 0,0"
       fill-opacity="1"
       fill-rule="nonzero"
       id="path26" />
  </g>
  <g
     fill="#ffffff"
     fill-opacity="0.302"
     id="g29"
     transform="translate(-52.496726,-10.353194)">
    <g
       transform="translate(52.524661,92.990918)"
       id="g28">
      <g
         id="g27">
        <path
           d="m 0,0 4.03125,-18.9375 h 8.015625 c 1.238281,0 2.316406,0.125 3.234375,0.375 0.925781,0.25 1.691406,0.664062 2.296875,1.234375 0.613281,0.574219 1.070313,1.328125 1.375,2.265625 0.3125,0.9375 0.46875,2.078125 0.46875,3.421875 0,1.460937 -0.1875,2.886719 -0.5625,4.28125 -0.367187,1.386719 -0.976563,2.625 -1.828125,3.71875 C 16.175781,-2.546875 15.054688,-1.664062 13.671875,-1 12.296875,-0.332031 10.59375,0 8.5625,0 Z m 8.171875,-2.09375 c 0.65625,0 1.234375,-0.269531 1.734375,-0.8125 0.507812,-0.550781 0.945312,-1.25 1.3125,-2.09375 0.375,-0.84375 0.6875,-1.773438 0.9375,-2.796875 0.25,-1.03125 0.445312,-2.019531 0.59375,-2.96875 0.144531,-0.957031 0.253906,-1.8125 0.328125,-2.5625 0.07031,-0.757813 0.109375,-1.296875 0.109375,-1.609375 0,-0.625 -0.125,-1.109375 -0.375,-1.453125 -0.25,-0.34375 -0.683594,-0.515625 -1.296875,-0.515625 h -1.4375 l -3.1875,14.8125 z m 0,0"
           id="path27" />
      </g>
    </g>
  </g>
  <g
     fill="#ffffff"
     fill-opacity="0.302"
     id="g32"
     transform="translate(-52.496726,-10.353194)">
    <g
       transform="translate(71.523524,92.990918)"
       id="g31">
      <g
         id="g30">
        <path
           d="m 9.578125,-8.171875 c 0.59375,0 1.09375,-0.25 1.5,-0.75 0.40625,-0.5 0.742187,-1.101563 1.015625,-1.8125 0.269531,-0.71875 0.460938,-1.460937 0.578125,-2.234375 0.125,-0.78125 0.1875,-1.457031 0.1875,-2.03125 0,-0.539062 -0.09375,-0.992188 -0.28125,-1.359375 -0.179687,-0.363281 -0.5625,-0.546875 -1.15625,-0.546875 h -1.34375 l -1.875,8.734375 z M 7.78125,-6.265625 6.4375,0 H 0 l 4.03125,-18.9375 h 6.890625 c 1.132813,0 2.164063,0.0625 3.09375,0.1875 0.9375,0.117188 1.742187,0.351562 2.421875,0.703125 0.675781,0.355469 1.203125,0.867187 1.578125,1.53125 0.375,0.667969 0.5625,1.558594 0.5625,2.671875 0,1.03125 -0.167969,2.011719 -0.5,2.9375 -0.324219,0.929688 -0.851563,1.734375 -1.578125,2.421875 -0.71875,0.6875 -1.65625,1.230469 -2.8125,1.625 -1.148438,0.398437 -2.546875,0.59375 -4.203125,0.59375 z m 0,0"
           id="path29" />
      </g>
    </g>
  </g>
  <g
     fill="#ffffff"
     fill-opacity="0.302"
     id="g35"
     transform="translate(-52.496726,-10.353194)">
    <g
       transform="translate(88.673203,92.990918)"
       id="g34">
      <g
         id="g33">
        <path
           d="m 4.03125,-18.9375 h 12.546875 l -0.46875,2.265625 H 10 L 8.828125,-11.21875 H 13.9375 l -0.484375,2.296875 H 8.359375 L 6.4375,0 H 0 Z m 0,0"
           id="path32" />
      </g>
    </g>
  </g>
  <g
     fill="#ffffff"
     fill-opacity="0.302"
     id="g38"
     transform="translate(-52.496726,-10.353194)">
    <g
       transform="translate(102.57189,92.990918)"
       id="g37">
      <g
         id="g36">
        <path
           d="m 1.484375,-7.640625 h 9.40625 l -0.59375,2.71875 h -9.4375 z m 0,0"
           id="path35" />
      </g>
    </g>
  </g>
  <g
     fill="#ffffff"
     fill-opacity="0.302"
     id="g41"
     transform="translate(-52.496726,-10.353194)">
    <g
       transform="translate(114.20385,92.990918)"
       id="g40">
      <g
         id="g39">
        <path
           d="m 16.828125,-1.609375 c -0.5,0.242187 -1.015625,0.476563 -1.546875,0.703125 -0.523438,0.230469 -1.085938,0.429688 -1.6875,0.59375 -0.59375,0.167969 -1.246094,0.296875 -1.953125,0.390625 -0.699219,0.101563 -1.464844,0.15625 -2.296875,0.15625 -2.667969,0 -4.726562,-0.59375 -6.171875,-1.78125 -1.4375,-1.195313 -2.15625,-3.1875 -2.15625,-5.96875 0,-1.613281 0.242187,-3.128906 0.734375,-4.546875 0.5,-1.425781 1.234375,-2.671875 2.203125,-3.734375 0.976563,-1.0625 2.179687,-1.898437 3.609375,-2.515625 1.4375,-0.613281 3.082031,-0.921875 4.9375,-0.921875 0.875,0 1.671875,0.0625 2.390625,0.1875 0.726563,0.117187 1.382813,0.265625 1.96875,0.453125 0.59375,0.1875 1.125,0.390625 1.59375,0.609375 0.46875,0.21875 0.890625,0.429687 1.265625,0.625 L 18.640625,-11.8125 H 13.28125 c 0.0078,-0.195312 0.03125,-0.453125 0.0625,-0.765625 0.03125,-0.320313 0.05469,-0.644531 0.07813,-0.96875 0.01953,-0.332031 0.03906,-0.65625 0.0625,-0.96875 0.01953,-0.320313 0.03125,-0.59375 0.03125,-0.8125 0,-0.15625 -0.01172,-0.335937 -0.03125,-0.546875 -0.02344,-0.21875 -0.07422,-0.425781 -0.15625,-0.625 -0.07422,-0.195312 -0.199219,-0.359375 -0.375,-0.484375 -0.167969,-0.132813 -0.386719,-0.203125 -0.65625,-0.203125 -0.523437,0 -0.996094,0.21875 -1.421875,0.65625 -0.429688,0.429688 -0.8125,0.996094 -1.15625,1.703125 -0.335938,0.699219 -0.632812,1.496094 -0.890625,2.390625 -0.261719,0.898438 -0.476563,1.808594 -0.640625,2.734375 -0.167969,0.917969 -0.296875,1.824219 -0.390625,2.71875 -0.085937,0.898437 -0.125,1.683594 -0.125,2.359375 0,0.199219 0.00391,0.449219 0.015625,0.75 0.019531,0.292969 0.082031,0.578125 0.1875,0.859375 0.101562,0.28125 0.257812,0.523437 0.46875,0.71875 C 8.550781,-2.097656 8.832031,-2 9.1875,-2 9.800781,-2 10.394531,-2.378906 10.96875,-3.140625 11.550781,-3.910156 12.0625,-5.28125 12.5,-7.25 h 5.515625 z m 0,0"
           id="path38" />
      </g>
    </g>
  </g>
  <g
     fill="#ffffff"
     fill-opacity="0.302"
     id="g44"
     transform="translate(-52.496726,-10.353194)">
    <g
       transform="translate(132.51672,92.990918)"
       id="g43">
      <g
         id="g42">
        <path
           d="M 4.03125,-18.9375 H 10.5 L 6.984375,-2.5 h 6.046875 l -0.5,2.5 H 0 Z m 0,0"
           id="path41" />
      </g>
    </g>
  </g>
  <g
     fill="#ffffff"
     fill-opacity="0.302"
     id="g47"
     transform="translate(-52.496726,-10.353194)">
    <g
       transform="translate(146.14698,92.990918)"
       id="g46">
      <g
         id="g45">
        <path
           d="m 4.03125,-18.9375 h 12.546875 l -0.46875,2.265625 h -6.09375 l -1.25,5.75 H 13.875 L 13.390625,-8.6875 h -5.09375 l -1.375,6.390625 H 13 L 12.5625,0 H 0 Z m 0,0"
           id="path44" />
      </g>
    </g>
  </g>
  <g
     fill="#ffffff"
     fill-opacity="0.302"
     id="g50"
     transform="translate(-52.496726,-10.353194)">
    <g
       transform="translate(160.40357,92.990918)"
       id="g49">
      <g
         id="g48">
        <path
           d="M 16.53125,0 H 9.546875 L 9.125,-4.75 H 3.609375 L 1.484375,0 H -1.40625 L 7.390625,-18.9375 H 14.46875 Z M 4.59375,-6.921875 h 4.328125 l -0.6875,-8.109375 z m 0,0"
           id="path47" />
      </g>
    </g>
  </g>
  <g
     fill="#ffffff"
     fill-opacity="0.302"
     id="g53"
     transform="translate(-52.496726,-10.353194)">
    <g
       transform="translate(177.6129,92.990918)"
       id="g52">
      <g
         id="g51">
        <path
           d="M 15.890625,0 H 8.921875 L 5.609375,-13.6875 2.6875,0 H 0 l 4.03125,-18.9375 h 7.125 l 3.125,13.859375 2.953125,-13.859375 h 2.75 z m 0,0"
           id="path50" />
      </g>
    </g>
  </g>
  <g
     fill="#ffffff"
     fill-opacity="0.302"
     id="g56"
     transform="translate(-52.496726,-10.353194)">
    <g
       transform="translate(196.07489,92.990918)"
       id="g55">
      <g
         id="g54">
        <path
           d="M 6.4375,0 H 0 L 4.03125,-18.9375 H 10.5 Z m 0,0"
           id="path53" />
      </g>
    </g>
  </g>
  <g
     fill="#ffffff"
     fill-opacity="0.302"
     id="g59"
     transform="translate(-52.496726,-10.353194)">
    <g
       transform="translate(205.05237,92.990918)"
       id="g58">
      <g
         id="g57">
        <path
           d="M 15.890625,0 H 8.921875 L 5.609375,-13.6875 2.6875,0 H 0 l 4.03125,-18.9375 h 7.125 l 3.125,13.859375 2.953125,-13.859375 h 2.75 z m 0,0"
           id="path56" />
      </g>
    </g>
  </g>
  <g
     fill="#ffffff"
     fill-opacity="0.302"
     id="g62"
     transform="translate(-52.496726,-10.353194)">
    <g
       transform="translate(223.51437,92.990918)"
       id="g61">
      <g
         id="g60">
        <path
           d="M 10.59375,-8.65625 H 18.3125 L 16.578125,0 H 13.0625 L 12.5,-1.90625 h -0.125 c -0.511719,0.59375 -1.121094,1.101562 -1.828125,1.515625 -0.710937,0.4140625 -1.632813,0.625 -2.765625,0.625 -0.875,0 -1.714844,-0.140625 -2.515625,-0.421875 -0.804687,-0.289062 -1.523437,-0.75 -2.15625,-1.375 -0.625,-0.625 -1.125,-1.441406 -1.5,-2.453125 -0.375,-1.019531 -0.5625,-2.25 -0.5625,-3.6875 0,-1.539063 0.234375,-3.007813 0.703125,-4.40625 0.476562,-1.394531 1.195312,-2.625 2.15625,-3.6875 0.957031,-1.0625 2.148438,-1.898437 3.578125,-2.515625 1.4375,-0.613281 3.109375,-0.921875 5.015625,-0.921875 1.46875,0 2.75,0.171875 3.84375,0.515625 1.09375,0.335938 2.128906,0.710938 3.109375,1.125 L 18.3125,-11.8125 h -5.03125 c 0.0078,-0.21875 0.03516,-0.472656 0.07813,-0.765625 0.03906,-0.300781 0.07031,-0.613281 0.09375,-0.9375 0.01953,-0.332031 0.03906,-0.65625 0.0625,-0.96875 0.01953,-0.320313 0.03125,-0.601563 0.03125,-0.84375 0,-0.15625 -0.01172,-0.335937 -0.03125,-0.546875 -0.02344,-0.21875 -0.07422,-0.425781 -0.15625,-0.625 -0.07422,-0.195312 -0.195313,-0.359375 -0.359375,-0.484375 -0.15625,-0.132813 -0.386719,-0.203125 -0.6875,-0.203125 -0.511719,0 -0.980469,0.21875 -1.40625,0.65625 -0.429688,0.429688 -0.8125,0.996094 -1.15625,1.703125 -0.335938,0.699219 -0.625,1.496094 -0.875,2.390625 -0.25,0.898438 -0.460938,1.808594 -0.625,2.734375 C 8.082031,-8.785156 7.953125,-7.882812 7.859375,-7 7.765625,-6.113281 7.71875,-5.34375 7.71875,-4.6875 c 0,0.199219 0.00781,0.449219 0.03125,0.75 0.019531,0.304688 0.082031,0.601562 0.1875,0.890625 0.113281,0.28125 0.273438,0.527344 0.484375,0.734375 C 8.628906,-2.101562 8.9375,-2 9.34375,-2 10,-2 10.632812,-2.351562 11.25,-3.0625 c 0.613281,-0.71875 1.078125,-1.914062 1.390625,-3.59375 h -2.5 z m 0,0"
           id="path59" />
      </g>
    </g>
  </g>
  <g
     fill="#ffffff"
     fill-opacity="0.302"
     id="g65"
     transform="translate(-52.496726,-10.353194)">
    <g
       transform="translate(241.91672,92.990918)"
       id="g64">
      <g
         id="g63">
        <path
           d="m 6.0625,-2.625 c 0,0.460938 -0.101562,0.871094 -0.296875,1.234375 -0.1875,0.355469 -0.4375,0.652344 -0.75,0.890625 C 4.710938,-0.269531 4.363281,-0.09375 3.96875,0.03125 3.570312,0.164062 3.15625,0.234375 2.71875,0.234375 1.957031,0.234375 1.3125,0.03125 0.78125,-0.375 0.257812,-0.78125 0,-1.421875 0,-2.296875 0,-2.753906 0.0859375,-3.160156 0.265625,-3.515625 0.441406,-3.878906 0.679688,-4.175781 0.984375,-4.40625 1.285156,-4.644531 1.628906,-4.828125 2.015625,-4.953125 2.398438,-5.085938 2.800781,-5.15625 3.21875,-5.15625 c 0.8125,0 1.488281,0.203125 2.03125,0.609375 C 5.789062,-4.140625 6.0625,-3.5 6.0625,-2.625 Z m 0,0"
           id="path62" />
      </g>
    </g>
  </g>
  <g
     fill="#ffffff"
     fill-opacity="0.302"
     id="g68"
     transform="translate(-52.496726,-10.353194)">
    <g
       transform="translate(249.34326,92.990918)"
       id="g67">
      <g
         id="g66">
        <path
           d="m 18.28125,-14.609375 c 0,0.574219 -0.08594,1.089844 -0.25,1.546875 -0.167969,0.460938 -0.402344,0.867188 -0.703125,1.21875 -0.304687,0.355469 -0.652344,0.671875 -1.046875,0.953125 -0.398438,0.28125 -0.835938,0.542969 -1.3125,0.78125 0.21875,0.07422 0.476562,0.199219 0.78125,0.375 0.300781,0.167969 0.585938,0.402344 0.859375,0.703125 0.28125,0.292969 0.515625,0.671875 0.703125,1.140625 0.1875,0.46875 0.28125,1.042969 0.28125,1.71875 0,0.898437 -0.1875,1.726563 -0.5625,2.484375 -0.375,0.75 -0.9375,1.402344 -1.6875,1.953125 -0.742188,0.542969 -1.652344,0.96875 -2.734375,1.28125 C 11.523438,-0.148438 10.273438,0 8.859375,0 H 0 L 4.03125,-18.9375 H 11.875 c 0.769531,0 1.535156,0.05859 2.296875,0.171875 0.769531,0.105469 1.457031,0.320313 2.0625,0.640625 0.613281,0.3125 1.109375,0.757812 1.484375,1.328125 0.375,0.5625 0.5625,1.292969 0.5625,2.1875 z M 10.171875,-11 c 0.4375,0 0.804687,-0.128906 1.109375,-0.390625 0.3125,-0.257813 0.566406,-0.582031 0.765625,-0.96875 0.195313,-0.394531 0.34375,-0.8125 0.4375,-1.25 0.101563,-0.445313 0.15625,-0.851563 0.15625,-1.21875 0,-0.570313 -0.136719,-1.0625 -0.40625,-1.46875 -0.261719,-0.40625 -0.679687,-0.609375 -1.25,-0.609375 h -0.90625 L 8.796875,-11 Z M 8.03125,-1.875 c 0.59375,0 1.085938,-0.164062 1.484375,-0.5 0.394531,-0.34375 0.722656,-0.765625 0.984375,-1.265625 0.257812,-0.5 0.441406,-1.019531 0.546875,-1.5625 0.113281,-0.550781 0.171875,-1.035156 0.171875,-1.453125 0,-0.695312 -0.148438,-1.25 -0.4375,-1.65625 -0.292969,-0.40625 -0.757812,-0.609375 -1.390625,-0.609375 H 8.296875 L 6.828125,-1.875 Z m 0,0"
           id="path65" />
      </g>
    </g>
  </g>
  <g
     fill="#ffffff"
     fill-opacity="0.302"
     id="g71"
     transform="translate(-52.496726,-10.353194)">
    <g
       transform="translate(267.14909,92.990918)"
       id="g70">
      <g
         id="g69">
        <path
           d="M 10.59375,-8.65625 H 18.3125 L 16.578125,0 H 13.0625 L 12.5,-1.90625 h -0.125 c -0.511719,0.59375 -1.121094,1.101562 -1.828125,1.515625 -0.710937,0.4140625 -1.632813,0.625 -2.765625,0.625 -0.875,0 -1.714844,-0.140625 -2.515625,-0.421875 -0.804687,-0.289062 -1.523437,-0.75 -2.15625,-1.375 -0.625,-0.625 -1.125,-1.441406 -1.5,-2.453125 -0.375,-1.019531 -0.5625,-2.25 -0.5625,-3.6875 0,-1.539063 0.234375,-3.007813 0.703125,-4.40625 0.476562,-1.394531 1.195312,-2.625 2.15625,-3.6875 0.957031,-1.0625 2.148438,-1.898437 3.578125,-2.515625 1.4375,-0.613281 3.109375,-0.921875 5.015625,-0.921875 1.46875,0 2.75,0.171875 3.84375,0.515625 1.09375,0.335938 2.128906,0.710938 3.109375,1.125 L 18.3125,-11.8125 h -5.03125 c 0.0078,-0.21875 0.03516,-0.472656 0.07813,-0.765625 0.03906,-0.300781 0.07031,-0.613281 0.09375,-0.9375 0.01953,-0.332031 0.03906,-0.65625 0.0625,-0.96875 0.01953,-0.320313 0.03125,-0.601563 0.03125,-0.84375 0,-0.15625 -0.01172,-0.335937 -0.03125,-0.546875 -0.02344,-0.21875 -0.07422,-0.425781 -0.15625,-0.625 -0.07422,-0.195312 -0.195313,-0.359375 -0.359375,-0.484375 -0.15625,-0.132813 -0.386719,-0.203125 -0.6875,-0.203125 -0.511719,0 -0.980469,0.21875 -1.40625,0.65625 -0.429688,0.429688 -0.8125,0.996094 -1.15625,1.703125 -0.335938,0.699219 -0.625,1.496094 -0.875,2.390625 -0.25,0.898438 -0.460938,1.808594 -0.625,2.734375 C 8.082031,-8.785156 7.953125,-7.882812 7.859375,-7 7.765625,-6.113281 7.71875,-5.34375 7.71875,-4.6875 c 0,0.199219 0.00781,0.449219 0.03125,0.75 0.019531,0.304688 0.082031,0.601562 0.1875,0.890625 0.113281,0.28125 0.273438,0.527344 0.484375,0.734375 C 8.628906,-2.101562 8.9375,-2 9.34375,-2 10,-2 10.632812,-2.351562 11.25,-3.0625 c 0.613281,-0.71875 1.078125,-1.914062 1.390625,-3.59375 h -2.5 z m 0,0"
           id="path68" />
      </g>
    </g>
  </g>
  <g
     fill="#ffffff"
     fill-opacity="0.502"
     id="g74"
     transform="translate(-52.496726,-10.353194)">
    <g
       transform="translate(52.510695,92.956344)"
       id="g73">
      <g
         id="g72">
        <path
           d="m 0,0 4.03125,-18.9375 h 8.015625 c 1.238281,0 2.316406,0.125 3.234375,0.375 0.925781,0.25 1.691406,0.664062 2.296875,1.234375 0.613281,0.574219 1.070313,1.328125 1.375,2.265625 0.3125,0.9375 0.46875,2.078125 0.46875,3.421875 0,1.460937 -0.1875,2.886719 -0.5625,4.28125 -0.367187,1.386719 -0.976563,2.625 -1.828125,3.71875 C 16.175781,-2.546875 15.054688,-1.664062 13.671875,-1 12.296875,-0.332031 10.59375,0 8.5625,0 Z m 8.171875,-2.09375 c 0.65625,0 1.234375,-0.269531 1.734375,-0.8125 0.507812,-0.550781 0.945312,-1.25 1.3125,-2.09375 0.375,-0.84375 0.6875,-1.773438 0.9375,-2.796875 0.25,-1.03125 0.445312,-2.019531 0.59375,-2.96875 0.144531,-0.957031 0.253906,-1.8125 0.328125,-2.5625 0.07031,-0.757813 0.109375,-1.296875 0.109375,-1.609375 0,-0.625 -0.125,-1.109375 -0.375,-1.453125 -0.25,-0.34375 -0.683594,-0.515625 -1.296875,-0.515625 h -1.4375 l -3.1875,14.8125 z m 0,0"
           id="path71" />
      </g>
    </g>
  </g>
  <g
     fill="#ffffff"
     fill-opacity="0.502"
     id="g77"
     transform="translate(-52.496726,-10.353194)">
    <g
       transform="translate(71.509557,92.956344)"
       id="g76">
      <g
         id="g75">
        <path
           d="m 9.578125,-8.171875 c 0.59375,0 1.09375,-0.25 1.5,-0.75 0.40625,-0.5 0.742187,-1.101563 1.015625,-1.8125 0.269531,-0.71875 0.460938,-1.460937 0.578125,-2.234375 0.125,-0.78125 0.1875,-1.457031 0.1875,-2.03125 0,-0.539062 -0.09375,-0.992188 -0.28125,-1.359375 -0.179687,-0.363281 -0.5625,-0.546875 -1.15625,-0.546875 h -1.34375 l -1.875,8.734375 z M 7.78125,-6.265625 6.4375,0 H 0 l 4.03125,-18.9375 h 6.890625 c 1.132813,0 2.164063,0.0625 3.09375,0.1875 0.9375,0.117188 1.742187,0.351562 2.421875,0.703125 0.675781,0.355469 1.203125,0.867187 1.578125,1.53125 0.375,0.667969 0.5625,1.558594 0.5625,2.671875 0,1.03125 -0.167969,2.011719 -0.5,2.9375 -0.324219,0.929688 -0.851563,1.734375 -1.578125,2.421875 -0.71875,0.6875 -1.65625,1.230469 -2.8125,1.625 -1.148438,0.398437 -2.546875,0.59375 -4.203125,0.59375 z m 0,0"
           id="path74" />
      </g>
    </g>
  </g>
  <g
     fill="#ffffff"
     fill-opacity="0.502"
     id="g80"
     transform="translate(-52.496726,-10.353194)">
    <g
       transform="translate(88.659236,92.956344)"
       id="g79">
      <g
         id="g78">
        <path
           d="m 4.03125,-18.9375 h 12.546875 l -0.46875,2.265625 H 10 L 8.828125,-11.21875 H 13.9375 l -0.484375,2.296875 H 8.359375 L 6.4375,0 H 0 Z m 0,0"
           id="path77" />
      </g>
    </g>
  </g>
  <g
     fill="#ffffff"
     fill-opacity="0.502"
     id="g83"
     transform="translate(-52.496726,-10.353194)">
    <g
       transform="translate(102.55793,92.956344)"
       id="g82">
      <g
         id="g81">
        <path
           d="m 1.484375,-7.640625 h 9.40625 l -0.59375,2.71875 h -9.4375 z m 0,0"
           id="path80" />
      </g>
    </g>
  </g>
  <g
     fill="#ffffff"
     fill-opacity="0.502"
     id="g86"
     transform="translate(-52.496726,-10.353194)">
    <g
       transform="translate(114.18988,92.956344)"
       id="g85">
      <g
         id="g84">
        <path
           d="m 16.828125,-1.609375 c -0.5,0.242187 -1.015625,0.476563 -1.546875,0.703125 -0.523438,0.230469 -1.085938,0.429688 -1.6875,0.59375 -0.59375,0.167969 -1.246094,0.296875 -1.953125,0.390625 -0.699219,0.101563 -1.464844,0.15625 -2.296875,0.15625 -2.667969,0 -4.726562,-0.59375 -6.171875,-1.78125 -1.4375,-1.195313 -2.15625,-3.1875 -2.15625,-5.96875 0,-1.613281 0.242187,-3.128906 0.734375,-4.546875 0.5,-1.425781 1.234375,-2.671875 2.203125,-3.734375 0.976563,-1.0625 2.179687,-1.898437 3.609375,-2.515625 1.4375,-0.613281 3.082031,-0.921875 4.9375,-0.921875 0.875,0 1.671875,0.0625 2.390625,0.1875 0.726563,0.117187 1.382813,0.265625 1.96875,0.453125 0.59375,0.1875 1.125,0.390625 1.59375,0.609375 0.46875,0.21875 0.890625,0.429687 1.265625,0.625 L 18.640625,-11.8125 H 13.28125 c 0.0078,-0.195312 0.03125,-0.453125 0.0625,-0.765625 0.03125,-0.320313 0.05469,-0.644531 0.07813,-0.96875 0.01953,-0.332031 0.03906,-0.65625 0.0625,-0.96875 0.01953,-0.320313 0.03125,-0.59375 0.03125,-0.8125 0,-0.15625 -0.01172,-0.335937 -0.03125,-0.546875 -0.02344,-0.21875 -0.07422,-0.425781 -0.15625,-0.625 -0.07422,-0.195312 -0.199219,-0.359375 -0.375,-0.484375 -0.167969,-0.132813 -0.386719,-0.203125 -0.65625,-0.203125 -0.523437,0 -0.996094,0.21875 -1.421875,0.65625 -0.429688,0.429688 -0.8125,0.996094 -1.15625,1.703125 -0.335938,0.699219 -0.632812,1.496094 -0.890625,2.390625 -0.261719,0.898438 -0.476563,1.808594 -0.640625,2.734375 -0.167969,0.917969 -0.296875,1.824219 -0.390625,2.71875 -0.085937,0.898437 -0.125,1.683594 -0.125,2.359375 0,0.199219 0.00391,0.449219 0.015625,0.75 0.019531,0.292969 0.082031,0.578125 0.1875,0.859375 0.101562,0.28125 0.257812,0.523437 0.46875,0.71875 C 8.550781,-2.097656 8.832031,-2 9.1875,-2 9.800781,-2 10.394531,-2.378906 10.96875,-3.140625 11.550781,-3.910156 12.0625,-5.28125 12.5,-7.25 h 5.515625 z m 0,0"
           id="path83" />
      </g>
    </g>
  </g>
  <g
     fill="#ffffff"
     fill-opacity="0.502"
     id="g89"
     transform="translate(-52.496726,-10.353194)">
    <g
       transform="translate(132.50275,92.956344)"
       id="g88">
      <g
         id="g87">
        <path
           d="M 4.03125,-18.9375 H 10.5 L 6.984375,-2.5 h 6.046875 l -0.5,2.5 H 0 Z m 0,0"
           id="path86" />
      </g>
    </g>
  </g>
  <g
     fill="#ffffff"
     fill-opacity="0.502"
     id="g92"
     transform="translate(-52.496726,-10.353194)">
    <g
       transform="translate(146.13301,92.956344)"
       id="g91">
      <g
         id="g90">
        <path
           d="m 4.03125,-18.9375 h 12.546875 l -0.46875,2.265625 h -6.09375 l -1.25,5.75 H 13.875 L 13.390625,-8.6875 h -5.09375 l -1.375,6.390625 H 13 L 12.5625,0 H 0 Z m 0,0"
           id="path89" />
      </g>
    </g>
  </g>
  <g
     fill="#ffffff"
     fill-opacity="0.502"
     id="g95"
     transform="translate(-52.496726,-10.353194)">
    <g
       transform="translate(160.3896,92.956344)"
       id="g94">
      <g
         id="g93">
        <path
           d="M 16.53125,0 H 9.546875 L 9.125,-4.75 H 3.609375 L 1.484375,0 H -1.40625 L 7.390625,-18.9375 H 14.46875 Z M 4.59375,-6.921875 h 4.328125 l -0.6875,-8.109375 z m 0,0"
           id="path92" />
      </g>
    </g>
  </g>
  <g
     fill="#ffffff"
     fill-opacity="0.502"
     id="g98"
     transform="translate(-52.496726,-10.353194)">
    <g
       transform="translate(177.59893,92.956344)"
       id="g97">
      <g
         id="g96">
        <path
           d="M 15.890625,0 H 8.921875 L 5.609375,-13.6875 2.6875,0 H 0 l 4.03125,-18.9375 h 7.125 l 3.125,13.859375 2.953125,-13.859375 h 2.75 z m 0,0"
           id="path95" />
      </g>
    </g>
  </g>
  <g
     fill="#ffffff"
     fill-opacity="0.502"
     id="g101"
     transform="translate(-52.496726,-10.353194)">
    <g
       transform="translate(196.06092,92.956344)"
       id="g100">
      <g
         id="g99">
        <path
           d="M 6.4375,0 H 0 L 4.03125,-18.9375 H 10.5 Z m 0,0"
           id="path98" />
      </g>
    </g>
  </g>
  <g
     fill="#ffffff"
     fill-opacity="0.502"
     id="g104"
     transform="translate(-52.496726,-10.353194)">
    <g
       transform="translate(205.03841,92.956344)"
       id="g103">
      <g
         id="g102">
        <path
           d="M 15.890625,0 H 8.921875 L 5.609375,-13.6875 2.6875,0 H 0 l 4.03125,-18.9375 h 7.125 l 3.125,13.859375 2.953125,-13.859375 h 2.75 z m 0,0"
           id="path101" />
      </g>
    </g>
  </g>
  <g
     fill="#ffffff"
     fill-opacity="0.502"
     id="g107"
     transform="translate(-52.496726,-10.353194)">
    <g
       transform="translate(223.5004,92.956344)"
       id="g106">
      <g
         id="g105">
        <path
           d="M 10.59375,-8.65625 H 18.3125 L 16.578125,0 H 13.0625 L 12.5,-1.90625 h -0.125 c -0.511719,0.59375 -1.121094,1.101562 -1.828125,1.515625 -0.710937,0.4140625 -1.632813,0.625 -2.765625,0.625 -0.875,0 -1.714844,-0.140625 -2.515625,-0.421875 -0.804687,-0.289062 -1.523437,-0.75 -2.15625,-1.375 -0.625,-0.625 -1.125,-1.441406 -1.5,-2.453125 -0.375,-1.019531 -0.5625,-2.25 -0.5625,-3.6875 0,-1.539063 0.234375,-3.007813 0.703125,-4.40625 0.476562,-1.394531 1.195312,-2.625 2.15625,-3.6875 0.957031,-1.0625 2.148438,-1.898437 3.578125,-2.515625 1.4375,-0.613281 3.109375,-0.921875 5.015625,-0.921875 1.46875,0 2.75,0.171875 3.84375,0.515625 1.09375,0.335938 2.128906,0.710938 3.109375,1.125 L 18.3125,-11.8125 h -5.03125 c 0.0078,-0.21875 0.03516,-0.472656 0.07813,-0.765625 0.03906,-0.300781 0.07031,-0.613281 0.09375,-0.9375 0.01953,-0.332031 0.03906,-0.65625 0.0625,-0.96875 0.01953,-0.320313 0.03125,-0.601563 0.03125,-0.84375 0,-0.15625 -0.01172,-0.335937 -0.03125,-0.546875 -0.02344,-0.21875 -0.07422,-0.425781 -0.15625,-0.625 -0.07422,-0.195312 -0.195313,-0.359375 -0.359375,-0.484375 -0.15625,-0.132813 -0.386719,-0.203125 -0.6875,-0.203125 -0.511719,0 -0.980469,0.21875 -1.40625,0.65625 -0.429688,0.429688 -0.8125,0.996094 -1.15625,1.703125 -0.335938,0.699219 -0.625,1.496094 -0.875,2.390625 -0.25,0.898438 -0.460938,1.808594 -0.625,2.734375 C 8.082031,-8.785156 7.953125,-7.882812 7.859375,-7 7.765625,-6.113281 7.71875,-5.34375 7.71875,-4.6875 c 0,0.199219 0.00781,0.449219 0.03125,0.75 0.019531,0.304688 0.082031,0.601562 0.1875,0.890625 0.113281,0.28125 0.273438,0.527344 0.484375,0.734375 C 8.628906,-2.101562 8.9375,-2 9.34375,-2 10,-2 10.632812,-2.351562 11.25,-3.0625 c 0.613281,-0.71875 1.078125,-1.914062 1.390625,-3.59375 h -2.5 z m 0,0"
           id="path104" />
      </g>
    </g>
  </g>
  <g
     fill="#ffffff"
     fill-opacity="0.502"
     id="g110"
     transform="translate(-52.496726,-10.353194)">
    <g
       transform="translate(241.90276,92.956344)"
       id="g109">
      <g
         id="g108">
        <path
           d="m 6.0625,-2.625 c 0,0.460938 -0.101562,0.871094 -0.296875,1.234375 -0.1875,0.355469 -0.4375,0.652344 -0.75,0.890625 C 4.710938,-0.269531 4.363281,-0.09375 3.96875,0.03125 3.570312,0.164062 3.15625,0.234375 2.71875,0.234375 1.957031,0.234375 1.3125,0.03125 0.78125,-0.375 0.257812,-0.78125 0,-1.421875 0,-2.296875 0,-2.753906 0.0859375,-3.160156 0.265625,-3.515625 0.441406,-3.878906 0.679688,-4.175781 0.984375,-4.40625 1.285156,-4.644531 1.628906,-4.828125 2.015625,-4.953125 2.398438,-5.085938 2.800781,-5.15625 3.21875,-5.15625 c 0.8125,0 1.488281,0.203125 2.03125,0.609375 C 5.789062,-4.140625 6.0625,-3.5 6.0625,-2.625 Z m 0,0"
           id="path107" />
      </g>
    </g>
  </g>
  <g
     fill="#ffffff"
     fill-opacity="0.502"
     id="g113"
     transform="translate(-52.496726,-10.353194)">
    <g
       transform="translate(249.3293,92.956344)"
       id="g112">
      <g
         id="g111">
        <path
           d="m 18.28125,-14.609375 c 0,0.574219 -0.08594,1.089844 -0.25,1.546875 -0.167969,0.460938 -0.402344,0.867188 -0.703125,1.21875 -0.304687,0.355469 -0.652344,0.671875 -1.046875,0.953125 -0.398438,0.28125 -0.835938,0.542969 -1.3125,0.78125 0.21875,0.07422 0.476562,0.199219 0.78125,0.375 0.300781,0.167969 0.585938,0.402344 0.859375,0.703125 0.28125,0.292969 0.515625,0.671875 0.703125,1.140625 0.1875,0.46875 0.28125,1.042969 0.28125,1.71875 0,0.898437 -0.1875,1.726563 -0.5625,2.484375 -0.375,0.75 -0.9375,1.402344 -1.6875,1.953125 -0.742188,0.542969 -1.652344,0.96875 -2.734375,1.28125 C 11.523438,-0.148438 10.273438,0 8.859375,0 H 0 L 4.03125,-18.9375 H 11.875 c 0.769531,0 1.535156,0.05859 2.296875,0.171875 0.769531,0.105469 1.457031,0.320313 2.0625,0.640625 0.613281,0.3125 1.109375,0.757812 1.484375,1.328125 0.375,0.5625 0.5625,1.292969 0.5625,2.1875 z M 10.171875,-11 c 0.4375,0 0.804687,-0.128906 1.109375,-0.390625 0.3125,-0.257813 0.566406,-0.582031 0.765625,-0.96875 0.195313,-0.394531 0.34375,-0.8125 0.4375,-1.25 0.101563,-0.445313 0.15625,-0.851563 0.15625,-1.21875 0,-0.570313 -0.136719,-1.0625 -0.40625,-1.46875 -0.261719,-0.40625 -0.679687,-0.609375 -1.25,-0.609375 h -0.90625 L 8.796875,-11 Z M 8.03125,-1.875 c 0.59375,0 1.085938,-0.164062 1.484375,-0.5 0.394531,-0.34375 0.722656,-0.765625 0.984375,-1.265625 0.257812,-0.5 0.441406,-1.019531 0.546875,-1.5625 0.113281,-0.550781 0.171875,-1.035156 0.171875,-1.453125 0,-0.695312 -0.148438,-1.25 -0.4375,-1.65625 -0.292969,-0.40625 -0.757812,-0.609375 -1.390625,-0.609375 H 8.296875 L 6.828125,-1.875 Z m 0,0"
           id="path110" />
      </g>
    </g>
  </g>
  <g
     fill="#ffffff"
     fill-opacity="0.502"
     id="g116"
     transform="translate(-52.496726,-10.353194)">
    <g
       transform="translate(267.13513,92.956344)"
       id="g115">
      <g
         id="g114">
        <path
           d="M 10.59375,-8.65625 H 18.3125 L 16.578125,0 H 13.0625 L 12.5,-1.90625 h -0.125 c -0.511719,0.59375 -1.121094,1.101562 -1.828125,1.515625 -0.710937,0.4140625 -1.632813,0.625 -2.765625,0.625 -0.875,0 -1.714844,-0.140625 -2.515625,-0.421875 -0.804687,-0.289062 -1.523437,-0.75 -2.15625,-1.375 -0.625,-0.625 -1.125,-1.441406 -1.5,-2.453125 -0.375,-1.019531 -0.5625,-2.25 -0.5625,-3.6875 0,-1.539063 0.234375,-3.007813 0.703125,-4.40625 0.476562,-1.394531 1.195312,-2.625 2.15625,-3.6875 0.957031,-1.0625 2.148438,-1.898437 3.578125,-2.515625 1.4375,-0.613281 3.109375,-0.921875 5.015625,-0.921875 1.46875,0 2.75,0.171875 3.84375,0.515625 1.09375,0.335938 2.128906,0.710938 3.109375,1.125 L 18.3125,-11.8125 h -5.03125 c 0.0078,-0.21875 0.03516,-0.472656 0.07813,-0.765625 0.03906,-0.300781 0.07031,-0.613281 0.09375,-0.9375 0.01953,-0.332031 0.03906,-0.65625 0.0625,-0.96875 0.01953,-0.320313 0.03125,-0.601563 0.03125,-0.84375 0,-0.15625 -0.01172,-0.335937 -0.03125,-0.546875 -0.02344,-0.21875 -0.07422,-0.425781 -0.15625,-0.625 -0.07422,-0.195312 -0.195313,-0.359375 -0.359375,-0.484375 -0.15625,-0.132813 -0.386719,-0.203125 -0.6875,-0.203125 -0.511719,0 -0.980469,0.21875 -1.40625,0.65625 -0.429688,0.429688 -0.8125,0.996094 -1.15625,1.703125 -0.335938,0.699219 -0.625,1.496094 -0.875,2.390625 -0.25,0.898438 -0.460938,1.808594 -0.625,2.734375 C 8.082031,-8.785156 7.953125,-7.882812 7.859375,-7 7.765625,-6.113281 7.71875,-5.34375 7.71875,-4.6875 c 0,0.199219 0.00781,0.449219 0.03125,0.75 0.019531,0.304688 0.082031,0.601562 0.1875,0.890625 0.113281,0.28125 0.273438,0.527344 0.484375,0.734375 C 8.628906,-2.101562 8.9375,-2 9.34375,-2 10,-2 10.632812,-2.351562 11.25,-3.0625 c 0.613281,-0.71875 1.078125,-1.914062 1.390625,-3.59375 h -2.5 z m 0,0"
           id="path113" />
      </g>
    </g>
  </g>
  <g
     fill="#ffffff"
     fill-opacity="1"
     id="g119"
     transform="translate(-52.496726,-10.353194)">
    <g
       transform="translate(52.496728,92.921777)"
       id="g118">
      <g
         id="g117">
        <path
           d="m 0,0 4.03125,-18.9375 h 8.015625 c 1.238281,0 2.316406,0.125 3.234375,0.375 0.925781,0.25 1.691406,0.664062 2.296875,1.234375 0.613281,0.574219 1.070313,1.328125 1.375,2.265625 0.3125,0.9375 0.46875,2.078125 0.46875,3.421875 0,1.460937 -0.1875,2.886719 -0.5625,4.28125 -0.367187,1.386719 -0.976563,2.625 -1.828125,3.71875 C 16.175781,-2.546875 15.054688,-1.664062 13.671875,-1 12.296875,-0.332031 10.59375,0 8.5625,0 Z m 8.171875,-2.09375 c 0.65625,0 1.234375,-0.269531 1.734375,-0.8125 0.507812,-0.550781 0.945312,-1.25 1.3125,-2.09375 0.375,-0.84375 0.6875,-1.773438 0.9375,-2.796875 0.25,-1.03125 0.445312,-2.019531 0.59375,-2.96875 0.144531,-0.957031 0.253906,-1.8125 0.328125,-2.5625 0.07031,-0.757813 0.109375,-1.296875 0.109375,-1.609375 0,-0.625 -0.125,-1.109375 -0.375,-1.453125 -0.25,-0.34375 -0.683594,-0.515625 -1.296875,-0.515625 h -1.4375 l -3.1875,14.8125 z m 0,0"
           id="path116" />
      </g>
    </g>
  </g>
  <g
     fill="#ffffff"
     fill-opacity="1"
     id="g122"
     transform="translate(-52.496726,-10.353194)">
    <g
       transform="translate(71.495591,92.921777)"
       id="g121">
      <g
         id="g120">
        <path
           d="m 9.578125,-8.171875 c 0.59375,0 1.09375,-0.25 1.5,-0.75 0.40625,-0.5 0.742187,-1.101563 1.015625,-1.8125 0.269531,-0.71875 0.460938,-1.460937 0.578125,-2.234375 0.125,-0.78125 0.1875,-1.457031 0.1875,-2.03125 0,-0.539062 -0.09375,-0.992188 -0.28125,-1.359375 -0.179687,-0.363281 -0.5625,-0.546875 -1.15625,-0.546875 h -1.34375 l -1.875,8.734375 z M 7.78125,-6.265625 6.4375,0 H 0 l 4.03125,-18.9375 h 6.890625 c 1.132813,0 2.164063,0.0625 3.09375,0.1875 0.9375,0.117188 1.742187,0.351562 2.421875,0.703125 0.675781,0.355469 1.203125,0.867187 1.578125,1.53125 0.375,0.667969 0.5625,1.558594 0.5625,2.671875 0,1.03125 -0.167969,2.011719 -0.5,2.9375 -0.324219,0.929688 -0.851563,1.734375 -1.578125,2.421875 -0.71875,0.6875 -1.65625,1.230469 -2.8125,1.625 -1.148438,0.398437 -2.546875,0.59375 -4.203125,0.59375 z m 0,0"
           id="path119" />
      </g>
    </g>
  </g>
  <g
     fill="#ffffff"
     fill-opacity="1"
     id="g125"
     transform="translate(-52.496726,-10.353194)">
    <g
       transform="translate(88.64527,92.921777)"
       id="g124">
      <g
         id="g123">
        <path
           d="m 4.03125,-18.9375 h 12.546875 l -0.46875,2.265625 H 10 L 8.828125,-11.21875 H 13.9375 l -0.484375,2.296875 H 8.359375 L 6.4375,0 H 0 Z m 0,0"
           id="path122" />
      </g>
    </g>
  </g>
  <g
     fill="#ffffff"
     fill-opacity="1"
     id="g128"
     transform="translate(-52.496726,-10.353194)">
    <g
       transform="translate(102.54396,92.921777)"
       id="g127">
      <g
         id="g126">
        <path
           d="m 1.484375,-7.640625 h 9.40625 l -0.59375,2.71875 h -9.4375 z m 0,0"
           id="path125" />
      </g>
    </g>
  </g>
  <g
     fill="#ffffff"
     fill-opacity="1"
     id="g131"
     transform="translate(-52.496726,-10.353194)">
    <g
       transform="translate(114.17591,92.921777)"
       id="g130">
      <g
         id="g129">
        <path
           d="m 16.828125,-1.609375 c -0.5,0.242187 -1.015625,0.476563 -1.546875,0.703125 -0.523438,0.230469 -1.085938,0.429688 -1.6875,0.59375 -0.59375,0.167969 -1.246094,0.296875 -1.953125,0.390625 -0.699219,0.101563 -1.464844,0.15625 -2.296875,0.15625 -2.667969,0 -4.726562,-0.59375 -6.171875,-1.78125 -1.4375,-1.195313 -2.15625,-3.1875 -2.15625,-5.96875 0,-1.613281 0.242187,-3.128906 0.734375,-4.546875 0.5,-1.425781 1.234375,-2.671875 2.203125,-3.734375 0.976563,-1.0625 2.179687,-1.898437 3.609375,-2.515625 1.4375,-0.613281 3.082031,-0.921875 4.9375,-0.921875 0.875,0 1.671875,0.0625 2.390625,0.1875 0.726563,0.117187 1.382813,0.265625 1.96875,0.453125 0.59375,0.1875 1.125,0.390625 1.59375,0.609375 0.46875,0.21875 0.890625,0.429687 1.265625,0.625 L 18.640625,-11.8125 H 13.28125 c 0.0078,-0.195312 0.03125,-0.453125 0.0625,-0.765625 0.03125,-0.320313 0.05469,-0.644531 0.07813,-0.96875 0.01953,-0.332031 0.03906,-0.65625 0.0625,-0.96875 0.01953,-0.320313 0.03125,-0.59375 0.03125,-0.8125 0,-0.15625 -0.01172,-0.335937 -0.03125,-0.546875 -0.02344,-0.21875 -0.07422,-0.425781 -0.15625,-0.625 -0.07422,-0.195312 -0.199219,-0.359375 -0.375,-0.484375 -0.167969,-0.132813 -0.386719,-0.203125 -0.65625,-0.203125 -0.523437,0 -0.996094,0.21875 -1.421875,0.65625 -0.429688,0.429688 -0.8125,0.996094 -1.15625,1.703125 -0.335938,0.699219 -0.632812,1.496094 -0.890625,2.390625 -0.261719,0.898438 -0.476563,1.808594 -0.640625,2.734375 -0.167969,0.917969 -0.296875,1.824219 -0.390625,2.71875 -0.085937,0.898437 -0.125,1.683594 -0.125,2.359375 0,0.199219 0.00391,0.449219 0.015625,0.75 0.019531,0.292969 0.082031,0.578125 0.1875,0.859375 0.101562,0.28125 0.257812,0.523437 0.46875,0.71875 C 8.550781,-2.097656 8.832031,-2 9.1875,-2 9.800781,-2 10.394531,-2.378906 10.96875,-3.140625 11.550781,-3.910156 12.0625,-5.28125 12.5,-7.25 h 5.515625 z m 0,0"
           id="path128" />
      </g>
    </g>
  </g>
  <g
     fill="#ffffff"
     fill-opacity="1"
     id="g134"
     transform="translate(-52.496726,-10.353194)">
    <g
       transform="translate(132.48879,92.921777)"
       id="g133">
      <g
         id="g132">
        <path
           d="M 4.03125,-18.9375 H 10.5 L 6.984375,-2.5 h 6.046875 l -0.5,2.5 H 0 Z m 0,0"
           id="path131" />
      </g>
    </g>
  </g>
  <g
     fill="#ffffff"
     fill-opacity="1"
     id="g137"
     transform="translate(-52.496726,-10.353194)">
    <g
       transform="translate(146.11905,92.921777)"
       id="g136">
      <g
         id="g135">
        <path
           d="m 4.03125,-18.9375 h 12.546875 l -0.46875,2.265625 h -6.09375 l -1.25,5.75 H 13.875 L 13.390625,-8.6875 h -5.09375 l -1.375,6.390625 H 13 L 12.5625,0 H 0 Z m 0,0"
           id="path134" />
      </g>
    </g>
  </g>
  <g
     fill="#ffffff"
     fill-opacity="1"
     id="g140"
     transform="translate(-52.496726,-10.353194)">
    <g
       transform="translate(160.37564,92.921777)"
       id="g139">
      <g
         id="g138">
        <path
           d="M 16.53125,0 H 9.546875 L 9.125,-4.75 H 3.609375 L 1.484375,0 H -1.40625 L 7.390625,-18.9375 H 14.46875 Z M 4.59375,-6.921875 h 4.328125 l -0.6875,-8.109375 z m 0,0"
           id="path137" />
      </g>
    </g>
  </g>
  <g
     fill="#ffffff"
     fill-opacity="1"
     id="g143"
     transform="translate(-52.496726,-10.353194)">
    <g
       transform="translate(177.58496,92.921777)"
       id="g142">
      <g
         id="g141">
        <path
           d="M 15.890625,0 H 8.921875 L 5.609375,-13.6875 2.6875,0 H 0 l 4.03125,-18.9375 h 7.125 l 3.125,13.859375 2.953125,-13.859375 h 2.75 z m 0,0"
           id="path140" />
      </g>
    </g>
  </g>
  <g
     fill="#ffffff"
     fill-opacity="1"
     id="g146"
     transform="translate(-52.496726,-10.353194)">
    <g
       transform="translate(196.04696,92.921777)"
       id="g145">
      <g
         id="g144">
        <path
           d="M 6.4375,0 H 0 L 4.03125,-18.9375 H 10.5 Z m 0,0"
           id="path143" />
      </g>
    </g>
  </g>
  <g
     fill="#ffffff"
     fill-opacity="1"
     id="g149"
     transform="translate(-52.496726,-10.353194)">
    <g
       transform="translate(205.02444,92.921777)"
       id="g148">
      <g
         id="g147">
        <path
           d="M 15.890625,0 H 8.921875 L 5.609375,-13.6875 2.6875,0 H 0 l 4.03125,-18.9375 h 7.125 l 3.125,13.859375 2.953125,-13.859375 h 2.75 z m 0,0"
           id="path146" />
      </g>
    </g>
  </g>
  <g
     fill="#ffffff"
     fill-opacity="1"
     id="g152"
     transform="translate(-52.496726,-10.353194)">
    <g
       transform="translate(223.48644,92.921777)"
       id="g151">
      <g
         id="g150">
        <path
           d="M 10.59375,-8.65625 H 18.3125 L 16.578125,0 H 13.0625 L 12.5,-1.90625 h -0.125 c -0.511719,0.59375 -1.121094,1.101562 -1.828125,1.515625 -0.710937,0.4140625 -1.632813,0.625 -2.765625,0.625 -0.875,0 -1.714844,-0.140625 -2.515625,-0.421875 -0.804687,-0.289062 -1.523437,-0.75 -2.15625,-1.375 -0.625,-0.625 -1.125,-1.441406 -1.5,-2.453125 -0.375,-1.019531 -0.5625,-2.25 -0.5625,-3.6875 0,-1.539063 0.234375,-3.007813 0.703125,-4.40625 0.476562,-1.394531 1.195312,-2.625 2.15625,-3.6875 0.957031,-1.0625 2.148438,-1.898437 3.578125,-2.515625 1.4375,-0.613281 3.109375,-0.921875 5.015625,-0.921875 1.46875,0 2.75,0.171875 3.84375,0.515625 1.09375,0.335938 2.128906,0.710938 3.109375,1.125 L 18.3125,-11.8125 h -5.03125 c 0.0078,-0.21875 0.03516,-0.472656 0.07813,-0.765625 0.03906,-0.300781 0.07031,-0.613281 0.09375,-0.9375 0.01953,-0.332031 0.03906,-0.65625 0.0625,-0.96875 0.01953,-0.320313 0.03125,-0.601563 0.03125,-0.84375 0,-0.15625 -0.01172,-0.335937 -0.03125,-0.546875 -0.02344,-0.21875 -0.07422,-0.425781 -0.15625,-0.625 -0.07422,-0.195312 -0.195313,-0.359375 -0.359375,-0.484375 -0.15625,-0.132813 -0.386719,-0.203125 -0.6875,-0.203125 -0.511719,0 -0.980469,0.21875 -1.40625,0.65625 -0.429688,0.429688 -0.8125,0.996094 -1.15625,1.703125 -0.335938,0.699219 -0.625,1.496094 -0.875,2.390625 -0.25,0.898438 -0.460938,1.808594 -0.625,2.734375 C 8.082031,-8.785156 7.953125,-7.882812 7.859375,-7 7.765625,-6.113281 7.71875,-5.34375 7.71875,-4.6875 c 0,0.199219 0.00781,0.449219 0.03125,0.75 0.019531,0.304688 0.082031,0.601562 0.1875,0.890625 0.113281,0.28125 0.273438,0.527344 0.484375,0.734375 C 8.628906,-2.101562 8.9375,-2 9.34375,-2 10,-2 10.632812,-2.351562 11.25,-3.0625 c 0.613281,-0.71875 1.078125,-1.914062 1.390625,-3.59375 h -2.5 z m 0,0"
           id="path149" />
      </g>
    </g>
  </g>
  <g
     fill="#ffffff"
     fill-opacity="1"
     id="g155"
     transform="translate(-52.496726,-10.353194)">
    <g
       transform="translate(241.88879,92.921777)"
       id="g154">
      <g
         id="g153">
        <path
           d="m 6.0625,-2.625 c 0,0.460938 -0.101562,0.871094 -0.296875,1.234375 -0.1875,0.355469 -0.4375,0.652344 -0.75,0.890625 C 4.710938,-0.269531 4.363281,-0.09375 3.96875,0.03125 3.570312,0.164062 3.15625,0.234375 2.71875,0.234375 1.957031,0.234375 1.3125,0.03125 0.78125,-0.375 0.257812,-0.78125 0,-1.421875 0,-2.296875 0,-2.753906 0.0859375,-3.160156 0.265625,-3.515625 0.441406,-3.878906 0.679688,-4.175781 0.984375,-4.40625 1.285156,-4.644531 1.628906,-4.828125 2.015625,-4.953125 2.398438,-5.085938 2.800781,-5.15625 3.21875,-5.15625 c 0.8125,0 1.488281,0.203125 2.03125,0.609375 C 5.789062,-4.140625 6.0625,-3.5 6.0625,-2.625 Z m 0,0"
           id="path152" />
      </g>
    </g>
  </g>
  <g
     fill="#ffffff"
     fill-opacity="1"
     id="g158"
     transform="translate(-52.496726,-10.353194)">
    <g
       transform="translate(249.31533,92.921777)"
       id="g157">
      <g
         id="g156">
        <path
           d="m 18.28125,-14.609375 c 0,0.574219 -0.08594,1.089844 -0.25,1.546875 -0.167969,0.460938 -0.402344,0.867188 -0.703125,1.21875 -0.304687,0.355469 -0.652344,0.671875 -1.046875,0.953125 -0.398438,0.28125 -0.835938,0.542969 -1.3125,0.78125 0.21875,0.07422 0.476562,0.199219 0.78125,0.375 0.300781,0.167969 0.585938,0.402344 0.859375,0.703125 0.28125,0.292969 0.515625,0.671875 0.703125,1.140625 0.1875,0.46875 0.28125,1.042969 0.28125,1.71875 0,0.898437 -0.1875,1.726563 -0.5625,2.484375 -0.375,0.75 -0.9375,1.402344 -1.6875,1.953125 -0.742188,0.542969 -1.652344,0.96875 -2.734375,1.28125 C 11.523438,-0.148438 10.273438,0 8.859375,0 H 0 L 4.03125,-18.9375 H 11.875 c 0.769531,0 1.535156,0.05859 2.296875,0.171875 0.769531,0.105469 1.457031,0.320313 2.0625,0.640625 0.613281,0.3125 1.109375,0.757812 1.484375,1.328125 0.375,0.5625 0.5625,1.292969 0.5625,2.1875 z M 10.171875,-11 c 0.4375,0 0.804687,-0.128906 1.109375,-0.390625 0.3125,-0.257813 0.566406,-0.582031 0.765625,-0.96875 0.195313,-0.394531 0.34375,-0.8125 0.4375,-1.25 0.101563,-0.445313 0.15625,-0.851563 0.15625,-1.21875 0,-0.570313 -0.136719,-1.0625 -0.40625,-1.46875 -0.261719,-0.40625 -0.679687,-0.609375 -1.25,-0.609375 h -0.90625 L 8.796875,-11 Z M 8.03125,-1.875 c 0.59375,0 1.085938,-0.164062 1.484375,-0.5 0.394531,-0.34375 0.722656,-0.765625 0.984375,-1.265625 0.257812,-0.5 0.441406,-1.019531 0.546875,-1.5625 0.113281,-0.550781 0.171875,-1.035156 0.171875,-1.453125 0,-0.695312 -0.148438,-1.25 -0.4375,-1.65625 -0.292969,-0.40625 -0.757812,-0.609375 -1.390625,-0.609375 H 8.296875 L 6.828125,-1.875 Z m 0,0"
           id="path155" />
      </g>
    </g>
  </g>
  <g
     fill="#ffffff"
     fill-opacity="1"
     id="g161"
     transform="translate(-52.496726,-10.353194)">
    <g
       transform="translate(267.12116,92.921777)"
       id="g160">
      <g
         id="g159">
        <path
           d="M 10.59375,-8.65625 H 18.3125 L 16.578125,0 H 13.0625 L 12.5,-1.90625 h -0.125 c -0.511719,0.59375 -1.121094,1.101562 -1.828125,1.515625 -0.710937,0.4140625 -1.632813,0.625 -2.765625,0.625 -0.875,0 -1.714844,-0.140625 -2.515625,-0.421875 -0.804687,-0.289062 -1.523437,-0.75 -2.15625,-1.375 -0.625,-0.625 -1.125,-1.441406 -1.5,-2.453125 -0.375,-1.019531 -0.5625,-2.25 -0.5625,-3.6875 0,-1.539063 0.234375,-3.007813 0.703125,-4.40625 0.476562,-1.394531 1.195312,-2.625 2.15625,-3.6875 0.957031,-1.0625 2.148438,-1.898437 3.578125,-2.515625 1.4375,-0.613281 3.109375,-0.921875 5.015625,-0.921875 1.46875,0 2.75,0.171875 3.84375,0.515625 1.09375,0.335938 2.128906,0.710938 3.109375,1.125 L 18.3125,-11.8125 h -5.03125 c 0.0078,-0.21875 0.03516,-0.472656 0.07813,-0.765625 0.03906,-0.300781 0.07031,-0.613281 0.09375,-0.9375 0.01953,-0.332031 0.03906,-0.65625 0.0625,-0.96875 0.01953,-0.320313 0.03125,-0.601563 0.03125,-0.84375 0,-0.15625 -0.01172,-0.335937 -0.03125,-0.546875 -0.02344,-0.21875 -0.07422,-0.425781 -0.15625,-0.625 -0.07422,-0.195312 -0.195313,-0.359375 -0.359375,-0.484375 -0.15625,-0.132813 -0.386719,-0.203125 -0.6875,-0.203125 -0.511719,0 -0.980469,0.21875 -1.40625,0.65625 -0.429688,0.429688 -0.8125,0.996094 -1.15625,1.703125 -0.335938,0.699219 -0.625,1.496094 -0.875,2.390625 -0.25,0.898438 -0.460938,1.808594 -0.625,2.734375 C 8.082031,-8.785156 7.953125,-7.882812 7.859375,-7 7.765625,-6.113281 7.71875,-5.34375 7.71875,-4.6875 c 0,0.199219 0.00781,0.449219 0.03125,0.75 0.019531,0.304688 0.082031,0.601562 0.1875,0.890625 0.113281,0.28125 0.273438,0.527344 0.484375,0.734375 C 8.628906,-2.101562 8.9375,-2 9.34375,-2 10,-2 10.632812,-2.351562 11.25,-3.0625 c 0.613281,-0.71875 1.078125,-1.914062 1.390625,-3.59375 h -2.5 z m 0,0"
           id="path158" />
      </g>
    </g>
  </g>
</svg>
