<svg xmlns="http://www.w3.org/2000/svg" xmlns:xlink="http://www.w3.org/1999/xlink" width="449" zoomAndPan="magnify" viewBox="0 0 336.75 124.499996" height="166" preserveAspectRatio="xMidYMid meet" version="1.0"><defs><g/><clipPath id="3f4c55c1a5"><path d="M 53 107 L 144.875 107 L 144.875 110 L 53 110 Z M 53 107 " clip-rule="nonzero"/></clipPath><clipPath id="9d7a68da90"><path d="M 39.621094 104.484375 L 144.875 104.484375 L 144.875 111.207031 L 39.621094 111.207031 Z M 39.621094 104.484375 " clip-rule="nonzero"/></clipPath><clipPath id="7cfbe65b1b"><path d="M 191.140625 107 L 283 107 L 283 110 L 191.140625 110 Z M 191.140625 107 " clip-rule="nonzero"/></clipPath><clipPath id="6f1efce53f"><path d="M 191.140625 104.484375 L 296.40625 104.484375 L 296.40625 111.207031 L 191.140625 111.207031 Z M 191.140625 104.484375 " clip-rule="nonzero"/></clipPath><clipPath id="d83d8819db"><path d="M 92.21875 14 L 223 14 L 223 52 L 92.21875 52 Z M 92.21875 14 " clip-rule="nonzero"/></clipPath><clipPath id="0590d9e105"><path d="M 115 37 L 243.859375 37 L 243.859375 55 L 115 55 Z M 115 37 " clip-rule="nonzero"/></clipPath></defs><g clip-path="url(#3f4c55c1a5)"><path fill="#ff3131" d="M 53.589844 107.148438 L 256.675781 107.148438 L 256.675781 109.425781 Z M 53.589844 107.148438 " fill-opacity="1" fill-rule="nonzero"/></g><g clip-path="url(#9d7a68da90)"><path fill="#a1ffc7" d="M 272.167969 97.078125 L 258.078125 97.078125 L 255.910156 101.4375 L 39.621094 101.4375 L 254.523438 101.4375 L 256.945312 103.253906 L 259.105469 99.507812 L 268.335938 99.507812 L 260.636719 113.445312 L 68.167969 113.445312 L 261.671875 115.25 L 272.167969 97.078125 " fill-opacity="1" fill-rule="nonzero"/></g><g clip-path="url(#7cfbe65b1b)"><path fill="#ff3131" d="M 282.441406 107.148438 L 79.351562 107.148438 L 79.351562 109.425781 Z M 282.441406 107.148438 " fill-opacity="1" fill-rule="nonzero"/></g><g clip-path="url(#6f1efce53f)"><path fill="#ff3131" d="M 63.863281 97.078125 L 77.949219 97.078125 L 80.121094 101.4375 L 296.40625 101.4375 L 81.507812 101.4375 L 79.085938 103.253906 L 76.921875 99.507812 L 67.695312 99.507812 L 75.394531 113.445312 L 267.863281 113.445312 L 74.359375 115.25 L 63.863281 97.078125 " fill-opacity="1" fill-rule="nonzero"/></g><g fill="#fff6ea" fill-opacity="1"><g transform="translate(149.906852, 112.047527)"><g><path d="M 5.84375 0 L 0.9375 0 C 0.863281 0 0.800781 -0.0234375 0.75 -0.078125 C 0.695312 -0.128906 0.671875 -0.191406 0.671875 -0.265625 L 0.671875 -0.6875 C 0.671875 -0.726562 0.6875 -0.773438 0.71875 -0.828125 L 4.453125 -4.484375 C 4.679688 -4.710938 4.835938 -4.921875 4.921875 -5.109375 C 5.015625 -5.296875 5.0625 -5.503906 5.0625 -5.734375 C 5.0625 -6.023438 4.984375 -6.285156 4.828125 -6.515625 C 4.671875 -6.753906 4.457031 -6.9375 4.1875 -7.0625 C 3.925781 -7.195312 3.632812 -7.265625 3.3125 -7.265625 L 3.25 -7.265625 C 2.957031 -7.265625 2.671875 -7.191406 2.390625 -7.046875 C 2.117188 -6.898438 1.898438 -6.695312 1.734375 -6.4375 C 1.671875 -6.351562 1.597656 -6.3125 1.515625 -6.3125 C 1.472656 -6.3125 1.441406 -6.320312 1.421875 -6.34375 L 1 -6.6875 C 0.96875 -6.738281 0.953125 -6.773438 0.953125 -6.796875 C 0.953125 -6.835938 0.960938 -6.878906 0.984375 -6.921875 C 1.015625 -6.972656 1.035156 -7.015625 1.046875 -7.046875 C 1.296875 -7.347656 1.609375 -7.613281 1.984375 -7.84375 C 2.359375 -8.070312 2.800781 -8.1875 3.3125 -8.1875 C 3.8125 -8.1875 4.265625 -8.085938 4.671875 -7.890625 C 5.085938 -7.691406 5.414062 -7.410156 5.65625 -7.046875 C 5.90625 -6.679688 6.03125 -6.25 6.03125 -5.75 C 6.03125 -5.394531 5.960938 -5.066406 5.828125 -4.765625 C 5.691406 -4.472656 5.515625 -4.222656 5.296875 -4.015625 C 5.191406 -3.898438 5.03125 -3.738281 4.8125 -3.53125 C 4.59375 -3.332031 4.351562 -3.101562 4.09375 -2.84375 C 3.832031 -2.59375 3.566406 -2.335938 3.296875 -2.078125 C 3.035156 -1.828125 2.796875 -1.597656 2.578125 -1.390625 C 2.367188 -1.191406 2.210938 -1.039062 2.109375 -0.9375 L 5.84375 -0.9375 C 5.914062 -0.9375 5.972656 -0.914062 6.015625 -0.875 C 6.066406 -0.84375 6.09375 -0.78125 6.09375 -0.6875 L 6.09375 -0.265625 C 6.09375 -0.203125 6.066406 -0.140625 6.015625 -0.078125 C 5.972656 -0.0234375 5.914062 0 5.84375 0 Z M 5.84375 0 "/></g></g></g><g fill="#fff6ea" fill-opacity="1"><g transform="translate(158.842174, 112.047527)"><g><path d="M 4.671875 -8.234375 C 5.242188 -8.234375 5.78125 -8.125 6.28125 -7.90625 C 6.789062 -7.695312 7.234375 -7.398438 7.609375 -7.015625 C 7.992188 -6.628906 8.296875 -6.179688 8.515625 -5.671875 C 8.734375 -5.171875 8.84375 -4.628906 8.84375 -4.046875 C 8.84375 -3.460938 8.734375 -2.921875 8.515625 -2.421875 C 8.304688 -1.921875 8.007812 -1.476562 7.625 -1.09375 C 7.238281 -0.71875 6.789062 -0.421875 6.28125 -0.203125 C 5.78125 0.015625 5.238281 0.125 4.65625 0.125 C 4.082031 0.125 3.539062 0.015625 3.03125 -0.203125 C 2.53125 -0.421875 2.085938 -0.71875 1.703125 -1.09375 C 1.316406 -1.476562 1.015625 -1.921875 0.796875 -2.421875 C 0.585938 -2.929688 0.484375 -3.472656 0.484375 -4.046875 C 0.484375 -4.628906 0.585938 -5.171875 0.796875 -5.671875 C 1.015625 -6.179688 1.316406 -6.628906 1.703125 -7.015625 C 2.085938 -7.398438 2.53125 -7.695312 3.03125 -7.90625 C 3.539062 -8.125 4.085938 -8.234375 4.671875 -8.234375 Z M 1.4375 -4.0625 C 1.4375 -3.613281 1.519531 -3.191406 1.6875 -2.796875 C 1.851562 -2.410156 2.082031 -2.066406 2.375 -1.765625 C 2.664062 -1.472656 3.007812 -1.242188 3.40625 -1.078125 C 3.800781 -0.910156 4.222656 -0.828125 4.671875 -0.828125 C 5.109375 -0.828125 5.519531 -0.910156 5.90625 -1.078125 C 6.300781 -1.242188 6.644531 -1.472656 6.9375 -1.765625 C 7.226562 -2.066406 7.457031 -2.410156 7.625 -2.796875 C 7.800781 -3.191406 7.890625 -3.613281 7.890625 -4.0625 C 7.890625 -4.507812 7.800781 -4.925781 7.625 -5.3125 C 7.457031 -5.695312 7.226562 -6.035156 6.9375 -6.328125 C 6.644531 -6.628906 6.300781 -6.863281 5.90625 -7.03125 C 5.519531 -7.195312 5.109375 -7.28125 4.671875 -7.28125 C 4.222656 -7.28125 3.800781 -7.195312 3.40625 -7.03125 C 3.007812 -6.863281 2.664062 -6.628906 2.375 -6.328125 C 2.082031 -6.035156 1.851562 -5.695312 1.6875 -5.3125 C 1.519531 -4.925781 1.4375 -4.507812 1.4375 -4.0625 Z M 1.4375 -4.0625 "/></g></g></g><g fill="#fff6ea" fill-opacity="1"><g transform="translate(170.372231, 112.047527)"><g><path d="M 5.84375 0 L 0.9375 0 C 0.863281 0 0.800781 -0.0234375 0.75 -0.078125 C 0.695312 -0.128906 0.671875 -0.191406 0.671875 -0.265625 L 0.671875 -0.6875 C 0.671875 -0.726562 0.6875 -0.773438 0.71875 -0.828125 L 4.453125 -4.484375 C 4.679688 -4.710938 4.835938 -4.921875 4.921875 -5.109375 C 5.015625 -5.296875 5.0625 -5.503906 5.0625 -5.734375 C 5.0625 -6.023438 4.984375 -6.285156 4.828125 -6.515625 C 4.671875 -6.753906 4.457031 -6.9375 4.1875 -7.0625 C 3.925781 -7.195312 3.632812 -7.265625 3.3125 -7.265625 L 3.25 -7.265625 C 2.957031 -7.265625 2.671875 -7.191406 2.390625 -7.046875 C 2.117188 -6.898438 1.898438 -6.695312 1.734375 -6.4375 C 1.671875 -6.351562 1.597656 -6.3125 1.515625 -6.3125 C 1.472656 -6.3125 1.441406 -6.320312 1.421875 -6.34375 L 1 -6.6875 C 0.96875 -6.738281 0.953125 -6.773438 0.953125 -6.796875 C 0.953125 -6.835938 0.960938 -6.878906 0.984375 -6.921875 C 1.015625 -6.972656 1.035156 -7.015625 1.046875 -7.046875 C 1.296875 -7.347656 1.609375 -7.613281 1.984375 -7.84375 C 2.359375 -8.070312 2.800781 -8.1875 3.3125 -8.1875 C 3.8125 -8.1875 4.265625 -8.085938 4.671875 -7.890625 C 5.085938 -7.691406 5.414062 -7.410156 5.65625 -7.046875 C 5.90625 -6.679688 6.03125 -6.25 6.03125 -5.75 C 6.03125 -5.394531 5.960938 -5.066406 5.828125 -4.765625 C 5.691406 -4.472656 5.515625 -4.222656 5.296875 -4.015625 C 5.191406 -3.898438 5.03125 -3.738281 4.8125 -3.53125 C 4.59375 -3.332031 4.351562 -3.101562 4.09375 -2.84375 C 3.832031 -2.59375 3.566406 -2.335938 3.296875 -2.078125 C 3.035156 -1.828125 2.796875 -1.597656 2.578125 -1.390625 C 2.367188 -1.191406 2.210938 -1.039062 2.109375 -0.9375 L 5.84375 -0.9375 C 5.914062 -0.9375 5.972656 -0.914062 6.015625 -0.875 C 6.066406 -0.84375 6.09375 -0.78125 6.09375 -0.6875 L 6.09375 -0.265625 C 6.09375 -0.203125 6.066406 -0.140625 6.015625 -0.078125 C 5.972656 -0.0234375 5.914062 0 5.84375 0 Z M 5.84375 0 "/></g></g></g><g fill="#fff6ea" fill-opacity="1"><g transform="translate(179.307553, 112.047527)"><g><path d="M 4.421875 -1.390625 L 0.828125 -1.390625 C 0.722656 -1.390625 0.648438 -1.414062 0.609375 -1.46875 C 0.566406 -1.519531 0.546875 -1.578125 0.546875 -1.640625 C 0.546875 -1.734375 0.566406 -1.820312 0.609375 -1.90625 C 0.660156 -2 0.734375 -2.125 0.828125 -2.28125 C 1.410156 -3.1875 1.984375 -4.09375 2.546875 -5 C 3.109375 -5.90625 3.691406 -6.804688 4.296875 -7.703125 C 4.390625 -7.847656 4.46875 -7.953125 4.53125 -8.015625 C 4.59375 -8.078125 4.660156 -8.113281 4.734375 -8.125 C 4.816406 -8.132812 4.925781 -8.140625 5.0625 -8.140625 C 5.257812 -8.140625 5.359375 -8.019531 5.359375 -7.78125 C 5.359375 -7.78125 5.359375 -7.757812 5.359375 -7.71875 C 5.359375 -7.6875 5.359375 -7.585938 5.359375 -7.421875 C 5.359375 -7.253906 5.359375 -6.976562 5.359375 -6.59375 C 5.359375 -6.21875 5.359375 -5.6875 5.359375 -5 C 5.359375 -4.3125 5.359375 -3.425781 5.359375 -2.34375 L 5.984375 -2.34375 C 6.179688 -2.34375 6.28125 -2.242188 6.28125 -2.046875 L 6.28125 -1.671875 C 6.28125 -1.484375 6.179688 -1.390625 5.984375 -1.390625 L 5.359375 -1.390625 L 5.359375 -0.28125 C 5.359375 -0.09375 5.265625 0 5.078125 0 L 4.703125 0 C 4.515625 0 4.421875 -0.09375 4.421875 -0.28125 Z M 1.890625 -2.34375 L 4.421875 -2.34375 L 4.421875 -6.25 C 3.984375 -5.601562 3.5625 -4.953125 3.15625 -4.296875 C 2.75 -3.640625 2.328125 -2.988281 1.890625 -2.34375 Z M 1.890625 -2.34375 "/></g></g></g><path fill="#e10032" d="M 170.390625 10.375 C 147.710938 10.265625 128.207031 13.867188 125.390625 14.222656 C 120.890625 14.792969 119.414062 17.890625 119.414062 17.890625 L 110.695312 37.007812 C 112.234375 36.820312 114.222656 36.578125 116.578125 36.292969 C 117.109375 0.0117188 208.648438 14.027344 211.714844 16.066406 C 198.746094 11.835938 183.996094 10.4375 170.390625 10.375 Z M 170.390625 10.375 " fill-opacity="1" fill-rule="nonzero"/><g clip-path="url(#d83d8819db)"><path fill="#e10032" d="M 150.054688 15.425781 C 150.054688 15.425781 173.804688 11.347656 211.386719 18.085938 C 211.03125 17.730469 218.65625 24.113281 222.730469 37.230469 C 222.554688 37.054688 121.511719 28.367188 92.265625 51.234375 C 92.796875 50.523438 104.851562 37.9375 141.011719 34.75 C 177.175781 31.558594 220.25 39.890625 215.109375 27.65625 C 209.96875 15.425781 181.960938 15.425781 150.054688 15.425781 Z M 150.054688 15.425781 " fill-opacity="1" fill-rule="nonzero"/></g><path fill="#e10032" d="M 111.230469 36.832031 L 108.171875 39.667969 C 108.171875 39.667969 106.136719 37.050781 99.175781 37.320312 C 92.21875 37.585938 96.03125 29.875 100.152344 29.785156 C 104.273438 29.695312 108.261719 28.988281 107.953125 31.113281 C 107.640625 33.242188 107.597656 36.035156 106.976562 36.300781 C 106.355469 36.566406 107.019531 30.226562 101.878906 31.203125 C 96.738281 32.179688 97.757812 34.261719 99.042969 34.75 C 100.328125 35.234375 102.191406 33.996094 103.742188 35.8125 C 105.292969 37.628906 109.859375 38.605469 111.230469 36.832031 Z M 111.230469 36.832031 " fill-opacity="1" fill-rule="nonzero"/><path fill="#e10032" d="M 222.414062 37.144531 L 225.472656 39.980469 C 225.472656 39.980469 227.511719 37.363281 234.46875 37.628906 C 241.425781 37.898438 237.617188 30.183594 233.492188 30.097656 C 229.371094 30.007812 225.382812 29.300781 225.695312 31.425781 C 226.003906 33.554688 226.046875 36.34375 226.667969 36.613281 C 227.289062 36.878906 226.625 30.539062 231.765625 31.515625 C 236.90625 32.492188 235.886719 34.574219 234.601562 35.058594 C 233.316406 35.546875 231.453125 34.308594 229.902344 36.125 C 228.351562 37.941406 223.789062 38.914062 222.414062 37.144531 Z M 222.414062 37.144531 " fill-opacity="1" fill-rule="nonzero"/><g clip-path="url(#0590d9e105)"><path fill="#e10032" d="M 172.527344 37.585938 C 155.304688 37.644531 136.46875 39.53125 115.6875 45.828125 L 115.71875 45.820312 C 147.683594 38.164062 184.625 38.324219 211.148438 40.242188 C 211.058594 40.246094 211.019531 40.246094 210.929688 40.25 C 207.375 40.433594 205.21875 40.957031 200.492188 41.378906 C 195.761719 41.800781 191.007812 42.339844 187.347656 43 C 185.519531 43.328125 183.964844 43.6875 182.816406 44.082031 C 182.238281 44.277344 181.765625 44.484375 181.402344 44.707031 C 181.035156 44.929688 180.769531 45.167969 180.660156 45.480469 C 180.546875 45.804688 180.691406 46.148438 180.960938 46.398438 C 214.582031 67.039062 237.507812 27.890625 243.035156 54.445312 C 243.296875 54.425781 243.554688 54.410156 243.800781 54.402344 C 242.671875 46.433594 238.566406 44.472656 236.957031 41.789062 C 236.457031 40.957031 235.792969 40.5625 235.109375 40.5 C 234.429688 40.441406 233.757812 40.683594 233.160156 41.011719 C 228.761719 44.308594 223.402344 46.371094 218.277344 47.34375 C 212.941406 48.304688 206.90625 48.695312 201.269531 48.6875 C 174.15625 43.804688 206.070312 41.632812 219.675781 40.316406 C 205.347656 39.296875 189.746094 37.527344 172.527344 37.585938 Z M 172.527344 37.585938 " fill-opacity="1" fill-rule="nonzero"/></g><g fill="#ffffff" fill-opacity="0.302"><g transform="translate(74.343915, 88.465131)"><g><path d="M 0 0 L 3.234375 -15.1875 L 9.65625 -15.1875 C 10.644531 -15.1875 11.507812 -15.082031 12.25 -14.875 C 12.988281 -14.675781 13.601562 -14.347656 14.09375 -13.890625 C 14.582031 -13.429688 14.945312 -12.828125 15.1875 -12.078125 C 15.4375 -11.328125 15.5625 -10.410156 15.5625 -9.328125 C 15.5625 -8.160156 15.410156 -7.019531 15.109375 -5.90625 C 14.816406 -4.789062 14.328125 -3.796875 13.640625 -2.921875 C 12.960938 -2.046875 12.066406 -1.335938 10.953125 -0.796875 C 9.847656 -0.265625 8.484375 0 6.859375 0 Z M 6.546875 -1.671875 C 7.078125 -1.671875 7.546875 -1.890625 7.953125 -2.328125 C 8.359375 -2.765625 8.707031 -3.320312 9 -4 C 9.289062 -4.675781 9.535156 -5.425781 9.734375 -6.25 C 9.941406 -7.070312 10.101562 -7.863281 10.21875 -8.625 C 10.34375 -9.394531 10.429688 -10.082031 10.484375 -10.6875 C 10.535156 -11.289062 10.5625 -11.722656 10.5625 -11.984375 C 10.5625 -12.472656 10.460938 -12.859375 10.265625 -13.140625 C 10.066406 -13.421875 9.722656 -13.5625 9.234375 -13.5625 L 8.078125 -13.5625 L 5.515625 -1.671875 Z M 6.546875 -1.671875 "/></g></g></g><g fill="#ffffff" fill-opacity="0.302"><g transform="translate(89.570768, 88.465131)"><g><path d="M 7.671875 -6.546875 C 8.148438 -6.546875 8.550781 -6.742188 8.875 -7.140625 C 9.207031 -7.546875 9.476562 -8.035156 9.6875 -8.609375 C 9.90625 -9.179688 10.0625 -9.773438 10.15625 -10.390625 C 10.25 -11.015625 10.296875 -11.5625 10.296875 -12.03125 C 10.296875 -12.457031 10.222656 -12.816406 10.078125 -13.109375 C 9.941406 -13.410156 9.632812 -13.5625 9.15625 -13.5625 L 8.078125 -13.5625 L 6.578125 -6.546875 Z M 6.234375 -5.015625 L 5.15625 0 L 0 0 L 3.234375 -15.1875 L 8.75 -15.1875 C 9.65625 -15.1875 10.484375 -15.132812 11.234375 -15.03125 C 11.984375 -14.9375 12.628906 -14.742188 13.171875 -14.453125 C 13.710938 -14.171875 14.132812 -13.765625 14.4375 -13.234375 C 14.738281 -12.703125 14.890625 -11.988281 14.890625 -11.09375 C 14.890625 -10.257812 14.757812 -9.472656 14.5 -8.734375 C 14.238281 -7.992188 13.816406 -7.347656 13.234375 -6.796875 C 12.648438 -6.242188 11.894531 -5.804688 10.96875 -5.484375 C 10.050781 -5.171875 8.929688 -5.015625 7.609375 -5.015625 Z M 6.234375 -5.015625 "/></g></g></g><g fill="#ffffff" fill-opacity="0.302"><g transform="translate(103.315578, 88.465131)"><g><path d="M 3.234375 -15.1875 L 13.296875 -15.1875 L 12.90625 -13.359375 L 8.015625 -13.359375 L 7.078125 -8.984375 L 11.171875 -8.984375 L 10.78125 -7.140625 L 6.6875 -7.140625 L 5.15625 0 L 0 0 Z M 3.234375 -15.1875 "/></g></g></g><g fill="#ffffff" fill-opacity="0.302"><g transform="translate(114.454846, 88.465131)"><g><path d="M 1.1875 -6.125 L 8.71875 -6.125 L 8.25 -3.9375 L 0.6875 -3.9375 Z M 1.1875 -6.125 "/></g></g></g><g fill="#ffffff" fill-opacity="0.302"><g transform="translate(123.777408, 88.465131)"><g><path d="M 13.484375 -1.296875 C 13.085938 -1.097656 12.675781 -0.90625 12.25 -0.71875 C 11.832031 -0.539062 11.382812 -0.382812 10.90625 -0.25 C 10.425781 -0.113281 9.898438 -0.0078125 9.328125 0.0625 C 8.765625 0.144531 8.148438 0.1875 7.484375 0.1875 C 5.347656 0.1875 3.703125 -0.285156 2.546875 -1.234375 C 1.390625 -2.191406 0.8125 -3.789062 0.8125 -6.03125 C 0.8125 -7.3125 1.007812 -8.519531 1.40625 -9.65625 C 1.8125 -10.800781 2.398438 -11.800781 3.171875 -12.65625 C 3.953125 -13.507812 4.914062 -14.179688 6.0625 -14.671875 C 7.21875 -15.171875 8.535156 -15.421875 10.015625 -15.421875 C 10.710938 -15.421875 11.351562 -15.367188 11.9375 -15.265625 C 12.519531 -15.171875 13.046875 -15.046875 13.515625 -14.890625 C 13.984375 -14.742188 14.40625 -14.582031 14.78125 -14.40625 C 15.15625 -14.238281 15.492188 -14.070312 15.796875 -13.90625 L 14.9375 -9.46875 L 10.640625 -9.46875 C 10.648438 -9.625 10.664062 -9.828125 10.6875 -10.078125 C 10.71875 -10.335938 10.738281 -10.597656 10.75 -10.859375 C 10.769531 -11.128906 10.785156 -11.390625 10.796875 -11.640625 C 10.816406 -11.898438 10.828125 -12.113281 10.828125 -12.28125 C 10.828125 -12.414062 10.816406 -12.566406 10.796875 -12.734375 C 10.785156 -12.898438 10.75 -13.0625 10.6875 -13.21875 C 10.625 -13.375 10.523438 -13.503906 10.390625 -13.609375 C 10.253906 -13.710938 10.070312 -13.765625 9.84375 -13.765625 C 9.4375 -13.765625 9.0625 -13.59375 8.71875 -13.25 C 8.375 -12.90625 8.066406 -12.453125 7.796875 -11.890625 C 7.523438 -11.328125 7.285156 -10.6875 7.078125 -9.96875 C 6.867188 -9.25 6.695312 -8.519531 6.5625 -7.78125 C 6.425781 -7.039062 6.320312 -6.3125 6.25 -5.59375 C 6.175781 -4.875 6.140625 -4.242188 6.140625 -3.703125 C 6.140625 -3.546875 6.144531 -3.347656 6.15625 -3.109375 C 6.175781 -2.867188 6.226562 -2.632812 6.3125 -2.40625 C 6.394531 -2.1875 6.519531 -2 6.6875 -1.84375 C 6.851562 -1.6875 7.078125 -1.609375 7.359375 -1.609375 C 7.859375 -1.609375 8.335938 -1.910156 8.796875 -2.515625 C 9.253906 -3.128906 9.660156 -4.226562 10.015625 -5.8125 L 14.4375 -5.8125 Z M 13.484375 -1.296875 "/></g></g></g><g fill="#ffffff" fill-opacity="0.302"><g transform="translate(138.454476, 88.465131)"><g><path d="M 3.234375 -15.1875 L 8.421875 -15.1875 L 5.59375 -2.015625 L 10.453125 -2.015625 L 10.046875 0 L 0 0 Z M 3.234375 -15.1875 "/></g></g></g><g fill="#ffffff" fill-opacity="0.302"><g transform="translate(149.378604, 88.465131)"><g><path d="M 3.234375 -15.1875 L 13.296875 -15.1875 L 12.90625 -13.359375 L 8.03125 -13.359375 L 7.03125 -8.75 L 11.109375 -8.75 L 10.734375 -6.953125 L 6.640625 -6.953125 L 5.546875 -1.84375 L 10.421875 -1.84375 L 10.0625 0 L 0 0 Z M 3.234375 -15.1875 "/></g></g></g><g fill="#ffffff" fill-opacity="0.302"><g transform="translate(160.804725, 88.465131)"><g><path d="M 13.25 0 L 7.65625 0 L 7.3125 -3.796875 L 2.890625 -3.796875 L 1.1875 0 L -1.125 0 L 5.921875 -15.1875 L 11.59375 -15.1875 Z M 3.6875 -5.546875 L 7.140625 -5.546875 L 6.59375 -12.046875 Z M 3.6875 -5.546875 "/></g></g></g><g fill="#ffffff" fill-opacity="0.302"><g transform="translate(174.597336, 88.465131)"><g><path d="M 12.734375 0 L 7.140625 0 L 4.5 -10.96875 L 2.15625 0 L 0 0 L 3.234375 -15.1875 L 8.9375 -15.1875 L 11.453125 -4.0625 L 13.8125 -15.1875 L 16.015625 -15.1875 Z M 12.734375 0 "/></g></g></g><g fill="#ffffff" fill-opacity="0.302"><g transform="translate(189.393921, 88.465131)"><g><path d="M 5.15625 0 L 0 0 L 3.234375 -15.1875 L 8.421875 -15.1875 Z M 5.15625 0 "/></g></g></g><g fill="#ffffff" fill-opacity="0.302"><g transform="translate(196.589016, 88.465131)"><g><path d="M 12.734375 0 L 7.140625 0 L 4.5 -10.96875 L 2.15625 0 L 0 0 L 3.234375 -15.1875 L 8.9375 -15.1875 L 11.453125 -4.0625 L 13.8125 -15.1875 L 16.015625 -15.1875 Z M 12.734375 0 "/></g></g></g><g fill="#ffffff" fill-opacity="0.302"><g transform="translate(211.385601, 88.465131)"><g><path d="M 8.484375 -6.9375 L 14.671875 -6.9375 L 13.296875 0 L 10.46875 0 L 10.015625 -1.53125 L 9.921875 -1.53125 C 9.503906 -1.050781 9.015625 -0.644531 8.453125 -0.3125 C 7.890625 0.0195312 7.148438 0.1875 6.234375 0.1875 C 5.535156 0.1875 4.863281 0.0703125 4.21875 -0.15625 C 3.570312 -0.382812 3 -0.75 2.5 -1.25 C 2 -1.757812 1.597656 -2.421875 1.296875 -3.234375 C 0.992188 -4.046875 0.84375 -5.023438 0.84375 -6.171875 C 0.84375 -7.410156 1.03125 -8.585938 1.40625 -9.703125 C 1.789062 -10.816406 2.363281 -11.800781 3.125 -12.65625 C 3.894531 -13.507812 4.851562 -14.179688 6 -14.671875 C 7.144531 -15.171875 8.484375 -15.421875 10.015625 -15.421875 C 11.191406 -15.421875 12.21875 -15.285156 13.09375 -15.015625 C 13.976562 -14.742188 14.8125 -14.441406 15.59375 -14.109375 L 14.671875 -9.46875 L 10.640625 -9.46875 C 10.648438 -9.644531 10.671875 -9.851562 10.703125 -10.09375 C 10.734375 -10.332031 10.757812 -10.582031 10.78125 -10.84375 C 10.800781 -11.101562 10.816406 -11.359375 10.828125 -11.609375 C 10.847656 -11.867188 10.859375 -12.09375 10.859375 -12.28125 C 10.859375 -12.414062 10.847656 -12.566406 10.828125 -12.734375 C 10.816406 -12.898438 10.773438 -13.0625 10.703125 -13.21875 C 10.640625 -13.375 10.546875 -13.503906 10.421875 -13.609375 C 10.296875 -13.710938 10.113281 -13.765625 9.875 -13.765625 C 9.457031 -13.765625 9.078125 -13.59375 8.734375 -13.25 C 8.390625 -12.90625 8.082031 -12.453125 7.8125 -11.890625 C 7.539062 -11.328125 7.304688 -10.6875 7.109375 -9.96875 C 6.910156 -9.25 6.742188 -8.519531 6.609375 -7.78125 C 6.472656 -7.039062 6.367188 -6.316406 6.296875 -5.609375 C 6.222656 -4.898438 6.1875 -4.28125 6.1875 -3.75 C 6.1875 -3.59375 6.191406 -3.394531 6.203125 -3.15625 C 6.222656 -2.914062 6.273438 -2.679688 6.359375 -2.453125 C 6.453125 -2.222656 6.582031 -2.023438 6.75 -1.859375 C 6.914062 -1.691406 7.160156 -1.609375 7.484375 -1.609375 C 8.003906 -1.609375 8.507812 -1.894531 9 -2.46875 C 9.5 -3.039062 9.878906 -3.992188 10.140625 -5.328125 L 8.125 -5.328125 Z M 8.484375 -6.9375 "/></g></g></g><g fill="#ffffff" fill-opacity="0.302"><g transform="translate(226.13437, 88.465131)"><g><path d="M 4.859375 -2.109375 C 4.859375 -1.734375 4.78125 -1.398438 4.625 -1.109375 C 4.476562 -0.828125 4.28125 -0.59375 4.03125 -0.40625 C 3.78125 -0.21875 3.492188 -0.0703125 3.171875 0.03125 C 2.859375 0.132812 2.523438 0.1875 2.171875 0.1875 C 1.566406 0.1875 1.050781 0.0234375 0.625 -0.296875 C 0.207031 -0.617188 0 -1.132812 0 -1.84375 C 0 -2.207031 0.0703125 -2.53125 0.21875 -2.8125 C 0.363281 -3.101562 0.550781 -3.34375 0.78125 -3.53125 C 1.019531 -3.726562 1.296875 -3.878906 1.609375 -3.984375 C 1.921875 -4.085938 2.242188 -4.140625 2.578125 -4.140625 C 3.234375 -4.140625 3.773438 -3.972656 4.203125 -3.640625 C 4.640625 -3.316406 4.859375 -2.804688 4.859375 -2.109375 Z M 4.859375 -2.109375 "/></g></g></g><g fill="#ffffff" fill-opacity="0.302"><g transform="translate(232.086456, 88.465131)"><g><path d="M 14.65625 -11.71875 C 14.65625 -11.25 14.585938 -10.832031 14.453125 -10.46875 C 14.316406 -10.101562 14.128906 -9.773438 13.890625 -9.484375 C 13.648438 -9.203125 13.367188 -8.945312 13.046875 -8.71875 C 12.734375 -8.5 12.382812 -8.296875 12 -8.109375 C 12.175781 -8.046875 12.382812 -7.945312 12.625 -7.8125 C 12.863281 -7.675781 13.09375 -7.488281 13.3125 -7.25 C 13.539062 -7.007812 13.726562 -6.703125 13.875 -6.328125 C 14.03125 -5.953125 14.109375 -5.492188 14.109375 -4.953125 C 14.109375 -4.234375 13.957031 -3.570312 13.65625 -2.96875 C 13.351562 -2.363281 12.898438 -1.835938 12.296875 -1.390625 C 11.703125 -0.953125 10.96875 -0.609375 10.09375 -0.359375 C 9.226562 -0.117188 8.226562 0 7.09375 0 L 0 0 L 3.234375 -15.1875 L 9.515625 -15.1875 C 10.140625 -15.1875 10.753906 -15.140625 11.359375 -15.046875 C 11.972656 -14.960938 12.523438 -14.789062 13.015625 -14.53125 C 13.503906 -14.28125 13.898438 -13.925781 14.203125 -13.46875 C 14.503906 -13.019531 14.65625 -12.4375 14.65625 -11.71875 Z M 8.15625 -8.828125 C 8.5 -8.828125 8.796875 -8.925781 9.046875 -9.125 C 9.296875 -9.332031 9.5 -9.59375 9.65625 -9.90625 C 9.8125 -10.21875 9.929688 -10.550781 10.015625 -10.90625 C 10.097656 -11.269531 10.140625 -11.59375 10.140625 -11.875 C 10.140625 -12.34375 10.03125 -12.738281 9.8125 -13.0625 C 9.59375 -13.394531 9.253906 -13.5625 8.796875 -13.5625 L 8.078125 -13.5625 L 7.046875 -8.828125 Z M 6.4375 -1.5 C 6.90625 -1.5 7.300781 -1.632812 7.625 -1.90625 C 7.945312 -2.175781 8.207031 -2.507812 8.40625 -2.90625 C 8.613281 -3.3125 8.757812 -3.734375 8.84375 -4.171875 C 8.9375 -4.609375 8.984375 -4.992188 8.984375 -5.328125 C 8.984375 -5.890625 8.867188 -6.332031 8.640625 -6.65625 C 8.410156 -6.976562 8.039062 -7.140625 7.53125 -7.140625 L 6.640625 -7.140625 L 5.46875 -1.5 Z M 6.4375 -1.5 "/></g></g></g><g fill="#ffffff" fill-opacity="0.302"><g transform="translate(246.357146, 88.465131)"><g><path d="M 8.484375 -6.9375 L 14.671875 -6.9375 L 13.296875 0 L 10.46875 0 L 10.015625 -1.53125 L 9.921875 -1.53125 C 9.503906 -1.050781 9.015625 -0.644531 8.453125 -0.3125 C 7.890625 0.0195312 7.148438 0.1875 6.234375 0.1875 C 5.535156 0.1875 4.863281 0.0703125 4.21875 -0.15625 C 3.570312 -0.382812 3 -0.75 2.5 -1.25 C 2 -1.757812 1.597656 -2.421875 1.296875 -3.234375 C 0.992188 -4.046875 0.84375 -5.023438 0.84375 -6.171875 C 0.84375 -7.410156 1.03125 -8.585938 1.40625 -9.703125 C 1.789062 -10.816406 2.363281 -11.800781 3.125 -12.65625 C 3.894531 -13.507812 4.851562 -14.179688 6 -14.671875 C 7.144531 -15.171875 8.484375 -15.421875 10.015625 -15.421875 C 11.191406 -15.421875 12.21875 -15.285156 13.09375 -15.015625 C 13.976562 -14.742188 14.8125 -14.441406 15.59375 -14.109375 L 14.671875 -9.46875 L 10.640625 -9.46875 C 10.648438 -9.644531 10.671875 -9.851562 10.703125 -10.09375 C 10.734375 -10.332031 10.757812 -10.582031 10.78125 -10.84375 C 10.800781 -11.101562 10.816406 -11.359375 10.828125 -11.609375 C 10.847656 -11.867188 10.859375 -12.09375 10.859375 -12.28125 C 10.859375 -12.414062 10.847656 -12.566406 10.828125 -12.734375 C 10.816406 -12.898438 10.773438 -13.0625 10.703125 -13.21875 C 10.640625 -13.375 10.546875 -13.503906 10.421875 -13.609375 C 10.296875 -13.710938 10.113281 -13.765625 9.875 -13.765625 C 9.457031 -13.765625 9.078125 -13.59375 8.734375 -13.25 C 8.390625 -12.90625 8.082031 -12.453125 7.8125 -11.890625 C 7.539062 -11.328125 7.304688 -10.6875 7.109375 -9.96875 C 6.910156 -9.25 6.742188 -8.519531 6.609375 -7.78125 C 6.472656 -7.039062 6.367188 -6.316406 6.296875 -5.609375 C 6.222656 -4.898438 6.1875 -4.28125 6.1875 -3.75 C 6.1875 -3.59375 6.191406 -3.394531 6.203125 -3.15625 C 6.222656 -2.914062 6.273438 -2.679688 6.359375 -2.453125 C 6.453125 -2.222656 6.582031 -2.023438 6.75 -1.859375 C 6.914062 -1.691406 7.160156 -1.609375 7.484375 -1.609375 C 8.003906 -1.609375 8.507812 -1.894531 9 -2.46875 C 9.5 -3.039062 9.878906 -3.992188 10.140625 -5.328125 L 8.125 -5.328125 Z M 8.484375 -6.9375 "/></g></g></g><g fill="#ffffff" fill-opacity="0.502"><g transform="translate(74.33224, 88.437629)"><g><path d="M 0 0 L 3.234375 -15.1875 L 9.65625 -15.1875 C 10.644531 -15.1875 11.507812 -15.082031 12.25 -14.875 C 12.988281 -14.675781 13.601562 -14.347656 14.09375 -13.890625 C 14.582031 -13.429688 14.945312 -12.828125 15.1875 -12.078125 C 15.4375 -11.328125 15.5625 -10.410156 15.5625 -9.328125 C 15.5625 -8.160156 15.410156 -7.019531 15.109375 -5.90625 C 14.816406 -4.789062 14.328125 -3.796875 13.640625 -2.921875 C 12.960938 -2.046875 12.066406 -1.335938 10.953125 -0.796875 C 9.847656 -0.265625 8.484375 0 6.859375 0 Z M 6.546875 -1.671875 C 7.078125 -1.671875 7.546875 -1.890625 7.953125 -2.328125 C 8.359375 -2.765625 8.707031 -3.320312 9 -4 C 9.289062 -4.675781 9.535156 -5.425781 9.734375 -6.25 C 9.941406 -7.070312 10.101562 -7.863281 10.21875 -8.625 C 10.34375 -9.394531 10.429688 -10.082031 10.484375 -10.6875 C 10.535156 -11.289062 10.5625 -11.722656 10.5625 -11.984375 C 10.5625 -12.472656 10.460938 -12.859375 10.265625 -13.140625 C 10.066406 -13.421875 9.722656 -13.5625 9.234375 -13.5625 L 8.078125 -13.5625 L 5.515625 -1.671875 Z M 6.546875 -1.671875 "/></g></g></g><g fill="#ffffff" fill-opacity="0.502"><g transform="translate(89.559093, 88.437629)"><g><path d="M 7.671875 -6.546875 C 8.148438 -6.546875 8.550781 -6.742188 8.875 -7.140625 C 9.207031 -7.546875 9.476562 -8.035156 9.6875 -8.609375 C 9.90625 -9.179688 10.0625 -9.773438 10.15625 -10.390625 C 10.25 -11.015625 10.296875 -11.5625 10.296875 -12.03125 C 10.296875 -12.457031 10.222656 -12.816406 10.078125 -13.109375 C 9.941406 -13.410156 9.632812 -13.5625 9.15625 -13.5625 L 8.078125 -13.5625 L 6.578125 -6.546875 Z M 6.234375 -5.015625 L 5.15625 0 L 0 0 L 3.234375 -15.1875 L 8.75 -15.1875 C 9.65625 -15.1875 10.484375 -15.132812 11.234375 -15.03125 C 11.984375 -14.9375 12.628906 -14.742188 13.171875 -14.453125 C 13.710938 -14.171875 14.132812 -13.765625 14.4375 -13.234375 C 14.738281 -12.703125 14.890625 -11.988281 14.890625 -11.09375 C 14.890625 -10.257812 14.757812 -9.472656 14.5 -8.734375 C 14.238281 -7.992188 13.816406 -7.347656 13.234375 -6.796875 C 12.648438 -6.242188 11.894531 -5.804688 10.96875 -5.484375 C 10.050781 -5.171875 8.929688 -5.015625 7.609375 -5.015625 Z M 6.234375 -5.015625 "/></g></g></g><g fill="#ffffff" fill-opacity="0.502"><g transform="translate(103.303903, 88.437629)"><g><path d="M 3.234375 -15.1875 L 13.296875 -15.1875 L 12.90625 -13.359375 L 8.015625 -13.359375 L 7.078125 -8.984375 L 11.171875 -8.984375 L 10.78125 -7.140625 L 6.6875 -7.140625 L 5.15625 0 L 0 0 Z M 3.234375 -15.1875 "/></g></g></g><g fill="#ffffff" fill-opacity="0.502"><g transform="translate(114.443171, 88.437629)"><g><path d="M 1.1875 -6.125 L 8.71875 -6.125 L 8.25 -3.9375 L 0.6875 -3.9375 Z M 1.1875 -6.125 "/></g></g></g><g fill="#ffffff" fill-opacity="0.502"><g transform="translate(123.765733, 88.437629)"><g><path d="M 13.484375 -1.296875 C 13.085938 -1.097656 12.675781 -0.90625 12.25 -0.71875 C 11.832031 -0.539062 11.382812 -0.382812 10.90625 -0.25 C 10.425781 -0.113281 9.898438 -0.0078125 9.328125 0.0625 C 8.765625 0.144531 8.148438 0.1875 7.484375 0.1875 C 5.347656 0.1875 3.703125 -0.285156 2.546875 -1.234375 C 1.390625 -2.191406 0.8125 -3.789062 0.8125 -6.03125 C 0.8125 -7.3125 1.007812 -8.519531 1.40625 -9.65625 C 1.8125 -10.800781 2.398438 -11.800781 3.171875 -12.65625 C 3.953125 -13.507812 4.914062 -14.179688 6.0625 -14.671875 C 7.21875 -15.171875 8.535156 -15.421875 10.015625 -15.421875 C 10.710938 -15.421875 11.351562 -15.367188 11.9375 -15.265625 C 12.519531 -15.171875 13.046875 -15.046875 13.515625 -14.890625 C 13.984375 -14.742188 14.40625 -14.582031 14.78125 -14.40625 C 15.15625 -14.238281 15.492188 -14.070312 15.796875 -13.90625 L 14.9375 -9.46875 L 10.640625 -9.46875 C 10.648438 -9.625 10.664062 -9.828125 10.6875 -10.078125 C 10.71875 -10.335938 10.738281 -10.597656 10.75 -10.859375 C 10.769531 -11.128906 10.785156 -11.390625 10.796875 -11.640625 C 10.816406 -11.898438 10.828125 -12.113281 10.828125 -12.28125 C 10.828125 -12.414062 10.816406 -12.566406 10.796875 -12.734375 C 10.785156 -12.898438 10.75 -13.0625 10.6875 -13.21875 C 10.625 -13.375 10.523438 -13.503906 10.390625 -13.609375 C 10.253906 -13.710938 10.070312 -13.765625 9.84375 -13.765625 C 9.4375 -13.765625 9.0625 -13.59375 8.71875 -13.25 C 8.375 -12.90625 8.066406 -12.453125 7.796875 -11.890625 C 7.523438 -11.328125 7.285156 -10.6875 7.078125 -9.96875 C 6.867188 -9.25 6.695312 -8.519531 6.5625 -7.78125 C 6.425781 -7.039062 6.320312 -6.3125 6.25 -5.59375 C 6.175781 -4.875 6.140625 -4.242188 6.140625 -3.703125 C 6.140625 -3.546875 6.144531 -3.347656 6.15625 -3.109375 C 6.175781 -2.867188 6.226562 -2.632812 6.3125 -2.40625 C 6.394531 -2.1875 6.519531 -2 6.6875 -1.84375 C 6.851562 -1.6875 7.078125 -1.609375 7.359375 -1.609375 C 7.859375 -1.609375 8.335938 -1.910156 8.796875 -2.515625 C 9.253906 -3.128906 9.660156 -4.226562 10.015625 -5.8125 L 14.4375 -5.8125 Z M 13.484375 -1.296875 "/></g></g></g><g fill="#ffffff" fill-opacity="0.502"><g transform="translate(138.442801, 88.437629)"><g><path d="M 3.234375 -15.1875 L 8.421875 -15.1875 L 5.59375 -2.015625 L 10.453125 -2.015625 L 10.046875 0 L 0 0 Z M 3.234375 -15.1875 "/></g></g></g><g fill="#ffffff" fill-opacity="0.502"><g transform="translate(149.366929, 88.437629)"><g><path d="M 3.234375 -15.1875 L 13.296875 -15.1875 L 12.90625 -13.359375 L 8.03125 -13.359375 L 7.03125 -8.75 L 11.109375 -8.75 L 10.734375 -6.953125 L 6.640625 -6.953125 L 5.546875 -1.84375 L 10.421875 -1.84375 L 10.0625 0 L 0 0 Z M 3.234375 -15.1875 "/></g></g></g><g fill="#ffffff" fill-opacity="0.502"><g transform="translate(160.793049, 88.437629)"><g><path d="M 13.25 0 L 7.65625 0 L 7.3125 -3.796875 L 2.890625 -3.796875 L 1.1875 0 L -1.125 0 L 5.921875 -15.1875 L 11.59375 -15.1875 Z M 3.6875 -5.546875 L 7.140625 -5.546875 L 6.59375 -12.046875 Z M 3.6875 -5.546875 "/></g></g></g><g fill="#ffffff" fill-opacity="0.502"><g transform="translate(174.58566, 88.437629)"><g><path d="M 12.734375 0 L 7.140625 0 L 4.5 -10.96875 L 2.15625 0 L 0 0 L 3.234375 -15.1875 L 8.9375 -15.1875 L 11.453125 -4.0625 L 13.8125 -15.1875 L 16.015625 -15.1875 Z M 12.734375 0 "/></g></g></g><g fill="#ffffff" fill-opacity="0.502"><g transform="translate(189.382245, 88.437629)"><g><path d="M 5.15625 0 L 0 0 L 3.234375 -15.1875 L 8.421875 -15.1875 Z M 5.15625 0 "/></g></g></g><g fill="#ffffff" fill-opacity="0.502"><g transform="translate(196.57734, 88.437629)"><g><path d="M 12.734375 0 L 7.140625 0 L 4.5 -10.96875 L 2.15625 0 L 0 0 L 3.234375 -15.1875 L 8.9375 -15.1875 L 11.453125 -4.0625 L 13.8125 -15.1875 L 16.015625 -15.1875 Z M 12.734375 0 "/></g></g></g><g fill="#ffffff" fill-opacity="0.502"><g transform="translate(211.373926, 88.437629)"><g><path d="M 8.484375 -6.9375 L 14.671875 -6.9375 L 13.296875 0 L 10.46875 0 L 10.015625 -1.53125 L 9.921875 -1.53125 C 9.503906 -1.050781 9.015625 -0.644531 8.453125 -0.3125 C 7.890625 0.0195312 7.148438 0.1875 6.234375 0.1875 C 5.535156 0.1875 4.863281 0.0703125 4.21875 -0.15625 C 3.570312 -0.382812 3 -0.75 2.5 -1.25 C 2 -1.757812 1.597656 -2.421875 1.296875 -3.234375 C 0.992188 -4.046875 0.84375 -5.023438 0.84375 -6.171875 C 0.84375 -7.410156 1.03125 -8.585938 1.40625 -9.703125 C 1.789062 -10.816406 2.363281 -11.800781 3.125 -12.65625 C 3.894531 -13.507812 4.851562 -14.179688 6 -14.671875 C 7.144531 -15.171875 8.484375 -15.421875 10.015625 -15.421875 C 11.191406 -15.421875 12.21875 -15.285156 13.09375 -15.015625 C 13.976562 -14.742188 14.8125 -14.441406 15.59375 -14.109375 L 14.671875 -9.46875 L 10.640625 -9.46875 C 10.648438 -9.644531 10.671875 -9.851562 10.703125 -10.09375 C 10.734375 -10.332031 10.757812 -10.582031 10.78125 -10.84375 C 10.800781 -11.101562 10.816406 -11.359375 10.828125 -11.609375 C 10.847656 -11.867188 10.859375 -12.09375 10.859375 -12.28125 C 10.859375 -12.414062 10.847656 -12.566406 10.828125 -12.734375 C 10.816406 -12.898438 10.773438 -13.0625 10.703125 -13.21875 C 10.640625 -13.375 10.546875 -13.503906 10.421875 -13.609375 C 10.296875 -13.710938 10.113281 -13.765625 9.875 -13.765625 C 9.457031 -13.765625 9.078125 -13.59375 8.734375 -13.25 C 8.390625 -12.90625 8.082031 -12.453125 7.8125 -11.890625 C 7.539062 -11.328125 7.304688 -10.6875 7.109375 -9.96875 C 6.910156 -9.25 6.742188 -8.519531 6.609375 -7.78125 C 6.472656 -7.039062 6.367188 -6.316406 6.296875 -5.609375 C 6.222656 -4.898438 6.1875 -4.28125 6.1875 -3.75 C 6.1875 -3.59375 6.191406 -3.394531 6.203125 -3.15625 C 6.222656 -2.914062 6.273438 -2.679688 6.359375 -2.453125 C 6.453125 -2.222656 6.582031 -2.023438 6.75 -1.859375 C 6.914062 -1.691406 7.160156 -1.609375 7.484375 -1.609375 C 8.003906 -1.609375 8.507812 -1.894531 9 -2.46875 C 9.5 -3.039062 9.878906 -3.992188 10.140625 -5.328125 L 8.125 -5.328125 Z M 8.484375 -6.9375 "/></g></g></g><g fill="#ffffff" fill-opacity="0.502"><g transform="translate(226.122695, 88.437629)"><g><path d="M 4.859375 -2.109375 C 4.859375 -1.734375 4.78125 -1.398438 4.625 -1.109375 C 4.476562 -0.828125 4.28125 -0.59375 4.03125 -0.40625 C 3.78125 -0.21875 3.492188 -0.0703125 3.171875 0.03125 C 2.859375 0.132812 2.523438 0.1875 2.171875 0.1875 C 1.566406 0.1875 1.050781 0.0234375 0.625 -0.296875 C 0.207031 -0.617188 0 -1.132812 0 -1.84375 C 0 -2.207031 0.0703125 -2.53125 0.21875 -2.8125 C 0.363281 -3.101562 0.550781 -3.34375 0.78125 -3.53125 C 1.019531 -3.726562 1.296875 -3.878906 1.609375 -3.984375 C 1.921875 -4.085938 2.242188 -4.140625 2.578125 -4.140625 C 3.234375 -4.140625 3.773438 -3.972656 4.203125 -3.640625 C 4.640625 -3.316406 4.859375 -2.804688 4.859375 -2.109375 Z M 4.859375 -2.109375 "/></g></g></g><g fill="#ffffff" fill-opacity="0.502"><g transform="translate(232.074781, 88.437629)"><g><path d="M 14.65625 -11.71875 C 14.65625 -11.25 14.585938 -10.832031 14.453125 -10.46875 C 14.316406 -10.101562 14.128906 -9.773438 13.890625 -9.484375 C 13.648438 -9.203125 13.367188 -8.945312 13.046875 -8.71875 C 12.734375 -8.5 12.382812 -8.296875 12 -8.109375 C 12.175781 -8.046875 12.382812 -7.945312 12.625 -7.8125 C 12.863281 -7.675781 13.09375 -7.488281 13.3125 -7.25 C 13.539062 -7.007812 13.726562 -6.703125 13.875 -6.328125 C 14.03125 -5.953125 14.109375 -5.492188 14.109375 -4.953125 C 14.109375 -4.234375 13.957031 -3.570312 13.65625 -2.96875 C 13.351562 -2.363281 12.898438 -1.835938 12.296875 -1.390625 C 11.703125 -0.953125 10.96875 -0.609375 10.09375 -0.359375 C 9.226562 -0.117188 8.226562 0 7.09375 0 L 0 0 L 3.234375 -15.1875 L 9.515625 -15.1875 C 10.140625 -15.1875 10.753906 -15.140625 11.359375 -15.046875 C 11.972656 -14.960938 12.523438 -14.789062 13.015625 -14.53125 C 13.503906 -14.28125 13.898438 -13.925781 14.203125 -13.46875 C 14.503906 -13.019531 14.65625 -12.4375 14.65625 -11.71875 Z M 8.15625 -8.828125 C 8.5 -8.828125 8.796875 -8.925781 9.046875 -9.125 C 9.296875 -9.332031 9.5 -9.59375 9.65625 -9.90625 C 9.8125 -10.21875 9.929688 -10.550781 10.015625 -10.90625 C 10.097656 -11.269531 10.140625 -11.59375 10.140625 -11.875 C 10.140625 -12.34375 10.03125 -12.738281 9.8125 -13.0625 C 9.59375 -13.394531 9.253906 -13.5625 8.796875 -13.5625 L 8.078125 -13.5625 L 7.046875 -8.828125 Z M 6.4375 -1.5 C 6.90625 -1.5 7.300781 -1.632812 7.625 -1.90625 C 7.945312 -2.175781 8.207031 -2.507812 8.40625 -2.90625 C 8.613281 -3.3125 8.757812 -3.734375 8.84375 -4.171875 C 8.9375 -4.609375 8.984375 -4.992188 8.984375 -5.328125 C 8.984375 -5.890625 8.867188 -6.332031 8.640625 -6.65625 C 8.410156 -6.976562 8.039062 -7.140625 7.53125 -7.140625 L 6.640625 -7.140625 L 5.46875 -1.5 Z M 6.4375 -1.5 "/></g></g></g><g fill="#ffffff" fill-opacity="0.502"><g transform="translate(246.345471, 88.437629)"><g><path d="M 8.484375 -6.9375 L 14.671875 -6.9375 L 13.296875 0 L 10.46875 0 L 10.015625 -1.53125 L 9.921875 -1.53125 C 9.503906 -1.050781 9.015625 -0.644531 8.453125 -0.3125 C 7.890625 0.0195312 7.148438 0.1875 6.234375 0.1875 C 5.535156 0.1875 4.863281 0.0703125 4.21875 -0.15625 C 3.570312 -0.382812 3 -0.75 2.5 -1.25 C 2 -1.757812 1.597656 -2.421875 1.296875 -3.234375 C 0.992188 -4.046875 0.84375 -5.023438 0.84375 -6.171875 C 0.84375 -7.410156 1.03125 -8.585938 1.40625 -9.703125 C 1.789062 -10.816406 2.363281 -11.800781 3.125 -12.65625 C 3.894531 -13.507812 4.851562 -14.179688 6 -14.671875 C 7.144531 -15.171875 8.484375 -15.421875 10.015625 -15.421875 C 11.191406 -15.421875 12.21875 -15.285156 13.09375 -15.015625 C 13.976562 -14.742188 14.8125 -14.441406 15.59375 -14.109375 L 14.671875 -9.46875 L 10.640625 -9.46875 C 10.648438 -9.644531 10.671875 -9.851562 10.703125 -10.09375 C 10.734375 -10.332031 10.757812 -10.582031 10.78125 -10.84375 C 10.800781 -11.101562 10.816406 -11.359375 10.828125 -11.609375 C 10.847656 -11.867188 10.859375 -12.09375 10.859375 -12.28125 C 10.859375 -12.414062 10.847656 -12.566406 10.828125 -12.734375 C 10.816406 -12.898438 10.773438 -13.0625 10.703125 -13.21875 C 10.640625 -13.375 10.546875 -13.503906 10.421875 -13.609375 C 10.296875 -13.710938 10.113281 -13.765625 9.875 -13.765625 C 9.457031 -13.765625 9.078125 -13.59375 8.734375 -13.25 C 8.390625 -12.90625 8.082031 -12.453125 7.8125 -11.890625 C 7.539062 -11.328125 7.304688 -10.6875 7.109375 -9.96875 C 6.910156 -9.25 6.742188 -8.519531 6.609375 -7.78125 C 6.472656 -7.039062 6.367188 -6.316406 6.296875 -5.609375 C 6.222656 -4.898438 6.1875 -4.28125 6.1875 -3.75 C 6.1875 -3.59375 6.191406 -3.394531 6.203125 -3.15625 C 6.222656 -2.914062 6.273438 -2.679688 6.359375 -2.453125 C 6.453125 -2.222656 6.582031 -2.023438 6.75 -1.859375 C 6.914062 -1.691406 7.160156 -1.609375 7.484375 -1.609375 C 8.003906 -1.609375 8.507812 -1.894531 9 -2.46875 C 9.5 -3.039062 9.878906 -3.992188 10.140625 -5.328125 L 8.125 -5.328125 Z M 8.484375 -6.9375 "/></g></g></g><g fill="#ffffff" fill-opacity="1"><g transform="translate(74.320564, 88.410121)"><g><path d="M 0 0 L 3.234375 -15.1875 L 9.65625 -15.1875 C 10.644531 -15.1875 11.507812 -15.082031 12.25 -14.875 C 12.988281 -14.675781 13.601562 -14.347656 14.09375 -13.890625 C 14.582031 -13.429688 14.945312 -12.828125 15.1875 -12.078125 C 15.4375 -11.328125 15.5625 -10.410156 15.5625 -9.328125 C 15.5625 -8.160156 15.410156 -7.019531 15.109375 -5.90625 C 14.816406 -4.789062 14.328125 -3.796875 13.640625 -2.921875 C 12.960938 -2.046875 12.066406 -1.335938 10.953125 -0.796875 C 9.847656 -0.265625 8.484375 0 6.859375 0 Z M 6.546875 -1.671875 C 7.078125 -1.671875 7.546875 -1.890625 7.953125 -2.328125 C 8.359375 -2.765625 8.707031 -3.320312 9 -4 C 9.289062 -4.675781 9.535156 -5.425781 9.734375 -6.25 C 9.941406 -7.070312 10.101562 -7.863281 10.21875 -8.625 C 10.34375 -9.394531 10.429688 -10.082031 10.484375 -10.6875 C 10.535156 -11.289062 10.5625 -11.722656 10.5625 -11.984375 C 10.5625 -12.472656 10.460938 -12.859375 10.265625 -13.140625 C 10.066406 -13.421875 9.722656 -13.5625 9.234375 -13.5625 L 8.078125 -13.5625 L 5.515625 -1.671875 Z M 6.546875 -1.671875 "/></g></g></g><g fill="#ffffff" fill-opacity="1"><g transform="translate(89.547417, 88.410121)"><g><path d="M 7.671875 -6.546875 C 8.148438 -6.546875 8.550781 -6.742188 8.875 -7.140625 C 9.207031 -7.546875 9.476562 -8.035156 9.6875 -8.609375 C 9.90625 -9.179688 10.0625 -9.773438 10.15625 -10.390625 C 10.25 -11.015625 10.296875 -11.5625 10.296875 -12.03125 C 10.296875 -12.457031 10.222656 -12.816406 10.078125 -13.109375 C 9.941406 -13.410156 9.632812 -13.5625 9.15625 -13.5625 L 8.078125 -13.5625 L 6.578125 -6.546875 Z M 6.234375 -5.015625 L 5.15625 0 L 0 0 L 3.234375 -15.1875 L 8.75 -15.1875 C 9.65625 -15.1875 10.484375 -15.132812 11.234375 -15.03125 C 11.984375 -14.9375 12.628906 -14.742188 13.171875 -14.453125 C 13.710938 -14.171875 14.132812 -13.765625 14.4375 -13.234375 C 14.738281 -12.703125 14.890625 -11.988281 14.890625 -11.09375 C 14.890625 -10.257812 14.757812 -9.472656 14.5 -8.734375 C 14.238281 -7.992188 13.816406 -7.347656 13.234375 -6.796875 C 12.648438 -6.242188 11.894531 -5.804688 10.96875 -5.484375 C 10.050781 -5.171875 8.929688 -5.015625 7.609375 -5.015625 Z M 6.234375 -5.015625 "/></g></g></g><g fill="#ffffff" fill-opacity="1"><g transform="translate(103.292227, 88.410121)"><g><path d="M 3.234375 -15.1875 L 13.296875 -15.1875 L 12.90625 -13.359375 L 8.015625 -13.359375 L 7.078125 -8.984375 L 11.171875 -8.984375 L 10.78125 -7.140625 L 6.6875 -7.140625 L 5.15625 0 L 0 0 Z M 3.234375 -15.1875 "/></g></g></g><g fill="#ffffff" fill-opacity="1"><g transform="translate(114.431495, 88.410121)"><g><path d="M 1.1875 -6.125 L 8.71875 -6.125 L 8.25 -3.9375 L 0.6875 -3.9375 Z M 1.1875 -6.125 "/></g></g></g><g fill="#ffffff" fill-opacity="1"><g transform="translate(123.754057, 88.410121)"><g><path d="M 13.484375 -1.296875 C 13.085938 -1.097656 12.675781 -0.90625 12.25 -0.71875 C 11.832031 -0.539062 11.382812 -0.382812 10.90625 -0.25 C 10.425781 -0.113281 9.898438 -0.0078125 9.328125 0.0625 C 8.765625 0.144531 8.148438 0.1875 7.484375 0.1875 C 5.347656 0.1875 3.703125 -0.285156 2.546875 -1.234375 C 1.390625 -2.191406 0.8125 -3.789062 0.8125 -6.03125 C 0.8125 -7.3125 1.007812 -8.519531 1.40625 -9.65625 C 1.8125 -10.800781 2.398438 -11.800781 3.171875 -12.65625 C 3.953125 -13.507812 4.914062 -14.179688 6.0625 -14.671875 C 7.21875 -15.171875 8.535156 -15.421875 10.015625 -15.421875 C 10.710938 -15.421875 11.351562 -15.367188 11.9375 -15.265625 C 12.519531 -15.171875 13.046875 -15.046875 13.515625 -14.890625 C 13.984375 -14.742188 14.40625 -14.582031 14.78125 -14.40625 C 15.15625 -14.238281 15.492188 -14.070312 15.796875 -13.90625 L 14.9375 -9.46875 L 10.640625 -9.46875 C 10.648438 -9.625 10.664062 -9.828125 10.6875 -10.078125 C 10.71875 -10.335938 10.738281 -10.597656 10.75 -10.859375 C 10.769531 -11.128906 10.785156 -11.390625 10.796875 -11.640625 C 10.816406 -11.898438 10.828125 -12.113281 10.828125 -12.28125 C 10.828125 -12.414062 10.816406 -12.566406 10.796875 -12.734375 C 10.785156 -12.898438 10.75 -13.0625 10.6875 -13.21875 C 10.625 -13.375 10.523438 -13.503906 10.390625 -13.609375 C 10.253906 -13.710938 10.070312 -13.765625 9.84375 -13.765625 C 9.4375 -13.765625 9.0625 -13.59375 8.71875 -13.25 C 8.375 -12.90625 8.066406 -12.453125 7.796875 -11.890625 C 7.523438 -11.328125 7.285156 -10.6875 7.078125 -9.96875 C 6.867188 -9.25 6.695312 -8.519531 6.5625 -7.78125 C 6.425781 -7.039062 6.320312 -6.3125 6.25 -5.59375 C 6.175781 -4.875 6.140625 -4.242188 6.140625 -3.703125 C 6.140625 -3.546875 6.144531 -3.347656 6.15625 -3.109375 C 6.175781 -2.867188 6.226562 -2.632812 6.3125 -2.40625 C 6.394531 -2.1875 6.519531 -2 6.6875 -1.84375 C 6.851562 -1.6875 7.078125 -1.609375 7.359375 -1.609375 C 7.859375 -1.609375 8.335938 -1.910156 8.796875 -2.515625 C 9.253906 -3.128906 9.660156 -4.226562 10.015625 -5.8125 L 14.4375 -5.8125 Z M 13.484375 -1.296875 "/></g></g></g><g fill="#ffffff" fill-opacity="1"><g transform="translate(138.431126, 88.410121)"><g><path d="M 3.234375 -15.1875 L 8.421875 -15.1875 L 5.59375 -2.015625 L 10.453125 -2.015625 L 10.046875 0 L 0 0 Z M 3.234375 -15.1875 "/></g></g></g><g fill="#ffffff" fill-opacity="1"><g transform="translate(149.355253, 88.410121)"><g><path d="M 3.234375 -15.1875 L 13.296875 -15.1875 L 12.90625 -13.359375 L 8.03125 -13.359375 L 7.03125 -8.75 L 11.109375 -8.75 L 10.734375 -6.953125 L 6.640625 -6.953125 L 5.546875 -1.84375 L 10.421875 -1.84375 L 10.0625 0 L 0 0 Z M 3.234375 -15.1875 "/></g></g></g><g fill="#ffffff" fill-opacity="1"><g transform="translate(160.781374, 88.410121)"><g><path d="M 13.25 0 L 7.65625 0 L 7.3125 -3.796875 L 2.890625 -3.796875 L 1.1875 0 L -1.125 0 L 5.921875 -15.1875 L 11.59375 -15.1875 Z M 3.6875 -5.546875 L 7.140625 -5.546875 L 6.59375 -12.046875 Z M 3.6875 -5.546875 "/></g></g></g><g fill="#ffffff" fill-opacity="1"><g transform="translate(174.573985, 88.410121)"><g><path d="M 12.734375 0 L 7.140625 0 L 4.5 -10.96875 L 2.15625 0 L 0 0 L 3.234375 -15.1875 L 8.9375 -15.1875 L 11.453125 -4.0625 L 13.8125 -15.1875 L 16.015625 -15.1875 Z M 12.734375 0 "/></g></g></g><g fill="#ffffff" fill-opacity="1"><g transform="translate(189.37057, 88.410121)"><g><path d="M 5.15625 0 L 0 0 L 3.234375 -15.1875 L 8.421875 -15.1875 Z M 5.15625 0 "/></g></g></g><g fill="#ffffff" fill-opacity="1"><g transform="translate(196.565665, 88.410121)"><g><path d="M 12.734375 0 L 7.140625 0 L 4.5 -10.96875 L 2.15625 0 L 0 0 L 3.234375 -15.1875 L 8.9375 -15.1875 L 11.453125 -4.0625 L 13.8125 -15.1875 L 16.015625 -15.1875 Z M 12.734375 0 "/></g></g></g><g fill="#ffffff" fill-opacity="1"><g transform="translate(211.36225, 88.410121)"><g><path d="M 8.484375 -6.9375 L 14.671875 -6.9375 L 13.296875 0 L 10.46875 0 L 10.015625 -1.53125 L 9.921875 -1.53125 C 9.503906 -1.050781 9.015625 -0.644531 8.453125 -0.3125 C 7.890625 0.0195312 7.148438 0.1875 6.234375 0.1875 C 5.535156 0.1875 4.863281 0.0703125 4.21875 -0.15625 C 3.570312 -0.382812 3 -0.75 2.5 -1.25 C 2 -1.757812 1.597656 -2.421875 1.296875 -3.234375 C 0.992188 -4.046875 0.84375 -5.023438 0.84375 -6.171875 C 0.84375 -7.410156 1.03125 -8.585938 1.40625 -9.703125 C 1.789062 -10.816406 2.363281 -11.800781 3.125 -12.65625 C 3.894531 -13.507812 4.851562 -14.179688 6 -14.671875 C 7.144531 -15.171875 8.484375 -15.421875 10.015625 -15.421875 C 11.191406 -15.421875 12.21875 -15.285156 13.09375 -15.015625 C 13.976562 -14.742188 14.8125 -14.441406 15.59375 -14.109375 L 14.671875 -9.46875 L 10.640625 -9.46875 C 10.648438 -9.644531 10.671875 -9.851562 10.703125 -10.09375 C 10.734375 -10.332031 10.757812 -10.582031 10.78125 -10.84375 C 10.800781 -11.101562 10.816406 -11.359375 10.828125 -11.609375 C 10.847656 -11.867188 10.859375 -12.09375 10.859375 -12.28125 C 10.859375 -12.414062 10.847656 -12.566406 10.828125 -12.734375 C 10.816406 -12.898438 10.773438 -13.0625 10.703125 -13.21875 C 10.640625 -13.375 10.546875 -13.503906 10.421875 -13.609375 C 10.296875 -13.710938 10.113281 -13.765625 9.875 -13.765625 C 9.457031 -13.765625 9.078125 -13.59375 8.734375 -13.25 C 8.390625 -12.90625 8.082031 -12.453125 7.8125 -11.890625 C 7.539062 -11.328125 7.304688 -10.6875 7.109375 -9.96875 C 6.910156 -9.25 6.742188 -8.519531 6.609375 -7.78125 C 6.472656 -7.039062 6.367188 -6.316406 6.296875 -5.609375 C 6.222656 -4.898438 6.1875 -4.28125 6.1875 -3.75 C 6.1875 -3.59375 6.191406 -3.394531 6.203125 -3.15625 C 6.222656 -2.914062 6.273438 -2.679688 6.359375 -2.453125 C 6.453125 -2.222656 6.582031 -2.023438 6.75 -1.859375 C 6.914062 -1.691406 7.160156 -1.609375 7.484375 -1.609375 C 8.003906 -1.609375 8.507812 -1.894531 9 -2.46875 C 9.5 -3.039062 9.878906 -3.992188 10.140625 -5.328125 L 8.125 -5.328125 Z M 8.484375 -6.9375 "/></g></g></g><g fill="#ffffff" fill-opacity="1"><g transform="translate(226.111019, 88.410121)"><g><path d="M 4.859375 -2.109375 C 4.859375 -1.734375 4.78125 -1.398438 4.625 -1.109375 C 4.476562 -0.828125 4.28125 -0.59375 4.03125 -0.40625 C 3.78125 -0.21875 3.492188 -0.0703125 3.171875 0.03125 C 2.859375 0.132812 2.523438 0.1875 2.171875 0.1875 C 1.566406 0.1875 1.050781 0.0234375 0.625 -0.296875 C 0.207031 -0.617188 0 -1.132812 0 -1.84375 C 0 -2.207031 0.0703125 -2.53125 0.21875 -2.8125 C 0.363281 -3.101562 0.550781 -3.34375 0.78125 -3.53125 C 1.019531 -3.726562 1.296875 -3.878906 1.609375 -3.984375 C 1.921875 -4.085938 2.242188 -4.140625 2.578125 -4.140625 C 3.234375 -4.140625 3.773438 -3.972656 4.203125 -3.640625 C 4.640625 -3.316406 4.859375 -2.804688 4.859375 -2.109375 Z M 4.859375 -2.109375 "/></g></g></g><g fill="#ffffff" fill-opacity="1"><g transform="translate(232.063105, 88.410121)"><g><path d="M 14.65625 -11.71875 C 14.65625 -11.25 14.585938 -10.832031 14.453125 -10.46875 C 14.316406 -10.101562 14.128906 -9.773438 13.890625 -9.484375 C 13.648438 -9.203125 13.367188 -8.945312 13.046875 -8.71875 C 12.734375 -8.5 12.382812 -8.296875 12 -8.109375 C 12.175781 -8.046875 12.382812 -7.945312 12.625 -7.8125 C 12.863281 -7.675781 13.09375 -7.488281 13.3125 -7.25 C 13.539062 -7.007812 13.726562 -6.703125 13.875 -6.328125 C 14.03125 -5.953125 14.109375 -5.492188 14.109375 -4.953125 C 14.109375 -4.234375 13.957031 -3.570312 13.65625 -2.96875 C 13.351562 -2.363281 12.898438 -1.835938 12.296875 -1.390625 C 11.703125 -0.953125 10.96875 -0.609375 10.09375 -0.359375 C 9.226562 -0.117188 8.226562 0 7.09375 0 L 0 0 L 3.234375 -15.1875 L 9.515625 -15.1875 C 10.140625 -15.1875 10.753906 -15.140625 11.359375 -15.046875 C 11.972656 -14.960938 12.523438 -14.789062 13.015625 -14.53125 C 13.503906 -14.28125 13.898438 -13.925781 14.203125 -13.46875 C 14.503906 -13.019531 14.65625 -12.4375 14.65625 -11.71875 Z M 8.15625 -8.828125 C 8.5 -8.828125 8.796875 -8.925781 9.046875 -9.125 C 9.296875 -9.332031 9.5 -9.59375 9.65625 -9.90625 C 9.8125 -10.21875 9.929688 -10.550781 10.015625 -10.90625 C 10.097656 -11.269531 10.140625 -11.59375 10.140625 -11.875 C 10.140625 -12.34375 10.03125 -12.738281 9.8125 -13.0625 C 9.59375 -13.394531 9.253906 -13.5625 8.796875 -13.5625 L 8.078125 -13.5625 L 7.046875 -8.828125 Z M 6.4375 -1.5 C 6.90625 -1.5 7.300781 -1.632812 7.625 -1.90625 C 7.945312 -2.175781 8.207031 -2.507812 8.40625 -2.90625 C 8.613281 -3.3125 8.757812 -3.734375 8.84375 -4.171875 C 8.9375 -4.609375 8.984375 -4.992188 8.984375 -5.328125 C 8.984375 -5.890625 8.867188 -6.332031 8.640625 -6.65625 C 8.410156 -6.976562 8.039062 -7.140625 7.53125 -7.140625 L 6.640625 -7.140625 L 5.46875 -1.5 Z M 6.4375 -1.5 "/></g></g></g><g fill="#ffffff" fill-opacity="1"><g transform="translate(246.333795, 88.410121)"><g><path d="M 8.484375 -6.9375 L 14.671875 -6.9375 L 13.296875 0 L 10.46875 0 L 10.015625 -1.53125 L 9.921875 -1.53125 C 9.503906 -1.050781 9.015625 -0.644531 8.453125 -0.3125 C 7.890625 0.0195312 7.148438 0.1875 6.234375 0.1875 C 5.535156 0.1875 4.863281 0.0703125 4.21875 -0.15625 C 3.570312 -0.382812 3 -0.75 2.5 -1.25 C 2 -1.757812 1.597656 -2.421875 1.296875 -3.234375 C 0.992188 -4.046875 0.84375 -5.023438 0.84375 -6.171875 C 0.84375 -7.410156 1.03125 -8.585938 1.40625 -9.703125 C 1.789062 -10.816406 2.363281 -11.800781 3.125 -12.65625 C 3.894531 -13.507812 4.851562 -14.179688 6 -14.671875 C 7.144531 -15.171875 8.484375 -15.421875 10.015625 -15.421875 C 11.191406 -15.421875 12.21875 -15.285156 13.09375 -15.015625 C 13.976562 -14.742188 14.8125 -14.441406 15.59375 -14.109375 L 14.671875 -9.46875 L 10.640625 -9.46875 C 10.648438 -9.644531 10.671875 -9.851562 10.703125 -10.09375 C 10.734375 -10.332031 10.757812 -10.582031 10.78125 -10.84375 C 10.800781 -11.101562 10.816406 -11.359375 10.828125 -11.609375 C 10.847656 -11.867188 10.859375 -12.09375 10.859375 -12.28125 C 10.859375 -12.414062 10.847656 -12.566406 10.828125 -12.734375 C 10.816406 -12.898438 10.773438 -13.0625 10.703125 -13.21875 C 10.640625 -13.375 10.546875 -13.503906 10.421875 -13.609375 C 10.296875 -13.710938 10.113281 -13.765625 9.875 -13.765625 C 9.457031 -13.765625 9.078125 -13.59375 8.734375 -13.25 C 8.390625 -12.90625 8.082031 -12.453125 7.8125 -11.890625 C 7.539062 -11.328125 7.304688 -10.6875 7.109375 -9.96875 C 6.910156 -9.25 6.742188 -8.519531 6.609375 -7.78125 C 6.472656 -7.039062 6.367188 -6.316406 6.296875 -5.609375 C 6.222656 -4.898438 6.1875 -4.28125 6.1875 -3.75 C 6.1875 -3.59375 6.191406 -3.394531 6.203125 -3.15625 C 6.222656 -2.914062 6.273438 -2.679688 6.359375 -2.453125 C 6.453125 -2.222656 6.582031 -2.023438 6.75 -1.859375 C 6.914062 -1.691406 7.160156 -1.609375 7.484375 -1.609375 C 8.003906 -1.609375 8.507812 -1.894531 9 -2.46875 C 9.5 -3.039062 9.878906 -3.992188 10.140625 -5.328125 L 8.125 -5.328125 Z M 8.484375 -6.9375 "/></g></g></g></svg>