<svg xmlns="http://www.w3.org/2000/svg" viewBox="0 0 134.08 142.03"><defs><style>.cls-1,.cls-2{fill:#fff;stroke-miterlimit:10}.cls-1{stroke:#000;stroke-width:4px}.cls-2{stroke:#11a703;stroke-width:8px;fill-rule:evenodd}</style></defs><title>dpf-reinigung</title><g id="Layer_2" data-name="Layer 2"><path d="M104.55 15.69l-17.13-4.6-15.85 25-22.62-14.37L4.64 91.56l6.7 4.25L0 113.69l19.58 12.41 11.34-17.87 22.9 14.53 44.3-69.84-7-4.43 6.77-10.67 16.42 5.72 19.74-31.12L114.51 0zm24-2l-15.9 25.07L96.24 33 85.62 49.73l7 4.43-40 63.08L22 97.85l-2.14 3.38 7.66 4.86-9.2 14.49-12.8-8.13 11.34-17.87-6.7-4.25 40-63.08 29.48 18.68 2.14-3.38-6.84-4.34 14.28-22.5 17.13 4.6 9.39-14.8z"/><circle class="cls-1" cx="84.72" cy="97.61" r="42.42"/><path class="cls-2" d="M84.95 120.95a17.22 17.22 0 0 1-17.22-17.22c0-9.51 11.48-20.19 17.22-30.14 5.74 9.95 17.22 20.63 17.22 30.14a17.22 17.22 0 0 1-17.22 17.22z"/></g></svg>