<?xml version="1.0" encoding="UTF-8"?><svg id="a" xmlns="http://www.w3.org/2000/svg" viewBox="0 0 496.203 550.448"><polygon points="1.5 1.5 1.5 548.948 494.703 548.948 494.703 1.5 1.5 1.5 1.5 1.5" style="fill:none; stroke:#fff; stroke-miterlimit:10; stroke-width:3px;"/><polygon points="83.117 142.112 83.117 55.38 59.639 55.38 59.639 163.9 124.758 163.9 124.758 142.112 83.117 142.112 83.117 142.112" style="fill:#fff; stroke-width:0px;"/><path d="m304.378,159.89c18.044-9.379,29.75-27.817,29.75-50.111,0-32.438-24.737-56.793-57.823-56.793s-58.081,24.481-58.081,56.793,24.866,56.794,58.081,56.794c8.283,0,16.045-1.531,23.027-4.326l-16.377-18.515c-2.141.395-4.362.624-6.65.624-19.398,0-34.221-14.986-34.221-34.577s14.823-34.57,34.221-34.57,33.963,14.824,33.963,34.57c0,15.043-8.473,27.197-21.075,32.15l15.185,17.961h0Z" style="fill:#fff; stroke-width:0px;"/><polygon points="383.57 94.32 410.85 163.924 436.868 163.924 396.581 61.124 383.57 94.32 383.57 94.32" style="fill:#fff; stroke-width:0px;"/><polygon points="368.352 55.468 330.751 151.402 348.784 171.787 394.367 55.468 368.352 55.468 368.352 55.468" style="fill:#fff; stroke-width:0px;"/><path d="m214.153,91.295c0-20.922-16.304-35.885-38.271-35.885h-44.218v108.513h23.625v-86.828h19.036c9.956,0,15.895,5.929,15.895,14.043s-5.939,14.046-15.895,14.046h-16.48l34.178,58.739h26.403l-24.172-41.05c12.081-5.79,19.899-17.389,19.899-31.579m-56.318,13.89h.01l-.01-.019v.019h0Z" style="fill:#fff; stroke-width:0px;"/><polygon points="295.068 117.881 265.78 117.881 317.251 175.588 346.456 175.588 346.433 175.564 295.068 117.881 295.068 117.881" style="fill:#fff; stroke-width:0px;"/><path d="m403.994,254.376v-39.53h4.116c11.146,0,17.576,5.746,17.576,19.468,0,13.804-6.43,20.062-17.576,20.062h-4.116Zm-10.205,8.233h15.52c16.636,0,26.924-9.604,26.924-28.295s-10.288-27.784-27.439-27.784h-15.005v56.079h0Zm-46.217,0h34.726v-8.575h-24.524v-16.291h20.066v-8.575h-20.066v-14.063h23.668v-8.575h-33.87v56.079h0Zm-24.355,0h10.206v-56.079h-10.206v56.079h0Zm-43.815,0h10.205v-23.239h20.235v-8.572h-20.235v-15.693h23.751v-8.575h-33.956v56.079h0Zm-24.352,0h10.206v-56.079h-10.206v56.079h0Zm-35.672,0h10.205v-47.504h16.122v-8.575h-42.448v8.575h16.121v47.504h0Zm-50.592-29.925v-18.008h7.719c7.629,0,11.746,2.228,11.746,8.576,0,6.258-4.117,9.432-11.746,9.432h-7.719Zm-10.205,29.925h10.205v-21.778h8.317l12.004,21.778h11.407l-13.292-23.322c6.689-2.317,11.062-7.546,11.062-16.035,0-12.606-9.004-16.722-20.753-16.722h-18.95v56.079h0Zm-46.216,0h34.729v-8.575h-24.527v-16.291h20.065v-8.575h-20.065v-14.063h23.667v-8.575h-33.869v56.079h0Zm-27.097,1.029c7.204,0,13.034-2.745,17.751-8.147l-5.488-6.088c-3.087,3.432-6.948,5.404-11.835,5.404-9.345,0-15.261-7.719-15.261-20.324,0-12.519,6.516-20.066,15.434-20.066,4.372,0,7.715,1.631,10.633,4.459l5.402-6.258c-3.516-3.861-9.176-7.118-16.208-7.118-14.232,0-25.726,10.889-25.726,29.242,0,18.608,11.235,28.896,25.298,28.896" style="fill:#fff; stroke-width:0px;"/><path d="m66.531,466.894v-38.858h-6.892v38.858h6.892Zm13.666-.772c2.415.99,4.931,1.485,7.546,1.485,2.178,0,4.129-.307,5.852-.921,1.723-.613,3.188-1.445,4.397-2.495,1.208-1.049,2.129-2.267,2.763-3.654.633-1.386.95-2.872.95-4.457,0-2.812-.733-5.03-2.198-6.654-1.466-1.624-3.348-2.912-5.645-3.862l-5.288-2.199c-.792-.316-1.565-.643-2.317-.98-.753-.336-1.417-.713-1.99-1.129-.575-.416-1.031-.891-1.367-1.426-.337-.535-.505-1.178-.505-1.931,0-1.426.544-2.545,1.634-3.357,1.089-.811,2.585-1.218,4.486-1.218,1.664,0,3.169.297,4.516.891,1.346.594,2.653,1.407,3.921,2.436l3.506-4.397c-1.506-1.505-3.308-2.703-5.407-3.594-2.1-.892-4.278-1.337-6.536-1.337-1.901,0-3.654.277-5.258.832-1.605.555-2.981,1.327-4.13,2.317-1.149.99-2.05,2.149-2.703,3.476-.654,1.327-.981,2.763-.981,4.307,0,1.426.228,2.684.684,3.773.454,1.09,1.059,2.05,1.812,2.882.752.832,1.594,1.545,2.525,2.139.93.594,1.872,1.11,2.822,1.545l5.348,2.317c.871.357,1.673.704,2.406,1.04.733.337,1.367.723,1.901,1.159.535.436.951.931,1.248,1.485.297.555.446,1.228.446,2.02,0,1.506-.565,2.714-1.694,3.625-1.128.911-2.822,1.366-5.08,1.366-1.782,0-3.565-.405-5.347-1.218-1.783-.811-3.367-1.871-4.753-3.179l-4.041,4.694c1.902,1.823,4.06,3.229,6.477,4.219h0Zm27.807-10.368c.831,2.516,1.999,4.655,3.505,6.417,1.505,1.763,3.307,3.11,5.407,4.04,2.099.93,4.416,1.396,6.952,1.396s4.852-.466,6.952-1.396c2.099-.93,3.911-2.277,5.436-4.04,1.525-1.762,2.704-3.901,3.535-6.417.832-2.515,1.248-5.338,1.248-8.467s-.416-5.932-1.248-8.408c-.831-2.475-2.01-4.565-3.535-6.268-1.525-1.703-3.337-3.01-5.436-3.922-2.1-.91-4.418-1.366-6.952-1.366s-4.853.456-6.952,1.366c-2.1.912-3.902,2.219-5.407,3.922-1.506,1.703-2.674,3.793-3.505,6.268-.832,2.476-1.248,5.279-1.248,8.408s.416,5.952,1.248,8.467h0Zm8.526-18.746c1.802-2.456,4.248-3.684,7.338-3.684s5.535,1.228,7.338,3.684c1.802,2.456,2.703,5.882,2.703,10.279,0,2.179-.237,4.15-.713,5.912-.475,1.763-1.149,3.268-2.02,4.515-.872,1.248-1.922,2.209-3.149,2.882-1.228.674-2.614,1.01-4.159,1.01s-2.932-.336-4.159-1.01c-1.229-.673-2.279-1.634-3.149-2.882-.872-1.247-1.545-2.752-2.021-4.515-.475-1.762-.713-3.733-.713-5.912,0-4.397.901-7.823,2.704-10.279h0Zm42.245,8.912c.534,1.466,1.286,2.684,2.258,3.654.97.971,2.128,1.694,3.475,2.169,1.347.475,2.832.713,4.457.713,1.386,0,2.831-.386,4.337-1.159,1.505-.772,2.812-1.851,3.922-3.238-.08,2.615-.367,4.813-.862,6.596-.496,1.782-1.139,3.218-1.931,4.307-.793,1.09-1.714,1.872-2.763,2.347-1.05.476-2.169.713-3.357.713-1.149,0-2.268-.267-3.357-.802-1.09-.535-1.99-1.218-2.703-2.05l-3.684,4.159c1.148,1.189,2.555,2.199,4.218,3.031,1.664.831,3.625,1.247,5.883,1.247,1.98,0,3.862-.396,5.644-1.188,1.783-.792,3.357-2.029,4.724-3.714,1.366-1.683,2.455-3.832,3.268-6.446.811-2.615,1.218-5.764,1.218-9.448,0-3.168-.367-5.911-1.099-8.229-.734-2.317-1.724-4.228-2.971-5.733-1.248-1.505-2.694-2.624-4.338-3.357-1.644-.733-3.397-1.1-5.258-1.1-1.625,0-3.159.288-4.605.862-1.446.575-2.703,1.396-3.773,2.466-1.069,1.069-1.922,2.367-2.555,3.891-.634,1.526-.95,3.239-.95,5.14,0,1.981.267,3.704.802,5.169h0Zm7.159-10.457c1.109-1.227,2.436-1.842,3.981-1.842,1.822,0,3.377.753,4.665,2.258,1.286,1.506,2.109,3.921,2.465,7.249-.99,1.544-2.089,2.664-3.297,3.357-1.209.693-2.368,1.039-3.476,1.039-1.902,0-3.378-.564-4.427-1.693-1.05-1.129-1.574-2.822-1.574-5.08,0-2.297.554-4.06,1.663-5.288h0Zm26.143,27.094c2.297,3.367,5.426,5.05,9.388,5.05s7.09-1.683,9.388-5.05c2.296-3.366,3.446-8.279,3.446-14.735,0-6.417-1.15-11.26-3.446-14.528-2.298-3.268-5.428-4.902-9.388-4.902s-7.091,1.625-9.388,4.872c-2.298,3.249-3.446,8.102-3.446,14.558s1.148,11.369,3.446,14.735h0Zm3.565-21.45c.316-1.782.752-3.228,1.307-4.337.554-1.108,1.218-1.891,1.991-2.347.772-.455,1.613-.683,2.525-.683s1.753.228,2.525.683c.772.456,1.435,1.239,1.99,2.347.555,1.109.99,2.555,1.308,4.337.316,1.783.475,4.021.475,6.715,0,2.654-.159,4.901-.475,6.743-.318,1.842-.753,3.338-1.308,4.486-.555,1.15-1.218,1.971-1.99,2.466-.772.496-1.615.743-2.525.743s-1.753-.247-2.525-.743c-.773-.495-1.437-1.316-1.991-2.466-.555-1.148-.991-2.644-1.307-4.486-.318-1.842-.475-4.089-.475-6.743,0-2.694.157-4.932.475-6.715h0Zm26.915,21.45c2.297,3.367,5.426,5.05,9.388,5.05s7.09-1.683,9.387-5.05c2.297-3.366,3.447-8.279,3.447-14.735,0-6.417-1.15-11.26-3.447-14.528-2.297-3.268-5.427-4.902-9.387-4.902s-7.091,1.625-9.388,4.872c-2.298,3.249-3.446,8.102-3.446,14.558s1.148,11.369,3.446,14.735h0Zm3.565-21.45c.316-1.782.752-3.228,1.307-4.337.554-1.108,1.218-1.891,1.99-2.347.773-.455,1.614-.683,2.526-.683s1.752.228,2.525.683c.772.456,1.435,1.239,1.99,2.347.555,1.109.99,2.555,1.307,4.337.317,1.783.476,4.021.476,6.715,0,2.654-.159,4.901-.476,6.743-.317,1.842-.752,3.338-1.307,4.486-.555,1.15-1.218,1.971-1.99,2.466-.773.496-1.615.743-2.525.743s-1.753-.247-2.526-.743c-.772-.495-1.436-1.316-1.99-2.466-.555-1.148-.991-2.644-1.307-4.486-.318-1.842-.476-4.089-.476-6.743,0-2.694.158-4.932.476-6.715h0Zm25.489,25.787h22.756v-5.585h-7.427v-32.204h-5.11c-1.188.713-2.465,1.318-3.832,1.813-1.367.495-3.001.92-4.902,1.277v4.278h6.952v24.836h-8.437v5.585h0Zm42.987-20.914c.851.871,1.91,1.307,3.178,1.307s2.318-.436,3.149-1.307c.832-.871,1.248-1.981,1.248-3.328s-.416-2.455-1.248-3.327c-.831-.871-1.881-1.307-3.149-1.307s-2.327.436-3.178,1.307c-.853.872-1.278,1.981-1.278,3.327s.425,2.457,1.278,3.328h0Zm0,20.32c.851.871,1.91,1.307,3.178,1.307s2.318-.436,3.149-1.307c.832-.871,1.248-1.98,1.248-3.327s-.416-2.456-1.248-3.328c-.831-.87-1.881-1.307-3.149-1.307s-2.327.437-3.178,1.307c-.853.872-1.278,1.982-1.278,3.328s.425,2.456,1.278,3.327h0Zm28.965-28.282c1.029-1.149,2.148-2.139,3.357-2.971,1.208-.832,2.544-1.248,4.01-1.248,2.021,0,3.565.585,4.635,1.753,1.069,1.169,1.604,2.763,1.604,4.783,0,1.426-.396,2.932-1.188,4.516-.793,1.584-1.931,3.288-3.417,5.11-1.485,1.822-3.288,3.802-5.407,5.941-2.119,2.139-4.486,4.477-7.1,7.011v3.981h25.549v-5.823h-9.269c-.911,0-1.941.051-3.089.149-1.15.099-2.219.188-3.209.267,1.862-1.98,3.625-3.901,5.288-5.763,1.664-1.861,3.12-3.674,4.367-5.437,1.248-1.762,2.238-3.505,2.971-5.228.733-1.723,1.099-3.417,1.099-5.08,0-1.743-.277-3.328-.831-4.754-.556-1.426-1.358-2.644-2.407-3.654-1.05-1.01-2.308-1.792-3.773-2.347-1.466-.554-3.11-.832-4.931-.832-2.615,0-4.843.505-6.685,1.515-1.842,1.011-3.634,2.447-5.377,4.308l3.803,3.803h0Zm30.539,24.539c2.297,3.367,5.426,5.05,9.388,5.05s7.09-1.683,9.388-5.05c2.297-3.366,3.446-8.279,3.446-14.735,0-6.417-1.149-11.26-3.446-14.528-2.298-3.268-5.428-4.902-9.388-4.902s-7.091,1.625-9.388,4.872c-2.298,3.249-3.446,8.102-3.446,14.558s1.148,11.369,3.446,14.735h0Zm3.565-21.45c.317-1.782.752-3.228,1.307-4.337.554-1.108,1.218-1.891,1.991-2.347.772-.455,1.613-.683,2.525-.683s1.753.228,2.525.683c.773.456,1.435,1.239,1.991,2.347.554,1.109.989,2.555,1.307,4.337.316,1.783.475,4.021.475,6.715,0,2.654-.159,4.901-.475,6.743-.318,1.842-.753,3.338-1.307,4.486-.556,1.15-1.218,1.971-1.991,2.466-.772.496-1.614.743-2.525.743s-1.753-.247-2.525-.743c-.773-.495-1.437-1.316-1.991-2.466-.555-1.148-.99-2.644-1.307-4.486-.317-1.842-.475-4.089-.475-6.743,0-2.694.158-4.932.475-6.715h0Zm25.489,25.787h22.757v-5.585h-7.428v-32.204h-5.109c-1.189.713-2.466,1.318-3.833,1.813-1.366.495-3,.92-4.902,1.277v4.278h6.952v24.836h-8.437v5.585h0Zm27.509-4.515c1.386,1.387,3.119,2.605,5.199,3.654,2.08,1.049,4.644,1.574,7.694,1.574,1.743,0,3.417-.287,5.021-.861,1.604-.574,3.02-1.416,4.248-2.525s2.208-2.475,2.942-4.1c.732-1.624,1.099-3.466,1.099-5.526,0-2.02-.318-3.773-.951-5.258-.634-1.486-1.485-2.713-2.555-3.684-1.069-.97-2.327-1.694-3.773-2.169-1.446-.475-2.981-.713-4.605-.713-.99,0-1.871.11-2.644.327-.772.218-1.555.525-2.347.921l.773-9.15h14.26v-5.764h-20.202l-1.129,18.657,3.268,2.08c1.149-.752,2.139-1.297,2.971-1.634.832-.336,1.861-.505,3.09-.505,2.139,0,3.832.614,5.08,1.842,1.248,1.228,1.871,2.97,1.871,5.228,0,2.298-.683,4.081-2.049,5.348-1.367,1.268-3.12,1.901-5.259,1.901-1.901,0-3.565-.406-4.991-1.218-1.426-.811-2.713-1.753-3.862-2.822l-3.149,4.397h0Z" style="fill:#fff; stroke-width:0px;"/></svg>